<svg id="Capa_1" data-name="Capa 1" xmlns="http://www.w3.org/2000/svg" viewBox="0 0 100 100"><defs><style>.cls-1{fill:#f4f5f8;}</style></defs><g id="_39fryx" data-name="39fryx"><path class="cls-1" d="M70.28,31.43,63.34,37.8a1,1,0,0,1-.21-.1c-4.86-4-10.33-4.64-16.19-2.45a15,15,0,0,0-10,15.47A15.91,15.91,0,0,0,49.43,64.61c5.81,1.23,12.45-.3,16.27-5.57a11.46,11.46,0,0,0,2-4.6H53V46c.28,0,.51,0,.75,0H76.83c.48,0,.81,0,.89.61.94,7-.43,13.49-5.13,19.11-3.93,4.69-9.21,7.23-15.44,8A26.69,26.69,0,0,1,41,71.21c-7.51-3.87-12.17-9.77-13.66-17.76-2.45-13.1,7.34-26,21.33-28.1,7.85-1.16,14.93.53,21,5.56Z"/></g></svg>