<svg id="Capa_1" data-name="Capa 1" xmlns="http://www.w3.org/2000/svg" viewBox="0 0 100 100"><defs><style>.cls-1{fill:#dae2eb;}</style></defs><path class="cls-1" d="M51.87,75H42.11c-9.58,0-15.82-5.94-16-15.44-.15-7.11-.11-14.22,0-21.33.09-7.53,5.76-14.42,14-14.67,9-.28,18-1.13,27,.19,7,1,11.79,6.72,11.91,13.91.14,7.58.16,15.17,0,22.76C78.72,68.67,72.26,74.83,63.81,75,59.84,75,55.85,75,51.87,75Zm.3-5c4,0,8,.08,11.94,0,6-.16,9.65-3.72,9.74-9.65.1-7.58.11-15.17,0-22.75-.09-5.9-3.77-9.49-9.8-9.57q-11.57-.16-23.15,0c-6,.09-9.65,3.71-9.74,9.64Q31,49,31.15,60.41c.1,5.91,3.77,9.43,9.81,9.58C44.69,70.08,48.43,70,52.17,70Z"/><path class="cls-1" d="M65.91,49.22c.75,6.69-6.27,13.44-13.46,13.05-7.86-.42-13.4-5.68-13.36-13.6,0-7.43,5.84-12.88,13.71-12.85C60.4,35.85,65.93,41.5,65.91,49.22ZM52.56,40.81c-4.62,0-9.11,4-9.11,8.21s4.65,8.88,8.72,8.87c5,0,9.37-4.15,9.36-8.91S57.69,40.82,52.56,40.81Z"/><path class="cls-1" d="M63.73,35.19c-.16-2,.78-2.94,2.92-3s3.26,1.11,3.28,2.91a3.16,3.16,0,0,1-3.17,3.22A2.73,2.73,0,0,1,63.73,35.19Z"/></svg>