<svg id="Capa_1" data-name="Capa 1" xmlns="http://www.w3.org/2000/svg" viewBox="0 0 100 100"><defs><style>.cls-1{fill:#febc86;}.cls-2{fill:#0693fb;}.cls-3{fill:#fdd302;}.cls-4{fill:#0182fb;}.cls-5{fill:#f6c503;}.cls-6{fill:#fefefe;}.cls-7{fill:#fdd1a3;}.cls-8{fill:#f5a96d;}.cls-9{fill:#c3e1fe;}.cls-10{fill:#0272fa;}.cls-11{fill:#cac3cb;}.cls-12{fill:#e1dde1;}.cls-13{fill:#fd656e;}.cls-14{fill:#fc4755;}.cls-15{fill:#ca705a;}</style></defs><path class="cls-1" d="M86.32,64.43c2.69,0,2.35.09,2.35,2.47,0,6.47,0,12.94,0,19.41a1.41,1.41,0,0,1-.49,1.31H66.39c0-2.66,0-5.32,0-8,0-.72-.27-1-1-1s-1.18,0-1.78,0c0-4.09,0-8.17,0-12.25a4,4,0,0,1,.32-1.88l6.26,0c0,1.75,0,3.51,0,5.26,0,.58.25.78.8.77.87,0,1.75,0,2.63,0,1.18,0,2.37,0,3.55,0,.65,0,1-.22,1-.9,0-1.7,0-3.4,0-5.1.31,0,.62-.06.93-.06Z"/><path class="cls-2" d="M54.26,56.21h7.61c0,2.74,0,5.48,0,8.21l-.77,0c-1.53,0-1.66.14-1.66,1.7l-.06,5.34H52.82l-.29,0c-2.13,0-4.27-.11-6.41,0h-4c-1,0-2,0-3,0-1.27,0-1.47.2-1.47,1.49q0,7.35,0,14.69h-5.3V56.23l2.47,0c0,2.85,0,5.69.05,8.53,0,.54-.1,1.12.52,1.43s1-.25,1.42-.53c.6-.38,1-1,1.75-1.23a9.17,9.17,0,0,0,12.16,0,10.08,10.08,0,0,1,1.86,1.38c.38.28.74.61,1.25.37s.46-.75.47-1.21Q54.24,60.55,54.26,56.21Z"/><path class="cls-3" d="M52.82,71.49h6.57c0,.39,0,.77,0,1.16,0,2-.08,4,.06,6,0,2.93,0,5.86,0,8.79l0,.17H41.79c0-4.89,0-9.79,0-14.68a2.59,2.59,0,0,1,.32-1.47h4a.11.11,0,0,0,0,.12c0,1.62,0,3.25,0,4.87,0,.43.12.61.57.58.69,0,1.39,0,2.09,0,1.13,0,2.27,0,3.4,0,.54,0,.65-.2.64-.68C52.81,74.74,52.83,73.12,52.82,71.49Z"/><path class="cls-4" d="M32.29,56.23V87.62H26.84l-.11-.16-.06-8.41c0-4.38,0-8.77,0-13.15,0-2.93,0-5.87,0-8.8l0-.89C28.58,56.17,30.44,56.13,32.29,56.23Z"/><path class="cls-5" d="M42.1,71.47a2.59,2.59,0,0,0-.32,1.47c0,4.89,0,9.79,0,14.68h-4.2q0-7.35,0-14.69c0-1.29.2-1.5,1.47-1.49C40.09,71.44,41.1,71.46,42.1,71.47Z"/><path class="cls-6" d="M59.42,87.45c0-2.93,0-5.86,0-8.79l4.12-.06c.6,0,1.19,0,1.78,0s1,.31,1,1c0,2.66,0,5.32,0,8H59.54Z"/><path class="cls-7" d="M26.67,79.05l.06,8.41,0,.16h-2.8A2.91,2.91,0,0,1,22,84.45c.08-1.8,0-3.6,0-5.41Z"/><path class="cls-1" d="M22,79c0,1.81.06,3.61,0,5.41a2.91,2.91,0,0,0,1.89,3.17H19.68a2.82,2.82,0,0,1-1.75-3c.09-1.88,0-3.77.05-5.66h4A.69.69,0,0,1,22,79Z"/><path class="cls-2" d="M26.69,87.62l0-.16.11.16Z"/><path class="cls-8" d="M59.42,87.45l.12.17h-.15Z"/><path class="cls-9" d="M61.88,64.41c0-2.73,0-5.47,0-8.21V47.59c0-1,.26-1.23,1.24-1.23l7.06,0c0,1.73,0,3.46,0,5.19,0,.6.28.84.85.83l2.71,0c1.17,0,2.33,0,3.5,0,.53,0,.83-.2.83-.77,0-1.73,0-3.47,0-5.2,2.44,0,4.87-.05,7.31-.05.73,0,1,.4,1,1.26v16.8l-7.36,0c-.31,0-.62,0-.93.06l-.28-.05c-1.46-.06-2.91-.07-4.37,0a26.63,26.63,0,0,0-3.22,0l-6.26,0Z"/><path class="cls-7" d="M56.74,42.62a10.32,10.32,0,0,1-6.2,9.05c-.33.13-.65.29-1,.44s-.34,0-.44.16a8.61,8.61,0,0,1-6.3-1.2,10,10,0,0,1-5.06-8.22c-.13-1.65,0-3.31,0-5,0-3.34,0-7.34,0-8.77a20.11,20.11,0,0,1,10.08-.9,19.46,19.46,0,0,1,8.92,3.7Z"/><path class="cls-2" d="M47.08,8.09A16.82,16.82,0,0,1,61.1,22a52,52,0,0,1,.17,7.69c-.27-.19-.56-.37-.82-.58a24.07,24.07,0,0,0-7-4,25.16,25.16,0,0,0-19.09.56,20,20,0,0,1,.22-4,16.94,16.94,0,0,1,11.68-13C46.54,8.53,47,8.55,47.08,8.09Zm-.77,10.68a4.91,4.91,0,0,0,2.15-1.16,2.12,2.12,0,0,0,0-3.22,4.23,4.23,0,0,0-2.31-1.17,6.23,6.23,0,0,0-4.78.58c-2,1.18-2,3.22,0,4.39A6.48,6.48,0,0,0,46.31,18.77Z"/><path class="cls-10" d="M34.32,25.65a25.16,25.16,0,0,1,19.09-.56,24.07,24.07,0,0,1,7,4c.26.21.55.39.82.58s.55.6.84.89c1.4,1.36,1.32,2.75-.25,3.92A2.52,2.52,0,0,1,59,33.76a11.86,11.86,0,0,0-2.26-1.85,19.46,19.46,0,0,0-8.92-3.7,20.11,20.11,0,0,0-10.08.9A18.08,18.08,0,0,0,32.27,32a11.27,11.27,0,0,0-2.19,1.82,2.5,2.5,0,0,1-2.86.72C25.66,33.32,25.58,32,27,30.6a3.28,3.28,0,0,0,.84-.9.83.83,0,0,0,.29-.1A24.45,24.45,0,0,1,34.32,25.65Z"/><path class="cls-1" d="M32.27,32a18.08,18.08,0,0,1,5.47-2.85c.32,1.37,0,5.74,0,8.77,0,1.66-.11,3.32,0,5a10,10,0,0,0,5.06,8.22,8.61,8.61,0,0,0,6.3,1.2,21.72,21.72,0,0,0,0,3c.23,1.63-.74,2.46-1.88,3.25-.53-.48-1-1-1.59-1.43-1.09-.86-2-1.79-1.71-3.35a5.45,5.45,0,0,0,0-.7c0-.31-.1-.5-.44-.47a20.67,20.67,0,0,1-3.6-.31c-.11-.18-.29-.16-.46-.17a12.37,12.37,0,0,1-4.22-2.68,10.41,10.41,0,0,1-3-6.82Z"/><path class="cls-4" d="M34.32,25.65a24.45,24.45,0,0,0-6.23,4,.83.83,0,0,1-.29.1c0-3.07-.29-6.16.45-9.2A16.79,16.79,0,0,1,47.08,8.09c-.1.46-.54.44-.86.53a16.94,16.94,0,0,0-11.68,13A20,20,0,0,0,34.32,25.65Z"/><path class="cls-11" d="M22,78.91H18c0-5.11-.16-10.22,0-15.32.13-3.24,2.13-5.47,5.08-6.78a7,7,0,0,1,3.62-.61c0,.29,0,.59,0,.89a7.76,7.76,0,0,0-4.62,7.13C21.93,69.12,22,74,22,78.91Z"/><path class="cls-12" d="M47.27,58.54c1.14-.79,2.11-1.62,1.88-3.25a21.72,21.72,0,0,1,0-3c.1-.17.27-.15.44-.16l3.16,2a3,3,0,0,1,1.53,2.13q0,4.34,0,8.69c0,.46.06,1-.47,1.21s-.87-.09-1.25-.37a10.08,10.08,0,0,0-1.86-1.38,51.67,51.67,0,0,0-5.16-4.17Z"/><path class="cls-11" d="M39.47,52.11c.17,0,.35,0,.46.17,0,.73,0,1.46,0,2.19a2,2,0,0,0-.9,1.8c0,2.46,0,4.92,0,7.39,0,.33-.51.38-.51.74-.73.21-1.15.85-1.75,1.23-.44.28-.77.85-1.42.53s-.52-.89-.52-1.43c0-2.84,0-5.68-.05-8.53.39-1.86,2.12-2.33,3.4-3.26C38.58,52.63,39,52.39,39.47,52.11Z"/><path class="cls-1" d="M56.74,31.91A11.86,11.86,0,0,1,59,33.76a2.52,2.52,0,0,0,2.86.75A12.73,12.73,0,0,1,62,38.45a4.62,4.62,0,0,1-4.55,4.16h-.7Z"/><path class="cls-8" d="M32.27,32l0,10.65c-3.08,0-4.86-1.51-5.21-4.4a11.29,11.29,0,0,1,.13-3.71,2.5,2.5,0,0,0,2.86-.72A11.27,11.27,0,0,1,32.27,32Z"/><path class="cls-13" d="M78,46.42c0,1.73,0,3.47,0,5.2,0,.57-.3.77-.83.77-1.17,0-2.33,0-3.5,0a7.14,7.14,0,0,1-.14-1.9c0-1.36,0-2.72,0-4.08Z"/><path class="cls-14" d="M73.55,46.4c0,1.36,0,2.72,0,4.08a7.14,7.14,0,0,0,.14,1.9l-2.71,0c-.57,0-.85-.23-.85-.83,0-1.73,0-3.46,0-5.19Z"/><path class="cls-8" d="M61.88,64.41l2,.06a4,4,0,0,0-.32,1.88c0,4.08,0,8.16,0,12.25l-4.12.06c-.14-2,0-4-.06-6,0-.39,0-.77,0-1.16l.06-5.34c0-1.56.13-1.7,1.66-1.7Z"/><path class="cls-13" d="M77.75,64.46l.28.05c0,1.7,0,3.4,0,5.1,0,.68-.3.91-1,.9-1.18,0-2.37,0-3.55,0a1.46,1.46,0,0,1-.32-1c0-1.39,0-2.79,0-4.19,0-.25-.08-.52.14-.73A39.67,39.67,0,0,0,77.75,64.46Z"/><path class="cls-14" d="M73.39,64.57c-.22.21-.14.48-.14.73,0,1.4,0,2.8,0,4.19a1.46,1.46,0,0,0,.32,1c-.88,0-1.76,0-2.63,0-.55,0-.81-.19-.8-.77,0-1.75,0-3.51,0-5.26a26.63,26.63,0,0,1,3.22,0S73.39,64.53,73.39,64.57Z"/><path class="cls-6" d="M38.5,64.4c0-.36.47-.41.51-.74a11.78,11.78,0,0,0,1.9-1.4,21,21,0,0,1,2.74-2c.63.75,1.24.59,1.85,0a51.67,51.67,0,0,1,5.16,4.17A9.17,9.17,0,0,1,38.5,64.4Z"/><path class="cls-13" d="M52.82,71.49c0,1.63,0,3.25,0,4.88,0,.48-.1.7-.64.68-1.13,0-2.27,0-3.4,0,0-1.81,0-3.63,0-5.44a24.57,24.57,0,0,0,3.74-.12Z"/><path class="cls-15" d="M52.53,71.46a24.57,24.57,0,0,1-3.74.12l-2.63,0a.11.11,0,0,1,0-.12C48.26,71.35,50.4,71.43,52.53,71.46Z"/><path class="cls-14" d="M46.16,71.6l2.63,0c0,1.81,0,3.63,0,5.44-.7,0-1.4,0-2.09,0-.45,0-.57-.15-.57-.58C46.16,74.85,46.15,73.22,46.16,71.6Z"/><path class="cls-12" d="M22,78.91c0-4.89-.07-9.79.05-14.68a7.76,7.76,0,0,1,4.62-7.13c0,2.93,0,5.87,0,8.8,0,4.38,0,8.77,0,13.15H22A.69.69,0,0,0,22,78.91Z"/><path class="cls-1" d="M73.39,64.57s0-.07,0-.11c1.46-.07,2.91-.06,4.37,0A39.67,39.67,0,0,1,73.39,64.57Z"/><path class="cls-5" d="M46.31,18.77a6.48,6.48,0,0,1-5-.58c-2-1.17-2-3.21,0-4.39a6.23,6.23,0,0,1,4.78-.58c-.1.45-.57.49-.86.7-1.77,1.23-1.78,2.91,0,4.14C45.6,18.31,46.11,18.31,46.31,18.77Z"/><path class="cls-3" d="M46.31,18.77c-.2-.46-.71-.46-1.05-.71-1.75-1.23-1.74-2.91,0-4.14.29-.21.76-.25.86-.7a4.23,4.23,0,0,1,2.31,1.17,2.12,2.12,0,0,1,0,3.22A4.91,4.91,0,0,1,46.31,18.77Z"/><path class="cls-8" d="M45.5,60.19c-.61.61-1.22.77-1.85,0a16.71,16.71,0,0,0-1.76-1.51,4,4,0,0,1-2-4.23c0-.73,0-1.46,0-2.19a20.67,20.67,0,0,0,3.6.31c.34,0,.45.16.44.47a5.45,5.45,0,0,1,0,.7c-.3,1.56.62,2.49,1.71,3.35.56.44,1.06,1,1.59,1.43Z"/><path class="cls-12" d="M39.89,54.47a4,4,0,0,0,2,4.23,16.71,16.71,0,0,1,1.76,1.51,21,21,0,0,0-2.74,2,11.78,11.78,0,0,1-1.9,1.4c0-2.47,0-4.93,0-7.39A2,2,0,0,1,39.89,54.47Z"/><path d="M19.9,88.41a3.82,3.82,0,0,1-2.75-2.7A5.14,5.14,0,0,1,17,84.53q0-10.05,0-20.11a9.42,9.42,0,0,1,9.53-9.53c2.26,0,4.51,0,6.76,0a1.1,1.1,0,0,0,1.09-.56,5.94,5.94,0,0,1,1.3-1.25,15.51,15.51,0,0,1,1.4-.9l-.76-.53a11.18,11.18,0,0,1-4.82-7.29.74.74,0,0,0-.67-.7,5.75,5.75,0,0,1-4.76-5.89c0-.4,0-.8,0-1.2a3.45,3.45,0,0,0-.58-2.36,3.1,3.1,0,0,1,.59-4.11,2,2,0,0,0,.68-1.66,30.84,30.84,0,0,1,.57-8.13,17.82,17.82,0,0,1,34.81,1.46,68.38,68.38,0,0,1,.31,6.89A2.06,2.06,0,0,0,63,29.9a3.47,3.47,0,0,1,.38,4.92,1.31,1.31,0,0,0-.2.72c0,.82,0,1.65,0,2.47a5.78,5.78,0,0,1-4.6,5.63l-.71.16a11.66,11.66,0,0,1-5.72,8.38c.51.32.94.56,1.34.85s.94.57,1.12,1c.42.94,1.15.91,2,.89,1.32,0,2.65,0,4.1,0V47.51A2.07,2.07,0,0,1,63,45.18H84.89a2.06,2.06,0,0,1,2.34,2.33v5.73c0,1-.4,1.47-1.16,1.49s-1.22-.51-1.23-1.51v-5.6H79c0,1.19,0,2.38,0,3.56,0,1.77-.5,2.26-2.26,2.26-2,0-4,0-6,0A1.65,1.65,0,0,1,68.9,51.6c0-1.32,0-2.64,0-4H63.11V63.07H84.84c0-1.25,0-2.48,0-3.71a1.25,1.25,0,0,1,.75-1.29,1.17,1.17,0,0,1,1.63,1.15c0,1.27,0,2.53,0,3.82l.36.07a2,2,0,0,1,2,2.16c0,7,0,14,0,21a2.32,2.32,0,0,1-1.45,2.15H47.44c-.49-.43-.95-.87-.66-1.61s.91-.78,1.58-.78H58.2V72.49H54c0,1.37,0,2.67,0,4,0,1.09-.4,1.48-1.49,1.48H46.62c-1.2,0-1.57-.37-1.58-1.55V72.49H39V86c1,0,1.88,0,2.8,0,.69,0,1.3.09,1.56.82s-.18,1.19-.74,1.57ZM67.45,86H87.17V65.54H79c0,1.32,0,2.62,0,3.91s-.58,2-2,2c-2,0-4,0-6,0-1.56,0-2.1-.56-2.11-2.11V65.54h-8.2v11.6H65c1.94,0,2.44.51,2.44,2.45ZM29.2,27.39c.26-.15.44-.24.61-.35a26.09,26.09,0,0,1,17.51-4.42,35.53,35.53,0,0,1,3.82.68,1.09,1.09,0,0,1,.94,1.2,1,1,0,0,1-.87,1.08,2.49,2.49,0,0,1-1-.08,23.82,23.82,0,0,0-21.91,5.79c-.24.22-.58.42-.65.69a1.81,1.81,0,0,0,.07,1.22.83.83,0,0,0,1.26.18,5.25,5.25,0,0,0,.71-.63,21.61,21.61,0,0,1,18.43-5.59,21.3,21.3,0,0,1,11.81,5.92c.6.57,1.15.63,1.6.19s.42-1.11-.22-1.65q-1.89-1.57-3.87-3c-.59-.44-1.29-.73-1.91-1.14a1.17,1.17,0,0,1,.84-2.14,2.45,2.45,0,0,1,.8.34c.94.55,1.88,1.12,2.85,1.7,1-9.56-5.73-17.66-14.82-18C37.28,9.11,28.23,15.34,29.2,27.39Zm4.51,10.66h0c0,1.53,0,3.07,0,4.6a8.62,8.62,0,0,0,6.66,8.2,31.54,31.54,0,0,0,6.16.35,8.94,8.94,0,0,0,9-9c0-3,0-6,0-9a1,1,0,0,0-.56-1q-10.36-6-20.73,0a1.08,1.08,0,0,0-.58,1.09C33.73,34.87,33.71,36.46,33.71,38.05ZM28.23,57.32V86h8.38V72.62c0-1.92.66-2.58,2.58-2.58H58.26V65.91c0-2,.36-2.49,2.34-2.89V57.33H55.41v.9c0,2.28,0,4.55,0,6.83A2,2,0,0,1,54.29,67a2,2,0,0,1-2.23-.32l-1.29-1a10.4,10.4,0,0,1-12.29,0c-.37.3-.69.53-1,.79a2.09,2.09,0,0,1-3.67-1.71c0-2.18,0-4.35,0-6.52,0-.29,0-.57,0-.89ZM25.74,77.43V57.35a8.42,8.42,0,0,0-1,.15,6.93,6.93,0,0,0-5.35,6.74c0,4.24,0,8.47,0,12.7,0,.15,0,.31,0,.49Zm0,2.48H19.42c0,1.68,0,3.29,0,4.9A1.15,1.15,0,0,0,20.71,86c1.11,0,2.22,0,3.33,0h1.71ZM50.58,54l-.26,0c.73,2.81-.75,4.49-2.94,5.86L53,64.38c0-2.88,0-5.54,0-8.21a1.13,1.13,0,0,0-.4-.81C52,54.87,51.26,54.47,50.58,54ZM39,53.85c-.77.47-1.24.8-1.75,1.06a1.84,1.84,0,0,0-1,1.86c0,2.17,0,4.34,0,6.52V64.4l5.66-4.54C39.65,58.5,38.21,56.8,39,53.85ZM60.68,86H65V79.58H60.68ZM41.23,53.6c0,.8,0,1.54,0,2.27a.94.94,0,0,0,.26.62c1,.91,2.07,1.79,3.12,2.69,1.05-.89,2.07-1.74,3.06-2.61A1,1,0,0,0,48,56c0-.79,0-1.57,0-2.39Zm4.39,7.92a1.48,1.48,0,0,1-2,0l-3.1,2.51c2.37,1.64,6.43,1.6,8.22,0ZM71.32,51h5.23v-3.4H71.32Zm0,18h5.23V65.54H71.32Zm-40-34.4a10.79,10.79,0,0,1-1.27.9,10.64,10.64,0,0,1-1.47.51c-.42,3.44.82,4.94,2.74,5.19ZM58,34.79v6.5c2.26-.53,3.21-2.42,2.73-5.09ZM47.46,75.49h4.12v-3H47.46Z"/><path d="M82.5,81.8c-.71,0-1.43,0-2.14,0a1.18,1.18,0,1,1,0-2.35q2.17-.06,4.35,0a1.13,1.13,0,0,1,1.15,1.24,1.15,1.15,0,0,1-1.19,1.12H82.5Z"/><path d="M82.7,85.16c-.69,0-1.59,0-2.28,0a1.18,1.18,0,1,1,0-2.36c1.4,0,2.81,0,4.21,0a1.18,1.18,0,1,1,0,2.36C83.93,85.18,83.42,85.16,82.7,85.16Z"/><path d="M44.63,12.08a6.86,6.86,0,0,1,4.23,1.28,3.38,3.38,0,0,1,0,5.7,7.63,7.63,0,0,1-8.51,0,3.39,3.39,0,0,1,0-5.75A6.88,6.88,0,0,1,44.63,12.08Zm2.58,3.11a5.83,5.83,0,0,0-5.15,0l-.26.13c-.83.47-.78,1.21-.06,1.81a5.3,5.3,0,0,0,5.76,0c.73-.6.79-1.34,0-1.8Z"/><path d="M44.72,48.1a6.4,6.4,0,0,1-4.45-1.7A1.23,1.23,0,0,1,40,44.58a1.22,1.22,0,0,1,1.77,0,4,4,0,0,0,5.62,0A1.2,1.2,0,1,1,49,46.38,6.17,6.17,0,0,1,44.72,48.1Z"/><path d="M43.69,39c.59.44,1.11.81,1.59,1.21a1.16,1.16,0,0,1,.3,1.68,1.18,1.18,0,0,1-1.75.2c-.58-.41-1.17-.84-1.71-1.29a2.19,2.19,0,0,1-.45-3.06c.61-.9,1.28-1.76,1.94-2.62a1.2,1.2,0,0,1,1.74-.3,1.14,1.14,0,0,1,.18,1.69C45,37.36,44.34,38.16,43.69,39Z"/><path d="M37.11,35.64a7.87,7.87,0,0,1,0-1.19,1.11,1.11,0,0,1,1.19-1,1.09,1.09,0,0,1,1.15,1.08,18.74,18.74,0,0,1,0,2.37A1.12,1.12,0,0,1,38.31,38a1.17,1.17,0,0,1-1.2-1.13,11.81,11.81,0,0,1,0-1.19Z"/><path d="M52.19,35.69A10.53,10.53,0,0,1,52.12,37a1.1,1.1,0,0,1-1.23,1,1.08,1.08,0,0,1-1.09-1.13c0-.76,0-1.53,0-2.29a1.08,1.08,0,0,1,1.11-1.11,1.1,1.1,0,0,1,1.21,1,7.57,7.57,0,0,1,0,1.26Z"/></svg>