<svg id="Capa_1" data-name="Capa 1" xmlns="http://www.w3.org/2000/svg" viewBox="0 0 100 100"><defs><style>.cls-1{fill:#fc646f;}.cls-2{fill:#fb4755;}.cls-3{fill:#50758c;}.cls-4{fill:#e8e8e8;}.cls-5{fill:#fec581;}.cls-6{fill:#fac591;}.cls-7{fill:#feab5c;}.cls-8{fill:#f5c798;}.cls-9{fill:#f4f4f4;}.cls-10{fill:#ececec;}.cls-11{fill:#ebebeb;}.cls-12{fill:#92dcb6;}.cls-13{fill:#2b597f;}.cls-14{fill:#fab978;}.cls-15{fill:#f4c799;}.cls-16{fill:#f3f3f3;}.cls-17{fill:#f3f3f4;}</style></defs><path class="cls-1" d="M17.71,44.23c.85-1.59,1.68-3.18,2.53-4.76l3-5.55a1.1,1.1,0,0,1,.8-.18c2.78,0,5.55,0,8.33,0a1.5,1.5,0,0,1,.69.11c.33.25.19.59.14.89-.38,2.52-.74,5-1.11,7.57-.05.36-.06.72-.12,1.08a4.49,4.49,0,0,0-.09,1.21c0,.28,0,.57-.22.78a1.83,1.83,0,0,1-.95.14H18.88a1.3,1.3,0,0,1-1.05-.26Z"/><path class="cls-2" d="M18.2,45.32H31.51l.36.32h0a4.58,4.58,0,0,1-.1.63v0a6.54,6.54,0,0,1-3.63,4.61,8.53,8.53,0,0,1-4.32.64.9.9,0,0,1-.52-.22.37.37,0,0,0-.14-.07,6.4,6.4,0,0,1-5.15-5,.34.34,0,0,0-.06-.12.28.28,0,0,1-.06-.18v-.37A.3.3,0,0,1,18.2,45.32Z"/><path class="cls-3" d="M33.16,34l-9.88,0a69.11,69.11,0,0,1,.09-7.48,5.25,5.25,0,0,1,5-4.51H73.67a5.38,5.38,0,0,1,5.55,4,4.93,4.93,0,0,1,.18,1.14c0,2.29,0,4.57,0,6.85a.83.83,0,0,1-.72.22c-3,0-6,0-9,0-3.87,0-7.75,0-11.62,0q-6.54,0-13.07,0c-3.68,0-7.36,0-11,0A1.11,1.11,0,0,1,33.16,34Z"/><path class="cls-1" d="M69.64,34l9.75,0c1.62,3,3.25,5.93,4.87,8.91a4.3,4.3,0,0,1,.5,2.49,1.11,1.11,0,0,1-.86.2H71.83A1.81,1.81,0,0,1,71,45.4a.73.73,0,0,1-.25-.63c-.19-3.19-.79-6.34-1.14-9.51C69.57,34.83,69.33,34.38,69.64,34Z"/><path class="cls-4" d="M79.42,53.71a15.71,15.71,0,0,1-3.63-.13A6.44,6.44,0,0,1,71.11,49a2.12,2.12,0,0,1,0-.44,1.11,1.11,0,0,1-.14-.29,1.92,1.92,0,0,0-.08-.3c0-.07-.12,0,0,0s0,0,0,0,.09.29,0,.41a6.26,6.26,0,0,1-5.46,5.28A6.56,6.56,0,0,1,58,48.38l-.51,1.37a6.64,6.64,0,0,1-6.2,4,6.47,6.47,0,0,1-5.45-3.11,4.39,4.39,0,0,1-.77-2.36c-.09,0,0-.25-.14-.08s-.06.15-.12.21a6.66,6.66,0,0,1-11.3,3.34,5.25,5.25,0,0,1-1.63-3.47c-.08-.16-.11-.17-.15-.09a.76.76,0,0,1-.11.22,6.51,6.51,0,0,1-2,3.62,2.76,2.76,0,0,1-1.45-1.3,6.58,6.58,0,0,0,3.43-4.52c.07-.13.15-.24.31-.09A7.5,7.5,0,0,0,34,49.58a6.5,6.5,0,0,0,10.6-3.07c.07-.25.09-.57.49-.57a1.08,1.08,0,0,1,.2.54,6.42,6.42,0,0,0,9.45,3.86A6.14,6.14,0,0,0,57.51,47a2.79,2.79,0,0,1,.34-.9.28.28,0,0,1,.28,0,2,2,0,0,1,.33.83,6.33,6.33,0,0,0,12,0,2.86,2.86,0,0,1,.32-.84c.16-.06.26,0,.36.13a13.06,13.06,0,0,0,.8,1.89,6.43,6.43,0,0,0,5.51,3.13,6.57,6.57,0,0,1,2,.06Z"/><path class="cls-4" d="M28.2,50.74,29.65,52a5.42,5.42,0,0,1-2.94,1.54c-.55.12-.74.34-.74.94,0,7.6.06,15.21,0,22.81a5.48,5.48,0,0,0,4.24,5.46c.13,0,.27,0,.35.14a15.15,15.15,0,0,1-2.86-.08,5.49,5.49,0,0,1-4.45-4.58,2.28,2.28,0,0,0,0-1.16V51.29A9.24,9.24,0,0,0,28.2,50.74Z"/><path class="cls-2" d="M79.43,51.29c-2.35.29-4.58.08-6.43-1.61a6.17,6.17,0,0,1-2-3.46c-.08-.19-.27-.34-.24-.58a.48.48,0,0,1,.07-.26l.08-.06H84.76a6.37,6.37,0,0,1-4.63,5.8C79.9,51.19,79.66,51.23,79.43,51.29Z"/><path class="cls-4" d="M23.25,77.11a1.2,1.2,0,0,1,0,1.16Z"/><path class="cls-5" d="M33.16,34H45a1.19,1.19,0,0,1,.19.86c0,3.22,0,6.43,0,9.65a1.29,1.29,0,0,1-.18.86,1.23,1.23,0,0,1-.87.2H32.7a1.27,1.27,0,0,1-.81-.16,5.84,5.84,0,0,1,0-2,41.57,41.57,0,0,1,.56-4.43C32.61,37.27,32.91,35.61,33.16,34Z"/><path class="cls-6" d="M31.86,43.36v2s-.08,0-.12,0h0A6.8,6.8,0,0,1,31.86,43.36Z"/><path class="cls-7" d="M31.75,45.31H44.92l.07,0c.08.2.23.39,0,.6s-.19.31-.24.5A6.67,6.67,0,0,1,32,46.61a4.54,4.54,0,0,1-.09-.51c-.14-.15,0-.36-.11-.52Z"/><path class="cls-8" d="M31.75,45.58c.17.15.11.34.11.52l-.23.12Z"/><path class="cls-9" d="M79.42,53.71a4.82,4.82,0,0,0-2.23-.15,5.88,5.88,0,0,1-3.56-1.2,6.68,6.68,0,0,1-2.49-3.81.29.29,0,0,0-.36-.14,1.75,1.75,0,0,0-.31.76,6,6,0,0,1-5,4.32,6.14,6.14,0,0,1-6.25-2.61,6,6,0,0,1-1-2.18c0-.14-.08-.31-.27-.32s-.25.13-.32.27a1.54,1.54,0,0,0-.11.3,6.08,6.08,0,0,1-1.81,2.93,6.22,6.22,0,0,1-6,1.49A6,6,0,0,1,45.33,49a2,2,0,0,0-.24-.73c-.16-.06-.26,0-.36.12a8,8,0,0,1-2,3.53,6.59,6.59,0,0,1-9.37-.63,8.56,8.56,0,0,1-1.41-3c-.16-.08-.26,0-.36.11a7.78,7.78,0,0,1-2.15,3.65,6.47,6.47,0,0,1-2.52,1.31c-1.07.29-1.08.31-1.08,1.42V77.55a4.52,4.52,0,0,0,.11,1.16,5.22,5.22,0,0,0,4.66,4.22h43A8.32,8.32,0,0,0,75,82.81a5.41,5.41,0,0,0,4.4-5.13Q79.44,65.69,79.42,53.71Z"/><path class="cls-10" d="M70.81,48.42v-.55a.9.9,0,0,1,.26.68Z"/><path class="cls-10" d="M31.61,48.42c0-.16-.05-.39.19-.41.09,0,.06.18.07.28Z"/><path class="cls-11" d="M44.8,48.42c0-.16,0-.39.19-.41s.06.18.07.28Z"/><path class="cls-1" d="M44.92,45.32q0-5.07,0-10.14c0-.41,0-.82,0-1.23H58a1.09,1.09,0,0,1,.22.85q0,4.83,0,9.66a1.3,1.3,0,0,1-.18.86,1.18,1.18,0,0,1-.81.2H45.76a1,1,0,0,1-.8-.2Z"/><path class="cls-5" d="M58,45.32V34H69.64c.26,2.07.52,4.15.8,6.22A35.51,35.51,0,0,1,71,45.32h0a1.14,1.14,0,0,1-.86.21H58.85a1.7,1.7,0,0,1-.77-.11Z"/><path class="cls-9" d="M53,27.33a3.2,3.2,0,0,1,3.31-1.92c5.31,0,10.62,0,15.93,0a2.77,2.77,0,0,1,1.79,5.09,2.46,2.46,0,0,1-2,.64c-2,0-4,0-6,0H56.47A5.9,5.9,0,0,1,55.08,31a3.07,3.07,0,0,1-2.35-2.67A1.18,1.18,0,0,1,53,27.33Z"/><path class="cls-5" d="M34.51,27.24a2.8,2.8,0,0,1,4.6-.91,2.65,2.65,0,0,1,0,3.82l-.33.33a2.54,2.54,0,0,1-3.07.26,2.85,2.85,0,0,1-1.46-2.9A.85.85,0,0,1,34.51,27.24Z"/><path class="cls-12" d="M42.73,27.09c.18-.24.34-.5.54-.72a2.53,2.53,0,0,1,3.82.23,2.76,2.76,0,0,1-.51,3.84,1.19,1.19,0,0,0-.2.19,1.65,1.65,0,0,1-1.58.48,2.81,2.81,0,0,1-2.44-2.91A2,2,0,0,1,42.73,27.09Z"/><path class="cls-1" d="M26.84,26.77c1-1.41,2.13-1.91,3.46-1.46a2.67,2.67,0,0,1,1.89,2.14,2.77,2.77,0,0,1-1,2.8,2.18,2.18,0,0,0-.22.21,2.77,2.77,0,0,1-4.07-.81A2.4,2.4,0,0,1,26.84,26.77Z"/><path class="cls-13" d="M53.2,27a3.71,3.71,0,0,0,0,1.9,2.87,2.87,0,0,0,2.82,2H72.45a3.4,3.4,0,0,0,1.68-.47,2.53,2.53,0,0,1-2.23,1.41c-5.57,0-11.14,0-16.71,0a2.69,2.69,0,0,1-2.58-1.72,3,3,0,0,1,.22-2.92C52.9,27.1,52.93,26.78,53.2,27Z"/><path class="cls-13" d="M26.83,26.84a2.74,2.74,0,0,0,1.84,3.82,3.41,3.41,0,0,0,2.41-.3,2.64,2.64,0,0,1-2.34,1.29,2.88,2.88,0,0,1-2.94-2.9A2.37,2.37,0,0,1,26.83,26.84Z"/><path class="cls-13" d="M42.73,26.57c-.54,1.65-.14,2.87,1.16,3.61a3.18,3.18,0,0,0,3,.05c.16.13,0,.2-.07.28a3.08,3.08,0,0,1-4,.32A2.62,2.62,0,0,1,42,27.39,1.87,1.87,0,0,1,42.73,26.57Z"/><path class="cls-13" d="M34.81,26.84a2.74,2.74,0,0,0,.92,3.27,3,3,0,0,0,3.59.16A2.94,2.94,0,0,1,36,31.52a2.8,2.8,0,0,1-2.12-2.92A1.83,1.83,0,0,1,34.81,26.84Z"/><path class="cls-2" d="M45,45.32H58a.5.5,0,0,1,.11.26.65.65,0,0,1-.22.52A6.55,6.55,0,0,1,45,46Z"/><path class="cls-7" d="M58,45.57v-.26H70.92v.27c-.13.16,0,.37-.11.52a6.46,6.46,0,0,1-4.9,5.12,6.53,6.53,0,0,1-7.75-4.73,2.58,2.58,0,0,1,0-.39C58,46,58.15,45.73,58,45.57Z"/><path class="cls-14" d="M58,45.57c.18.15.11.35.11.53H57.9Z"/><path class="cls-15" d="M70.81,46.1c0-.18-.06-.37.11-.52l.12.64Z"/><path class="cls-9" d="M51.79,60.07h3c.33,0,.46.06.39.44-.14.8-.24,1.62-.31,2.43,0,.35-.12.48-.5.48-1.72,0-3.44,0-5.16,0-.26,0-.45,0-.49-.35-.08-.86-.17-1.72-.3-2.57-.06-.38.11-.43.43-.42Z"/><path class="cls-9" d="M51.86,65.39c.76,0,1.52,0,2.28,0,.3,0,.42.07.37.41-.12.85-.22,1.71-.3,2.56,0,.27-.14.37-.41.37-1.33,0-2.65,0-4,0a.36.36,0,0,1-.41-.38c-.1-.83-.19-1.66-.31-2.49-.05-.4.12-.48.47-.47C50.33,65.41,51.1,65.39,51.86,65.39Z"/><path class="cls-9" d="M44.3,63.41c-.65,0-1.3,0-1.95,0-.35,0-.49-.12-.55-.46-.15-.78-.33-1.55-.5-2.32-.09-.39,0-.59.45-.58,1.37,0,2.73,0,4.1,0,.39,0,.52.12.55.5.07.81.19,1.62.32,2.42.06.37-.07.45-.4.44C45.65,63.4,45,63.41,44.3,63.41Z"/><path class="cls-9" d="M59.8,60.07h2c.33,0,.48,0,.38.43-.2.85-.37,1.72-.53,2.59-.05.29-.2.32-.44.32-1.33,0-2.66,0-4,0-.34,0-.38-.12-.33-.42.13-.83.22-1.66.3-2.5,0-.33.17-.44.5-.43Z"/><path class="cls-9" d="M44.74,65.39c.63,0,1.26,0,1.89,0,.26,0,.39.07.42.35.1.88.22,1.75.35,2.62,0,.3-.08.37-.36.37-1.22,0-2.43,0-3.65,0-.21,0-.37,0-.42-.3-.17-.88-.35-1.77-.56-2.64-.08-.37.09-.4.37-.4C43.43,65.4,44.09,65.39,44.74,65.39Z"/><path class="cls-9" d="M58.35,68.73c-.59,0-1.18,0-1.76,0-.3,0-.42-.06-.37-.41.14-.82.24-1.65.33-2.48,0-.32.14-.45.47-.45,1.24,0,2.47,0,3.71,0,.36,0,.46.12.39.46-.18.84-.36,1.68-.51,2.52-.06.3-.23.36-.51.36C59.52,68.72,58.93,68.73,58.35,68.73Z"/><path class="cls-16" d="M57.33,75.28a1,1,0,0,1,1,1,1,1,0,1,1-1-1Z"/><path class="cls-17" d="M47.12,77.25a1,1,0,0,1-1-1,1,1,0,1,1,1,1Z"/><path d="M17.77,41.88a1,1,0,1,1,1.77.93c-1.83,3.82.86,7.8,5.18,7.68,2.93-.09,5-1.4,5.73-3.78a6.69,6.69,0,0,0,.25-1.18q.6-4.76,1.18-9.51c0-.3.07-.61.11-1-.24,0-.44,0-.63,0h-7a.8.8,0,0,0-.85.48c-.51,1-1.05,2-1.6,2.93a1.07,1.07,0,0,1-1.49.58,1,1,0,0,1-.29-1.51c.56-1,1.17-2.08,1.7-3.15A3.26,3.26,0,0,0,22.2,33c0-1.85,0-3.69,0-5.53A6.32,6.32,0,0,1,28.69,21C39.86,21,51,21,62.22,21c.82,0,1.26.34,1.27,1s-.44,1-1.34,1H29c-3,0-4.79,1.77-4.79,4.73V33H78.57c0-2.05.1-4.08,0-6.09A4.25,4.25,0,0,0,74.13,23c-2,0-4.1,0-6.15,0h-.61c-.74,0-1.16-.43-1.13-1s.42-.94,1.15-.94c2.32,0,4.64-.06,7,0a6.3,6.3,0,0,1,6.26,6.37c0,1.93,0,3.85,0,5.78a2.25,2.25,0,0,0,.28,1.07c1.36,2.53,2.66,5.1,4.16,7.54,2.23,3.66.24,8.46-3.61,10l-.84.33v.94q0,7.62,0,15.24a2.48,2.48,0,0,1,0,.67,1,1,0,0,1-2,0,2.9,2.9,0,0,1,0-.66V52.43a7.79,7.79,0,0,1-7.5-3.63,7.63,7.63,0,0,1-13,0,7.75,7.75,0,0,1-13.13,0,7.56,7.56,0,0,1-3.7,3.12c-.74.29-1.37,0-1.51-.62s.23-1,.81-1.26a5.25,5.25,0,0,0,3.17-3.5A4.49,4.49,0,0,0,44,45.22c0-3.28,0-6.57,0-9.85,0-.09,0-.17,0-.31-.2,0-.4-.05-.59-.05H34.71c-.41,0-.66,0-.73.53-.37,2.71-.78,5.4-1.14,8.11-.42,3.14.64,5.06,3.5,6.48A1,1,0,1,1,35.58,52a7.3,7.3,0,0,1-3.39-2.55c-.15-.19-.29-.39-.45-.61a7.81,7.81,0,0,1-7.5,3.63V77.31C24.24,80.22,26,82,29,82H73.81c3,0,4.77-1.77,4.78-4.74,0-1.2,0-2.39,0-3.59,0-.72.4-1.17,1-1.18a1,1,0,0,1,1,1.16,44.69,44.69,0,0,1-.15,5.18A6.18,6.18,0,0,1,74.72,84c-.29,0-.59,0-.88,0H29a6.36,6.36,0,0,1-6.52-4.74,8.24,8.24,0,0,1-.22-2q0-12.18,0-24.37v-.75a7.31,7.31,0,0,1-4.49-3.63l-.12-.24a7,7,0,0,1-.39-4.57A9.89,9.89,0,0,1,17.77,41.88ZM57.09,35H46c0,.2,0,.38,0,.55,0,3.13,0,6.26,0,9.39a5.54,5.54,0,0,0,11.08,0c0-1.66,0-3.33,0-5Zm13.84,0c.06.48.11.85.15,1.23.35,3.06.73,6.11,1,9.18a5.39,5.39,0,0,0,4,4.8,9.62,9.62,0,0,0,3.21.14c4-.5,5.65-4.9,4.06-7.43-1.48-2.35-2.72-4.85-4-7.3a1,1,0,0,0-1-.63c-.76,0-1.53,0-2.3,0ZM59.15,35c0,.17,0,.25,0,.34,0,3.26,0,6.52,0,9.78a5.42,5.42,0,0,0,6.29,5.23A5.3,5.3,0,0,0,70,45.12c-.09-2.25-.46-4.5-.72-6.74-.13-1.12-.3-2.22-.45-3.35Z"/><path d="M43.5,70.81a10.77,10.77,0,0,0,.39,1.52,1.77,1.77,0,0,0,1.87,1H57.18c1.08,0,2.17,0,3.25,0,.67,0,1.1.38,1.11.92a1,1,0,0,1-.91,1l-.28.08A3,3,0,0,1,59,78.92a2.89,2.89,0,0,1-3.2-.08,3,3,0,0,1-1.24-3.44H50.09a3.08,3.08,0,0,1-.93,3.19,3,3,0,0,1-2.37.72c-1.93-.21-2.93-1.83-2.5-4.14-1.85-.61-2.49-2.11-2.75-3.88-.06-.37-.16-.73-.24-1.1q-1.24-5.76-2.47-11.52a1.73,1.73,0,0,0-1.93-1.56c-.49,0-1,0-1.48,0a1,1,0,0,1-1-1,1,1,0,0,1,1.07-1c.61,0,1.22,0,1.82,0a3.58,3.58,0,0,1,3.34,2.48c.16.5.4.59.86.59h22.1a1,1,0,0,1,1,1.3q-1.05,5.21-2.14,10.42c-.14.7-.49.91-1.41.91H43.5Zm5.36-7.35h6l.42-3.24H48.45ZM46.4,60.23H41.24c.22,1,.42,2,.65,3a.49.49,0,0,0,.35.29c1.51,0,3,0,4.58,0Zm8.25,5.33H49.12l.42,3.2h4.7ZM57,63.5c1.52,0,3,0,4.43,0a.51.51,0,0,0,.38-.26c.22-1,.41-2,.62-3h-5Zm-14.58,2c.22,1,.42,2,.64,2.93,0,.13.2.33.31.33,1.36,0,2.73,0,4.16,0l-.43-3.28Zm13.9,3.28c1.41,0,2.75,0,4.09,0a.46.46,0,0,0,.32-.27c.21-1,.4-2,.61-3H56.7Zm-9.14,8.52a1,1,0,1,0-1-1A1,1,0,0,0,47.14,77.33Zm11.3-1a1,1,0,0,0-1.07-.95,1,1,0,0,0-.95,1,1,1,0,0,0,2-.06Z"/><path d="M64.52,25h8.92a2.93,2.93,0,0,1,2.82,1.71,2.81,2.81,0,0,1-.41,3.18A2.76,2.76,0,0,1,74,31a6.36,6.36,0,0,1-.87.06H56a3.14,3.14,0,0,1-3.35-2.14A3,3,0,0,1,55.4,25c1.11-.05,2.21,0,3.31,0Zm0,2H56.08c-1.06,0-1.53.3-1.55,1s.49,1,1.56,1H73c.29,0,.66,0,.85-.1s.66-.63.65-.94-.41-.66-.71-.89S73.28,27,73,27Z"/><path d="M37.44,31a3,3,0,1,1,3-3A3,3,0,0,1,37.44,31Zm0-2a1,1,0,1,0-1-1A1,1,0,0,0,37.42,29Z"/><path d="M45.39,31a3,3,0,1,1,3-3A3,3,0,0,1,45.39,31Zm0-4a1,1,0,1,0,0,2,1,1,0,1,0,0-2Z"/><path d="M29.35,31a3,3,0,0,1-3-3.06A3,3,0,0,1,29.44,25a3.06,3.06,0,0,1,3,3.05A3,3,0,0,1,29.35,31Zm1.08-3a1.06,1.06,0,0,0-1.08-1,1,1,0,0,0-.93,1,1,1,0,0,0,1,.95A1,1,0,0,0,30.43,27.94Z"/></svg>