<svg id="Capa_1" data-name="Capa 1" xmlns="http://www.w3.org/2000/svg" viewBox="0 0 100 100"><defs><style>.cls-1{fill:#49baed;}.cls-2{fill:#009ce5;}.cls-3{fill:#797781;}.cls-4{fill:#fff;}.cls-5{fill:#e6e8e9;}.cls-6{fill:#ffd400;}.cls-7,.cls-8{stroke:#000;stroke-miterlimit:10;}.cls-8{fill:#ff623e;}</style></defs><polygon class="cls-1" points="92.42 59.77 19.51 59.77 20.28 70.72 23.85 72.69 91.71 72.69 93.77 69.25 92.42 59.77"/><polygon class="cls-2" points="20.41 53.45 20.93 59.77 93.77 60.63 93.77 53.45 75.43 35.55 26.77 35.55 20.41 47.21 20.41 53.45"/><path d="M94.46,52.46,77.7,36a6.55,6.55,0,0,0-4.58-1.85H48.31V36.8h7V58H59.1V36.8H73.26a2.05,2.05,0,0,1,1.4.55l3,2.84H70.29a2.93,2.93,0,0,0-3,2.86V55a3.09,3.09,0,0,0,3.16,3h22V69.92s0,1.68-3.5,1.28a20.81,20.81,0,0,0-2.23-.11L47.22,71l-21.51,0h-3s-1.23-.19-1.1-2.53V57.12l-2.74-.06V68.53a5.29,5.29,0,0,0,5.41,5.16H90.18A4.71,4.71,0,0,0,95,69.1V53.73A1.77,1.77,0,0,0,94.46,52.46Z"/><rect x="7.54" y="79.16" width="78.1" height="2.84"/><ellipse cx="36.83" cy="71.95" rx="10.45" ry="9.6"/><ellipse cx="77.73" cy="71.95" rx="10.45" ry="9.6"/><ellipse class="cls-3" cx="36.83" cy="71.95" rx="7.35" ry="6.76"/><rect x="34.81" y="70.31" width="3.54" height="3.38"/><ellipse class="cls-3" cx="77.71" cy="71.95" rx="7.35" ry="6.76"/><rect x="76.16" y="70.72" width="3.11" height="2.97"/><rect x="11.67" y="55.05" width="3.19" height="3.04"/><rect x="9.96" y="60.63" width="4.9" height="3.04"/><rect x="7" y="65.96" width="7.86" height="3.28"/><path class="cls-4" d="M71.07,42.4h8a2.34,2.34,0,0,1,1.66.67L92.42,54.35v1.23H71.16a1.25,1.25,0,0,1-1.28-1.22V43.54A1.16,1.16,0,0,1,71.07,42.4Z"/><polygon class="cls-5" points="71.43 43.82 80.02 43.82 90.42 53.98 71.43 53.98 71.43 43.82"/><ellipse cx="26.38" cy="35.22" rx="19.38" ry="18.22"/><ellipse class="cls-6" cx="26.55" cy="35.22" rx="16.6" ry="15.27"/><g id="M56jR2"><path class="cls-7" d="M27.74,22.74c.63.13,1.26.22,1.87.4a8.81,8.81,0,0,1,6.06,11.28,37.44,37.44,0,0,1-5.09,9.38c-.74,1.07-1.52,2.12-2.33,3.14a7.87,7.87,0,0,1-1.1,1h-.58a9.18,9.18,0,0,1-1.08-1,53.3,53.3,0,0,1-6.22-9.56,13.76,13.76,0,0,1-1.68-5.58,8.92,8.92,0,0,1,8.12-9,2.74,2.74,0,0,0,.39-.09Zm-.87,23.83c.38-.49.72-.93,1-1.37a46.76,46.76,0,0,0,6-9.89,8.42,8.42,0,0,0,.76-5.17A7.81,7.81,0,0,0,27.82,24a8,8,0,0,0-8,3.87,7.62,7.62,0,0,0-.3,6.86C21.26,39.08,24,42.83,26.87,46.57Z"/><path class="cls-8" d="M26.87,46.57c-2.88-3.74-5.61-7.49-7.31-11.81a7.62,7.62,0,0,1,.3-6.86,8,8,0,0,1,8-3.87,7.81,7.81,0,0,1,6.84,6.11,8.42,8.42,0,0,1-.76,5.17,46.76,46.76,0,0,1-6,9.89C27.59,45.64,27.25,46.08,26.87,46.57Zm-.1-19.17a4.08,4.08,0,1,0,4.29,4A4.19,4.19,0,0,0,26.77,27.4Z"/><path class="cls-7" d="M26.77,27.4a4.08,4.08,0,1,1,0,8.15,4.08,4.08,0,1,1,0-8.15Zm-2.92,4.08a2.94,2.94,0,1,0,2.91-2.81A2.84,2.84,0,0,0,23.85,31.48Z"/></g><rect x="62.97" y="60.71" width="6.09" height="3.28"/></svg>