<svg id="Capa_1" data-name="Capa 1" xmlns="http://www.w3.org/2000/svg" viewBox="0 0 100 100"><defs><style>.cls-1{fill:#c7ddfc;}</style></defs><path class="cls-1" d="M98,49.05c.28,25.67-21.28,48.11-48.29,48C23.26,96.84,1.9,74.72,2,48.77,2.1,23.26,23.35.75,50.53,1,76.85,1.25,98.3,23.25,98,49.05Zm-7.85-.17C89,25.52,72.29,9.11,50,9.13c-22.49,0-39.83,16.64-39.86,39.81,0,23.49,17.74,40.11,40.09,39.92C73.43,88.66,89.24,71.37,90.15,48.88Z"/><path class="cls-1" d="M41.89,49c0-4.25,0-8.51,0-12.76,0-1.51.22-2.86,1.68-3.62s2.45.05,3.54.84c5.72,4.15,11.51,8.2,17.16,12.44,3.39,2.55,3.31,3.83-.11,6.39q-8.36,6.24-16.8,12.34c-1.17.85-2.55,1.53-4,.84s-1.47-2.27-1.47-3.71Z"/></svg>