<?xml version="1.0" standalone="no"?>
<!DOCTYPE svg PUBLIC "-//W3C//DTD SVG 20010904//EN"
 "http://www.w3.org/TR/2001/REC-SVG-20010904/DTD/svg10.dtd">
<svg version="1.0" xmlns="http://www.w3.org/2000/svg"
 width="260.000000pt" height="260.000000pt" viewBox="0 0 260.000000 260.000000"
 preserveAspectRatio="xMidYMid meet">
<metadata>
Created by potrace 1.14, written by Peter Selinger 2001-2017
</metadata>
<g transform="translate(0.000000,260.000000) scale(0.100000,-0.100000)"
fill="#000000" stroke="none">
<path d="M1623 2259 c-5 -4 -24 -10 -43 -12 -19 -3 -35 -6 -35 -7 0 -1 -20 -7
-49 -13 -8 -2 -21 -9 -30 -16 -9 -7 -16 -10 -16 -6 0 4 -7 2 -15 -5 -8 -6 -18
-9 -24 -6 -5 3 -11 1 -13 -4 -2 -6 -10 -12 -18 -13 -8 -2 -22 -7 -30 -12 -8
-5 -23 -11 -32 -12 -9 -2 -32 -11 -51 -22 -20 -11 -38 -17 -41 -14 -3 4 -6 1
-6 -5 0 -7 -3 -11 -7 -10 -5 2 -33 -8 -63 -22 -30 -13 -58 -23 -62 -22 -5 1
-8 -3 -8 -9 0 -6 -7 -9 -15 -5 -8 3 -15 2 -15 -3 0 -5 -11 -12 -25 -15 -14 -4
-25 -11 -25 -17 0 -6 -4 -8 -9 -4 -5 3 -30 -6 -55 -19 -25 -13 -46 -22 -46
-19 0 4 -8 -1 -18 -10 -10 -10 -22 -14 -26 -10 -4 4 -10 3 -14 -3 -8 -12 -84
-49 -94 -46 -5 1 -8 -3 -8 -8 0 -6 -6 -10 -12 -10 -7 0 -24 -6 -38 -14 -14 -7
-63 -33 -110 -58 -106 -55 -159 -89 -185 -117 -11 -12 -28 -29 -37 -39 -10 -9
-18 -22 -18 -29 0 -7 -4 -13 -9 -13 -8 0 -24 -37 -22 -52 1 -5 -4 -8 -11 -8
-6 0 -8 -3 -5 -6 3 -4 1 -16 -5 -27 -14 -28 -18 -120 -4 -129 7 -5 6 -8 -4 -8
-11 0 -12 -2 -3 -8 7 -4 14 -17 16 -27 9 -54 115 -184 138 -169 5 3 9 0 9 -7
0 -7 3 -9 7 -6 3 4 12 2 20 -5 9 -7 69 -12 166 -14 181 -3 347 -13 361 -21 5
-4 24 -8 40 -9 17 -2 40 -5 51 -8 11 -2 28 -5 38 -5 10 -1 15 -5 12 -11 -3 -5
0 -8 7 -5 17 6 90 -19 81 -28 -3 -4 3 -7 14 -7 11 0 26 -6 32 -14 7 -8 23 -17
36 -20 14 -4 25 -11 25 -16 0 -6 9 -10 20 -10 11 0 23 -7 26 -15 4 -8 9 -13
13 -10 4 2 14 -5 21 -16 8 -10 18 -19 23 -19 11 0 135 -130 155 -162 9 -16 20
-28 24 -28 4 0 8 -7 8 -15 0 -8 5 -15 10 -15 6 0 10 -7 10 -15 0 -8 5 -15 10
-15 6 0 10 -7 10 -15 0 -8 5 -15 10 -15 6 0 10 -7 10 -15 0 -8 5 -15 11 -15 5
0 8 -4 4 -9 -3 -5 1 -15 8 -23 7 -7 28 -44 47 -82 37 -72 93 -136 144 -162 38
-19 161 -27 213 -12 45 12 155 87 147 99 -3 5 -1 9 3 9 20 0 77 123 68 148 -2
6 1 12 6 12 6 0 9 9 6 20 -3 11 -2 20 1 20 4 0 6 17 5 37 -1 21 -3 73 -5 115
-2 43 -5 78 -8 78 -3 0 -5 24 -6 53 -1 53 -10 151 -21 222 -3 22 -6 54 -7 70
-1 17 -6 36 -10 44 -7 10 -6 12 4 6 10 -6 11 -4 4 6 -9 16 -10 21 -19 99 -13
114 -15 136 -19 155 -3 11 -5 20 -6 20 -1 0 -3 16 -5 35 -2 19 -6 49 -8 65 -3
17 -8 50 -12 75 -3 25 -8 52 -10 60 -2 8 -7 35 -10 60 -4 25 -12 48 -18 52 -7
4 -9 8 -5 8 12 0 -27 91 -64 151 -47 78 -148 174 -191 183 -7 2 -19 6 -28 10
-9 4 -27 8 -41 10 -13 1 -28 5 -33 8 -15 8 -183 6 -192 -3z"/>
</g>
</svg>
