<svg xmlns="http://www.w3.org/2000/svg" viewBox="0 0 100 100"><defs><style>.cls-1{fill:#e8e1e5;}.cls-2{fill:#6faee5;}.cls-3{fill:#75b6ec;}.cls-4{fill:#ae9ca8;}.cls-5{fill:#fdfcfe;}.cls-6{fill:#f9a516;}.cls-7{fill:#ffde33;}</style></defs><g id="Capa_2" data-name="Capa 2"><path class="cls-1" d="M49.56,14.51c.94.17,1.89.32,2.84.5a23.72,23.72,0,0,1,12,39.78,1.6,1.6,0,0,0-.18.25c-.32.26-.64.52-.94.8A22.94,22.94,0,0,1,57,59.91,33.05,33.05,0,0,1,52,61.5c-.79.09-1.59.2-2.39.27a23,23,0,0,1-6-.23,4,4,0,0,0-.49,0c-.1,0-.19-.09-.29-.11a26.15,26.15,0,0,1-5.15-1.71A25.71,25.71,0,0,1,30.93,55a30.56,30.56,0,0,1-3.51-4.5A23.69,23.69,0,0,1,45,14.65c.13,0,.3,0,.38-.14Zm-2,6.72a17,17,0,1,0,16.9,17A16.92,16.92,0,0,0,47.58,21.23Z"/><path class="cls-2" d="M65.12,70.37a1.88,1.88,0,0,0-.4.75c-.54,1.61-1,3.26-1.58,4.85-.18-.06-.25-.22-.33-.36l-2-3.49-5-8.56c-.21-.35-.23-.54.24-.72a27,27,0,0,0,7.75-4.55c.5-.42.86-1,1.51-1.24,1.1,1.69,2,3.48,3.06,5.22,1.34,2.32,2.66,4.65,4,7l-4.81-1c-1.84-.39-1.84-.39-2.43,1.41C65.1,69.86,64.83,70.11,65.12,70.37Z"/><path class="cls-2" d="M29.9,70.37c-1.37.13-2.67.57-4,.81a10.84,10.84,0,0,1-1.7.32,3,3,0,0,1,.48-1.06c.35-.61.71-1.21,1.07-1.82,1.71-3,3.43-5.93,5.12-8.91.25-.44.42-.44.79-.18A25.28,25.28,0,0,0,38,62.92a15.58,15.58,0,0,0,3.69,1q-3.46,6-6.95,12.08a.55.55,0,0,1-.12.14c0-.13-.12-.26-.16-.4-.56-1.75-1.13-3.49-1.67-5.25-.14-.45-.38-.67-.85-.6A7.11,7.11,0,0,0,29.9,70.37Z"/><path class="cls-3" d="M41.73,63.9a15.58,15.58,0,0,1-3.69-1,25.28,25.28,0,0,1-6.39-3.39c-.37-.26-.54-.26-.79.18-1.69,3-3.41,5.94-5.12,8.91-.36.61-.72,1.21-1.07,1.82a3,3,0,0,0-.48,1.06,8.63,8.63,0,0,1-1.73.45.6.6,0,0,1-.65-.27.69.69,0,0,1,0-.81l1.51-2.63L30.6,55.57c.1-.18.22-.35.33-.53a25.71,25.71,0,0,0,6.75,4.65,26.15,26.15,0,0,0,5.15,1.71c.1,0,.19.08.29.11Z"/><path class="cls-3" d="M65.36,57.05c-.65.22-1,.82-1.51,1.24a27,27,0,0,1-7.75,4.55c-.47.18-.45.37-.24.72l5,8.56,2,3.49c.08.14.15.3.33.36a9.55,9.55,0,0,1-.41,1.48c-.09.36-.28.68-.68.72s-.59-.26-.76-.55c-.78-1.34-1.54-2.69-2.32-4L52,61.5A33.31,33.31,0,0,0,57,59.91a22.94,22.94,0,0,0,6.32-4.07c.3-.28.62-.54.94-.8A12.79,12.79,0,0,1,65.36,57.05Z"/><path class="cls-2" d="M29.9,70.37a7.11,7.11,0,0,1,2.08-.5c.47-.07.71.15.85.6.54,1.76,1.11,3.5,1.67,5.25,0,.14.11.27.16.4a11.88,11.88,0,0,1-1,1.79.62.62,0,0,1-.7.28c-.36-.07-.48-.37-.57-.67q-.89-2.79-1.76-5.58c-.1-.32-.2-.63-.29-1A1.08,1.08,0,0,0,29.9,70.37Z"/><path class="cls-2" d="M65.12,70.37c-.29-.26,0-.51,0-.73.59-1.8.59-1.8,2.43-1.41l4.81,1c.28.46.55.92.83,1.37a.87.87,0,0,1,.11,1c-.25.4-.66.31-1,.23-1.76-.38-3.52-.79-5.28-1.16A5.33,5.33,0,0,0,65.12,70.37Z"/><path class="cls-4" d="M47.58,21.23A17,17,0,1,1,30.66,38.11,16.91,16.91,0,0,1,47.58,21.23ZM34,44.25h0a1.1,1.1,0,0,0,.2.64,14.72,14.72,0,0,0,3.91,4.91A14.88,14.88,0,0,0,59.69,47a7.4,7.4,0,0,0,1.45-2.71h0l.12-.14c.11-.22.24-.44.33-.67a14.47,14.47,0,0,0,.75-7.62A14.75,14.75,0,0,0,54.09,24.7a14.21,14.21,0,0,0-8.44-1.37,14.94,14.94,0,0,0-12.9,13.05,14,14,0,0,0,1.12,7.73Z"/><path class="cls-5" d="M33.87,44.11a14,14,0,0,1-1.12-7.73,14.94,14.94,0,0,1,12.9-13.05,14.21,14.21,0,0,1,8.44,1.37,14.75,14.75,0,0,1,8.24,11.12,14.47,14.47,0,0,1-.75,7.62c-.09.23-.22.45-.33.67l-.12.14h0a2.31,2.31,0,0,0-.33.28,12.9,12.9,0,0,1-2.62,2.7A17,17,0,0,1,35.57,46c-.56-.54-1-1.16-1.57-1.74h0Zm7.85.74c0,1.13.33,1.35,1.14.93,1.29-.66,2.57-1.34,3.83-2a1.5,1.5,0,0,1,1.66-.06c1.25.73,2.55,1.38,3.83,2.06.31.16.63.38,1,.15s.29-.68.24-1c-.24-1.53-.49-3-.79-4.56a1,1,0,0,1,.3-1c.75-.72,1.47-1.46,2.21-2.19.46-.44,1-.84,1.4-1.31a.64.64,0,0,0-.37-1.15c-1.4-.23-2.8-.46-4.21-.62a1.88,1.88,0,0,1-1.84-1.23c-.51-1.26-1.19-2.45-1.8-3.67-.16-.32-.31-.67-.73-.69s-.56.35-.72.66c-.7,1.41-1.41,2.82-2.1,4.23a.92.92,0,0,1-.79.58c-1.57.22-3.13.5-4.7.71-.38,0-.69.12-.83.51s.13.68.4.89c1.05.85,1.89,1.93,2.92,2.79a2,2,0,0,1,.65,2.23C42.11,42.38,41.92,43.73,41.72,44.85Z"/><path class="cls-4" d="M34,44.24c.52.58,1,1.2,1.57,1.74a17,17,0,0,0,22.62,1.24,12.9,12.9,0,0,0,2.62-2.7c.08-.11.72-1,.83-1.1a12.68,12.68,0,0,1-2,3.53,14.88,14.88,0,0,1-21.58,2.84,14.72,14.72,0,0,1-3.91-4.91A1.1,1.1,0,0,1,34,44.24Z"/><path class="cls-6" d="M33.87,44.11l.14.14Z"/><path class="cls-6" d="M61.13,44.25l.12-.14Z"/><path class="cls-7" d="M41.72,44.85c.2-1.12.39-2.47.68-3.79a2,2,0,0,0-.65-2.23c-1-.86-1.87-1.94-2.92-2.79-.27-.21-.55-.47-.4-.89s.45-.46.83-.51c1.57-.21,3.13-.49,4.7-.71a.92.92,0,0,0,.79-.58c.69-1.41,1.4-2.82,2.1-4.23.16-.31.28-.69.72-.66s.57.37.73.69c.61,1.22,1.29,2.41,1.8,3.67a1.88,1.88,0,0,0,1.84,1.23c1.41.16,2.81.39,4.21.62a.64.64,0,0,1,.37,1.15c-.43.47-.94.87-1.4,1.31-.74.73-1.46,1.47-2.21,2.19a1,1,0,0,0-.3,1c.3,1.51.55,3,.79,4.56.05.34.16.77-.24,1s-.67,0-1-.15c-1.28-.68-2.58-1.33-3.83-2.06a1.5,1.5,0,0,0-1.66.06c-1.26.7-2.54,1.38-3.83,2C42.05,46.2,41.71,46,41.72,44.85Z"/><path d="M32.91,79a4.92,4.92,0,0,1-.66-1C31.49,75.67,30.77,73.35,30,71c-.06-.18-.12-.35-.2-.55-2.59.57-5.15,1.12-7.71,1.7A1,1,0,0,1,21,70.64c1.4-2.43,2.79-4.87,4.19-7.31.41-.71.89-.91,1.43-.61s.61.86.22,1.54L24,69.15l-.38.71c.38-.06.68-.1,1-.16l5.29-1.19c1-.23,1.33-.05,1.66,1,.64,2,1.27,4,2,6.2l8.17-14.26A24.07,24.07,0,0,1,31.55,56c-.2.33-.38.62-.55.92-.6,1-1.19,2.1-1.8,3.13a.95.95,0,1,1-1.64-.93c.84-1.49,1.69-3,2.55-4.47C29.54,54,29,53.3,28.43,52.59a23.48,23.48,0,0,1-4.82-15.72A23.7,23.7,0,0,1,31.9,19.8a1,1,0,0,1,1.5,0c.38.46.3,1-.28,1.49a22.22,22.22,0,0,0,10.37,38.6,22.13,22.13,0,0,0,7.78-43.58A21.53,21.53,0,0,0,37.1,18.51l-.28.15a1,1,0,0,1-1.31-.34A.94.94,0,0,1,35.94,17a43,43,0,0,1,4.89-2A23.8,23.8,0,0,1,70.9,34a23.63,23.63,0,0,1-5.77,20.19.74.74,0,0,0-.08,1q4.33,7.55,8.65,15.11l.19.33a1,1,0,0,1,0,1.18,1,1,0,0,1-1.12.36l-4.92-1.09L65,70.42c-.1.28-.2.53-.28.79C64,73.48,63.28,75.76,62.58,78c-.15.46-.34.82-.87.88s-.84-.24-1.08-.68c-.44-.8-.91-1.58-1.35-2.37a1,1,0,0,1,.26-1.44c.5-.29,1-.12,1.37.48l.41.68c.1-.26.18-.44.23-.62.6-1.87,1.18-3.75,1.78-5.62.29-.93.59-1.1,1.53-.9l5.67,1.25.73.15L63.34,56a24.31,24.31,0,0,1-10.12,5.43c.14.24.24.45.35.64l4.81,8.41a3.26,3.26,0,0,1,.31.62.93.93,0,0,1-1.56.93,3.22,3.22,0,0,1-.38-.58c-1.74-3-3.49-6.08-5.21-9.13a.71.71,0,0,0-.84-.43,21.41,21.41,0,0,1-6.54,0,.69.69,0,0,0-.83.44q-4.5,7.9-9,15.77a5.85,5.85,0,0,1-.76.9Z"/><path d="M30,38.09A17.65,17.65,0,0,1,44.76,20.75,17.42,17.42,0,0,1,64.48,34.88a18.1,18.1,0,0,1,0,6.44c-.14.77-.56,1.12-1.17,1s-.82-.61-.7-1.35A15.45,15.45,0,1,0,44.81,53.45a15.44,15.44,0,0,0,16-7.54c.12-.22.23-.45.37-.66a.91.91,0,0,1,1.28-.43.94.94,0,0,1,.36,1.36,17,17,0,0,1-3.94,5.07,17.33,17.33,0,0,1-28.43-9.64C30.19,40.46,30.13,39.27,30,38.09Z"/><path d="M58,35a4.36,4.36,0,0,1-.49.67c-1.3,1.29-2.62,2.56-3.91,3.87a1,1,0,0,0-.25.75c.28,1.85.6,3.71.93,5.56.09.46.06.92-.37,1.1a1.6,1.6,0,0,1-1.16,0c-1.64-.81-3.24-1.69-4.85-2.57a.87.87,0,0,0-.93,0c-1.59.87-3.19,1.7-4.78,2.56a1.09,1.09,0,0,1-1.24.06,1,1,0,0,1-.36-1.18c.32-1.81.61-3.63.94-5.44a.84.84,0,0,0-.29-.88c-1.31-1.25-2.59-2.54-3.89-3.8a1.07,1.07,0,0,1-.44-1.16c.17-.53.59-.66,1.07-.73,1.81-.25,3.62-.5,5.43-.79a1,1,0,0,0,.62-.49c.83-1.64,1.62-3.29,2.42-5,.2-.42.45-.76,1-.77s.78.33,1,.76c.77,1.61,1.57,3.22,2.33,4.84a1,1,0,0,0,.89.66c1.79.22,3.57.49,5.36.76A1.07,1.07,0,0,1,58,35ZM52.1,44.47c-.19-1.16-.36-2.19-.54-3.23-.41-2.43-.53-1.8,1.13-3.49.73-.75,1.43-1.53,2.14-2.29-1.38-.2-2.81-.44-4.24-.62a1.38,1.38,0,0,1-1.2-.86c-.5-1.09-1-2.17-1.57-3.25l-.41-.79c-.7,1.45-1.36,2.76-2,4.1a1.28,1.28,0,0,1-1.11.8c-.6.06-1.2.16-1.81.25l-2.44.37a22.38,22.38,0,0,0,2.25,2.4,2.77,2.77,0,0,1,1,3.27,31.42,31.42,0,0,0-.59,3.35c1.37-.73,2.64-1.38,3.88-2.08a1.47,1.47,0,0,1,1.6,0C49.46,43.09,50.73,43.74,52.1,44.47Z"/></g></svg>