<svg xmlns="http://www.w3.org/2000/svg" viewBox="0 0 100 100"><defs><style>.cls-1{fill:#186eb5;}.cls-2{fill:#3cb8eb;}.cls-3{fill:#7fb92c;}.cls-4{fill:#def0f8;}.cls-5{fill:#ffdd37;}.cls-6{fill:#5a697a;}.cls-7{fill:#5a6a79;}.cls-8{fill:#5d6e7b;}.cls-9{fill:#ed702c;}.cls-10{fill:#606f7a;}.cls-11{fill:#4285c5;}.cls-12{fill:#56af45;}.cls-13{fill:#4082c4;}.cls-14{fill:#074067;}</style></defs><g id="Capa_2" data-name="Capa 2"><g id="PRxaar"><path class="cls-1" d="M44.66,23.17a1.91,1.91,0,0,1-.24.42.77.77,0,0,1-.36.18c-.69.18-.6,1.44-1.43,1.22-.61-.15-.69-1.09-1.43-1.35-.48-.17-.44-.64,0-.94a1,1,0,0,1,.36-.19c.68-.11.48-1.56,1.42-1.07.54.28.73,1.13,1.44,1.35C44.54,22.82,44.58,23,44.66,23.17Z"/><path class="cls-2" d="M41.15,30.31c8.23-3.36,16.13-2.66,23.51,2.3.88.59,1.7,1,.78,1.8-.63.53-1.07,2.16-2,2.34a2.91,2.91,0,0,1-2.34-.29c-1.57-1.13-3.63-1.37-5,0-1.5,1.52-2.47,2.74-3.94,4.29-.54.58-.18.75.42,1.27,1,.86,1.61,1.21,2.64,2a4.65,4.65,0,0,0,4.09.87c1.15-.33,1.72.46,2.35,1.47-2.54,0-4.3,2-5.57,3.69-1.39,1.91-3,3.7-4.41,5.57-.39.49-.64.59-1,0-1.16-1.87-2.55-3.38-4.94-3.61a4.52,4.52,0,0,1-1.82-1,3.5,3.5,0,0,0-4.22-.12c-.89.55-2,1.22-2.85.3-1.09-1.13-2.27-2.35-2.13-4.13.09-1.23.67-2.85,2.07-2.69.7.08,1.64.23,2.34.29.88.08,1.13.37,1.57-.36.69-1.12,1.9-2.21,3.11-2,2,.37,3.37-.09,4.21-1.53s.43-2.42-.35-3.68a14.75,14.75,0,0,0-5.32-5A4.6,4.6,0,0,1,41.15,30.31Z"/><path class="cls-3" d="M45.25,42.31c-1.8-.18-2.94-.14-3.81,1.17-.67,1-1.78.7-2.63.59a3.67,3.67,0,0,0-2.05.29c-2.34.76-3.24,2.27-2,4.39.33.58.81,1.2,1.17,1.75,1.42,2.19,2.34,1.47,4.68.88a3.36,3.36,0,0,1,3.81.3,10.16,10.16,0,0,0,3.51,1.46c1.83.33,1.9,1.94,2.93,3.22.29.36-.2,1.12-.41,1.34-2,2.18-4,4.36-6.2,6.39-.55.5-.82.52-1.32-.1-1.77-2.2-3.87-4.17-4.36-7.05a4.1,4.1,0,0,0-2.61-3.54,8.11,8.11,0,0,1-3.5-3.06,4,4,0,0,0-3.08-1.87c-1.51,0-1.3-.83-1.1-1.72A23.2,23.2,0,0,1,35.1,34.52a22.43,22.43,0,0,1,4.36-3.26c.36-.21.65-.49,1.12-.13C43,33,45.79,34.39,47.31,37.22c.46.86,1.13,1.59.48,2.59S46.48,42.76,45.25,42.31Z"/><path class="cls-2" d="M73.77,54.68C71.51,68.6,56.51,77.25,43.14,72.55a71.88,71.88,0,0,0,7.41-5A58.73,58.73,0,0,0,63.38,52.51a6.34,6.34,0,0,0,.74-1.83,4.6,4.6,0,0,1,.48-1.81A2.15,2.15,0,0,1,66,51.09a4.29,4.29,0,0,0,1.4,4.24c3,2.82,3,2.84,5.71-.17C73.32,55,73.44,54.68,73.77,54.68Z"/><path class="cls-4" d="M81.47,32.6A23.5,23.5,0,0,1,74.3,44.49,25.49,25.49,0,0,1,67,49a1.67,1.67,0,0,1-2.14-.41,42.46,42.46,0,0,0-3.54-3.16,1.31,1.31,0,0,1-.44-1.7A23.94,23.94,0,0,1,75.81,28c.68-.27,1.16-.33,1.65.42a9.09,9.09,0,0,0,3.39,3C81.29,31.74,81.71,32,81.47,32.6Z"/><path class="cls-5" d="M59.59,49.33c-.1.88-2.35,2.85-2.41,3.65s.28,1.27,1.17,1.06c1.13-.28,2.43-1.78,3.29-2.66.29.09,1.24.47,1.17.59-5.86,10-15.3,19-26.34,23.41a17.82,17.82,0,0,1-9.45.8c-2.44-.48-3.32-1.62-3.11-4.08.16-1.75,1.4-3.85,2.31-5.5.26,4.2,1.78,5.28,6.15,4.39s6.77-2.45,10-5.27a168.43,168.43,0,0,0,16.1-17.26C58.64,48.18,58.91,49.38,59.59,49.33Z"/><path class="cls-2" d="M28.31,50.79c.19-.52-.4-1.49.45-1.77a2.35,2.35,0,0,1,2.54.88,21.66,21.66,0,0,0,2.17,2.43,7.13,7.13,0,0,0,2.69,1.75A2.33,2.33,0,0,1,37.86,56,16.23,16.23,0,0,0,42,64c.57.66.6,1.1-.19,1.62-1.26.83-2.47,1.75-3.68,2.65a1.29,1.29,0,0,1-1.93-.14A23.49,23.49,0,0,1,28.31,50.79Z"/><path class="cls-6" d="M73,46.7a5.69,5.69,0,0,0,1.45,2.61A1.9,1.9,0,0,1,74.58,52c-1.27,1.51-2.61,3-3.92,4.42-.2.22-.36.41-.76.23-1.64-.76-3.41-3.44-3.28-5.09a2.41,2.41,0,0,1,1.61-2.3A24.35,24.35,0,0,0,73,46.7Z"/><path class="cls-7" d="M63.39,37.51c-.78,1.73-1.52,3.25-2.14,4.8a3.28,3.28,0,0,1-4.77,1.94,4.3,4.3,0,0,1-.43-.21c-3.4-2-4.5-2.17-1.73-4.95l2.6-2.58a2.86,2.86,0,0,1,3.82,0A4.25,4.25,0,0,0,63.39,37.51Z"/><path class="cls-8" d="M82.13,29c-.16.69.32,1.9-.49,2.2s-1.46-.68-2-1.27-1.89-1.26-1.67-2.32c.08-.37,1.58-.51,2.45-.64C82.19,26.64,82.2,26.67,82.13,29Z"/><path class="cls-6" d="M59.54,48c.93-.38,2.91-1.61,3.85-.38.72.93-.18,2.47-.29,3.51C62.07,50.14,60.78,49.09,59.54,48Z"/><path class="cls-9" d="M57.91,52c0-.89.25-1.78,1.45-1.72a1.19,1.19,0,0,1,1.14,1.38c-.14,1.2-1.15,1.26-2,1.39S57.86,52.54,57.91,52Z"/><path class="cls-1" d="M78.75,72.93c.27-.52.56-1.08,1.39-1a1.08,1.08,0,0,1,1.09,1.21,1.1,1.1,0,0,1-1.31,1.05A1.3,1.3,0,0,1,78.75,72.93Z"/><path class="cls-1" d="M50.52,79.44c-.4.44-.45,1.22-1.53,1-.84-.14-1.37-.62-1.29-1.24a1.35,1.35,0,0,1,1.55-1.06C50.16,78.24,50.33,78.86,50.52,79.44Z"/><path class="cls-10" d="M75.1,37.47a2.69,2.69,0,0,1-2.68,2.79,2.73,2.73,0,0,1-2.86-2.61,2.87,2.87,0,0,1,2.78-2.94A2.83,2.83,0,0,1,75.1,37.47Z"/></g><path class="cls-11" d="M31.2,50.8a20.86,20.86,0,0,0,6.73,17.26l-2,1.17s-10.53-8.48-8.19-20.48C27.69,48.75,30.61,49,31.2,50.8Z"/><path class="cls-12" d="M42.32,32.07S31.89,39.75,31.23,47.83a1.11,1.11,0,0,1-1.58.89c-.33-.15-.15,0-.5,0-.57,0-1.52-.83-1.37-1.38,1-3.85,5-13.73,12.2-16.47a1.13,1.13,0,0,1,1.17.29Z"/><path class="cls-13" d="M43.2,32.65s7.9-5,22.83.88c0,0-10.54-10-26.05-2.63Z"/><g id="qNiY4t.tif"><path class="cls-14" d="M28.42,21.24a1.52,1.52,0,0,1,.66.38,1.12,1.12,0,0,1,.27,1.2,1.16,1.16,0,0,1-2.2,0,1.23,1.23,0,0,1,.73-1.49l.12-.05Z"/><path class="cls-14" d="M51,74.88c-.69,0-1.27,0-1.85,0A23.44,23.44,0,0,1,44.47,74c-.72-.21-1.43-.47-2.13-.74a.51.51,0,0,0-.48,0A48.66,48.66,0,0,1,37,75.59a24,24,0,0,1-4.48,1.24c-.64.11-1.28.2-1.93.26a11.41,11.41,0,0,1-4.11-.36,5.35,5.35,0,0,1-2.14-1.14,3.88,3.88,0,0,1-1.14-1.9,5.59,5.59,0,0,1-.06-2.34,16.77,16.77,0,0,1,1.19-3.78,32.82,32.82,0,0,1,1.85-3.46,41.4,41.4,0,0,1,2.29-3.46.71.71,0,0,0,.1-.75c-.36-1-.7-2-1-3a24.26,24.26,0,0,1-.64-3.38c-.06-.51-.09-1-.13-1.53s0-1.1,0-1.65a20.58,20.58,0,0,1,.15-2.07,21.74,21.74,0,0,1,.57-3,22.6,22.6,0,0,1,1.27-3.51,24.28,24.28,0,0,1,2.11-3.71,29.09,29.09,0,0,1,2.06-2.66c.46-.52.93-1,1.44-1.53a22.2,22.2,0,0,1,4.4-3.3,22.5,22.5,0,0,1,4.09-1.78,29.47,29.47,0,0,1,3.55-.94,25.42,25.42,0,0,1,2.74-.38,21,21,0,0,1,2.75-.08,23.35,23.35,0,0,1,4.4.56,25.24,25.24,0,0,1,4.77,1.6,25.94,25.94,0,0,1,4.58,2.69,3,3,0,0,0,.65.38.45.45,0,0,0,.46-.06l.46-.4a24.2,24.2,0,0,1,5.26-3.64,24.51,24.51,0,0,1,4.7-1.8,26.32,26.32,0,0,1,3.06-.62,18.1,18.1,0,0,1,2-.17,2.58,2.58,0,0,1,.39,0,.39.39,0,0,1,.36.35,3.29,3.29,0,0,1,0,.54c0,.69,0,1.39,0,2.08a24.4,24.4,0,0,1-.6,4.16,22.24,22.24,0,0,1-1.94,5.23,23.79,23.79,0,0,1-2.7,4c-.58.71-1.2,1.38-1.84,2-.29.29-.61.57-.91.86a3.34,3.34,0,0,0-.44.48,1.83,1.83,0,0,0-.1,2,7,7,0,0,0,.72.93,4.28,4.28,0,0,1,.64,1,2.34,2.34,0,0,1,0,2.05,6.41,6.41,0,0,0-.56,1.87c-.18,1.11-.36,2.23-.65,3.32a23.64,23.64,0,0,1-1.35,3.84,22.52,22.52,0,0,1-2.89,4.74c-.39.5-.8,1-1.22,1.44s-1,1-1.5,1.49a21.11,21.11,0,0,1-2.38,1.93A23.56,23.56,0,0,1,58,73.91a25.46,25.46,0,0,1-3.23.7c-.58.09-1.16.15-1.75.19S51.56,74.89,51,74.88ZM41.19,30.7s0,.06.06.08c.41.31.82.62,1.25.91.59.4,1.18.8,1.76,1.22a12.07,12.07,0,0,1,1.32,1,9.73,9.73,0,0,1,1.21,1.36c.64.84,1.18,1.75,1.75,2.63a1.51,1.51,0,0,1,.09.18,2.89,2.89,0,0,1-.21,2.42,6.48,6.48,0,0,1-.93,1.27,2.64,2.64,0,0,1-1.23.84,2.4,2.4,0,0,1-1.13.1l-.66-.11a2.25,2.25,0,0,0-1.79.44,2.77,2.77,0,0,0-.6.68,2.48,2.48,0,0,1-2.21,1.16,7.34,7.34,0,0,1-.93-.1,9.51,9.51,0,0,0-1.5-.14,2.41,2.41,0,0,0-1.88.79,2.21,2.21,0,0,0-.47,2.4,6.08,6.08,0,0,0,.58,1,15.3,15.3,0,0,0,1.09,1.58,1.82,1.82,0,0,0,1.75.66,3.82,3.82,0,0,0,1.29-.49,8.9,8.9,0,0,1,1.2-.59,2.88,2.88,0,0,1,2.43.2c.6.31,1.18.68,1.76,1a4.37,4.37,0,0,0,1.64.59,3.51,3.51,0,0,1,2.35,1.3c.42.49.8,1,1.19,1.54.18.24,1,1,.86,1.14s-.41.41-.58.62-.12.25-.18.33a4.49,4.49,0,0,1-.46-.63c-.18-.26-.36-.51-.53-.77-.31-.46-.6-.93-.94-1.37a2.66,2.66,0,0,0-2.06-1.15,3,3,0,0,1-1.26-.39c-.67-.37-1.34-.74-2-1.16a2.21,2.21,0,0,0-1.7-.31,2.87,2.87,0,0,0-.84.37,6.28,6.28,0,0,1-1.76.77,2.79,2.79,0,0,1-2.85-.88,8.31,8.31,0,0,1-1.22-1.56A9.21,9.21,0,0,1,34,48a3,3,0,0,1,0-2.16,3.56,3.56,0,0,1,1.27-1.55,3.46,3.46,0,0,1,1-.52,4.15,4.15,0,0,1,1.82-.11c.34.06.67.12,1,.16a2.53,2.53,0,0,0,1.06-.07,2.2,2.2,0,0,0,1.27-.92,2.77,2.77,0,0,1,.9-.87,3.18,3.18,0,0,1,1.69-.37c.39,0,.79.06,1.18.09a1.58,1.58,0,0,0,1.25-.39,5,5,0,0,0,1-1.46,1.58,1.58,0,0,0,.1-1.07,2.11,2.11,0,0,0-.34-.73c-.57-.82-1.14-1.64-1.73-2.45a4.87,4.87,0,0,0-.89-1c-.3-.24-.62-.44-.94-.66-.7-.48-1.39-1-2.08-1.46l-1.16-.86a.9.9,0,0,0-1.07-.08l-.21.12c-.54.33-1.07.66-1.59,1A26.16,26.16,0,0,0,34.83,35c-.42.4-.8.82-1.19,1.25a22,22,0,0,0-1.6,2,23.39,23.39,0,0,0-2,3.5,20.89,20.89,0,0,0-.83,2A23.63,23.63,0,0,0,28.33,47a5.85,5.85,0,0,0-.12.71c0,.47.13.63.6.63.22,0,.43,0,.64,0A4.32,4.32,0,0,1,32,49.75c.41.45.78.93,1.17,1.4a9.33,9.33,0,0,0,1.4,1.34,6.23,6.23,0,0,0,1.93,1,2.6,2.6,0,0,1,.76.39,3.34,3.34,0,0,1,1.11,1.44,9.4,9.4,0,0,1,.41,1.27c.23.78.45,1.56.68,2.34a3.93,3.93,0,0,0,.69,1.35c.62.77,1.22,1.56,1.82,2.35A10.29,10.29,0,0,0,43.16,64c.06,0-.09.07-.13.11-.27.26-.43.49-.71.72-.09.08,0,.59-.31-.18a1.23,1.23,0,0,0-.21-.39c-.19-.25-.38-.5-.58-.74a23.81,23.81,0,0,1-1.89-2.59A13.11,13.11,0,0,1,38,58.14a12.14,12.14,0,0,1-.42-1.68,2.87,2.87,0,0,0-.46-1.13,2.73,2.73,0,0,0-1.38-1c-.22-.08-.44-.13-.66-.21a1.78,1.78,0,0,1-.66-.36c-.39-.32-.79-.64-1.17-1A11.71,11.71,0,0,1,32,51.57c-.24-.28-.44-.58-.66-.87a3.53,3.53,0,0,0-2.81-1.3.54.54,0,0,0-.52.33,1.29,1.29,0,0,0-.11.55c0,.87,0,1.74.08,2.61,0,.48.08,1,.14,1.42a23.75,23.75,0,0,0,.78,3.46,21.26,21.26,0,0,0,2.34,5.16,23.3,23.3,0,0,0,2.92,3.73A24,24,0,0,0,36,68.35a1,1,0,0,0,.76.3.09.09,0,0,1,.07,0c.07,0,.12,0,.17,0,.35-.21.7-.42,1-.64a32.4,32.4,0,0,0,2.81-2A5.58,5.58,0,0,0,42,65a.24.24,0,0,1,.08-.06c.48-.39.92-.82,1.42-1.18a9.86,9.86,0,0,0,1.07-1c.68-.65,1.36-1.32,2-2s1.5-1.56,2.24-2.35l1.26-1.37c.1-.11,1.39-1.68,1.49-1.77s.23-.23.33-.35l2.31-2.8c1.12-1.38,2.22-2.76,3.29-4.17a3,3,0,0,1,1.76-1.16l.44-.11,1.42-.37c.14,0,.15-.07.05-.16-.26-.26-.48-.56-.75-.83A1.24,1.24,0,0,0,59.25,45c-.38.07-.74.18-1.12.23a4,4,0,0,1-2.86-.75,13.75,13.75,0,0,1-1.19-1c-.45-.37-.88-.76-1.32-1.14-.27-.24-.55-.47-.81-.72a.52.52,0,0,1-.06-.8l.06-.06L54,38.52l2-2.13a5.15,5.15,0,0,1,.68-.64,3.14,3.14,0,0,1,2.42-.62,3.82,3.82,0,0,1,1.66.69,4.07,4.07,0,0,0,1,.58,1.69,1.69,0,0,0,1.47-.1,2.87,2.87,0,0,0,.81-.7c.29-.34.56-.69.85-1,.14-.17.29-.34.42-.52a.44.44,0,0,0,0-.49,1.49,1.49,0,0,0-.44-.53c-.48-.34-1-.66-1.47-1a24.66,24.66,0,0,0-3.42-1.78A22.92,22.92,0,0,0,55.93,29c-.74-.15-1.48-.27-2.22-.35-.42-.05-.83-.08-1.24-.1s-.89-.05-1.33,0-1,0-1.51.06-1,.08-1.49.14c-.92.12-1.84.3-2.75.51a17,17,0,0,0-4,1.4C41.29,30.62,41.22,30.64,41.19,30.7Zm2.53,41.67a.6.6,0,0,0,.23.1,28.44,28.44,0,0,0,2.9.69,24.1,24.1,0,0,0,3,.33,25,25,0,0,0,3-.06c.78-.07,1.56-.17,2.33-.31A23.71,23.71,0,0,0,61.48,71a22.71,22.71,0,0,0,2.78-1.63,25,25,0,0,0,2.79-2.23,22,22,0,0,0,2.08-2.24A20.92,20.92,0,0,0,72,60.42a19.55,19.55,0,0,0,1.45-4.48c.06-.32.13-.64.16-1-.06,0-.08,0-.1.05-.19.17-.38.34-.56.53-.64.63-1.27,1.27-1.87,1.94-.1.11-.21.22-.32.32a.48.48,0,0,1-.63.06l-.26-.2L68.19,56.2c-.22-.2-.43-.41-.66-.6a5.68,5.68,0,0,1-.77-.78,4.34,4.34,0,0,1-1-3.54,5.93,5.93,0,0,0,.1-.72.61.61,0,0,0-.28-.55l-.41-.31c-.12-.08-.23-.18-.36-.25s-.4-.11-.49.18a1.54,1.54,0,0,0,0,.17c0,.29-.11.59-.16.88a6.46,6.46,0,0,1-.49,1.66c-.18.36-.4.7-.61,1q-1.4,2.26-3,4.38c-.79,1.05-1.62,2.07-2.49,3.07S56,62.55,55.2,63.37c-.41.42-.83.82-1.26,1.22-.65.62-1.32,1.22-2,1.81-1.06.91-2.15,1.78-3.27,2.62-.85.63-1.71,1.24-2.59,1.83s-1.5,1-2.3,1.44A.08.08,0,0,0,43.72,72.37ZM26.26,66.46a.41.41,0,0,0-.13.17l-.48.85A11.6,11.6,0,0,0,24.14,72a3.91,3.91,0,0,0,.05,1.32,3.13,3.13,0,0,0,2,2.25,6.74,6.74,0,0,0,2.47.48,20.06,20.06,0,0,0,3.1-.15,17.65,17.65,0,0,0,4.3-1.1,53.41,53.41,0,0,0,5.59-2.58c1.36-.73,2.68-1.5,4-2.34s2.33-1.58,3.44-2.43a52.77,52.77,0,0,0,4-3.45c.54-.51,1.06-1,1.57-1.56.68-.71,1.35-1.44,2-2.18S58,58.57,58.71,57.7c.81-1,1.58-2.12,2.32-3.22.46-.69.91-1.4,1.36-2.1.11-.18.11-.18,0-.32l-.6-.55s-.06-.08-.12-.06-.05.12-.07.19-.05.3-.08.45a2.58,2.58,0,0,1-.5,1.12,2.23,2.23,0,0,1-1.12.67,11.35,11.35,0,0,1-1.54.31l-.81.12a.49.49,0,0,1-.61-.44,1.37,1.37,0,0,1,0-.35c0-.44,0-.89.08-1.34,0-.24,0-.48.08-.72A2,2,0,0,1,57.9,50a3.11,3.11,0,0,1,.91-.41l.64-.18s0,0,0,0c-.26-.27-.53-.52-.81-.77-.09-.07-.14,0-.21,0a4.38,4.38,0,0,0-.52.62c-.51.69-1,1.37-1.58,2-.8,1-1.62,2-2.43,3-.64.77-1.29,1.53-2,2.29S50.52,58.16,49.79,59s-1.5,1.63-2.28,2.42-1.84,1.83-2.81,2.71c-.81.73-1.62,1.47-2.46,2.18a30.17,30.17,0,0,1-3.48,2.55,19.45,19.45,0,0,1-3.93,1.88,13.78,13.78,0,0,1-5.41.74,3.59,3.59,0,0,1-1.2-.3,3.21,3.21,0,0,1-1.86-2.38,5.23,5.23,0,0,1-.06-1.58A3,3,0,0,0,26.26,66.46ZM66.35,48.94h.26l.18,0c.86-.37,1.74-.71,2.57-1.14A28.11,28.11,0,0,0,72,46.21,22.83,22.83,0,0,0,74.79,44a21,21,0,0,0,2-2.18,21.55,21.55,0,0,0,2.53-3.88A25,25,0,0,0,81,33.74c.12-.4.24-.8.33-1.21a.57.57,0,0,0-.26-.64,1.71,1.71,0,0,0-.23-.13,9.83,9.83,0,0,1-3.54-3.11,2.78,2.78,0,0,0-.26-.34.68.68,0,0,0-.7-.22,4.66,4.66,0,0,0-.49.16,27.16,27.16,0,0,0-3.68,1.68A22.5,22.5,0,0,0,66,34.86a23.14,23.14,0,0,0-3,4.35,24.86,24.86,0,0,0-1.49,3.43,9.36,9.36,0,0,0-.37,1.17A1.13,1.13,0,0,0,61.57,45c.24.2.47.41.7.62l2.26,2,1,.94A1,1,0,0,0,66.35,48.94Zm8.54,1.86a1.69,1.69,0,0,0-.39-1.13l-.38-.45A4.47,4.47,0,0,1,73,47c0-.14-.06-.15-.17-.07-.39.24-.76.5-1.15.74a23.5,23.5,0,0,1-3.57,1.82A1.82,1.82,0,0,0,67.1,50.6a4.06,4.06,0,0,0-.23,1.76,3.37,3.37,0,0,0,.42,1.3,3.86,3.86,0,0,0,.68.82c.61.59,1.26,1.14,1.86,1.73a1,1,0,0,0,.19.16.44.44,0,0,0,.48,0,.82.82,0,0,0,.25-.2c.39-.43.77-.86,1.16-1.28.84-.93,1.67-1.86,2.5-2.8A1.81,1.81,0,0,0,74.89,50.8ZM58.65,36.12a1.73,1.73,0,0,0-.95.26,2.92,2.92,0,0,0-.64.52l-1.72,1.82L53.5,40.66l-.18.22a.42.42,0,0,0,0,.51l.17.17,1.12,1c.34.29.66.6,1,.86a3.55,3.55,0,0,0,2.85.66,2.46,2.46,0,0,0,1.82-1.33,6.29,6.29,0,0,0,.3-.71,23.1,23.1,0,0,1,1.46-3.35l.49-.9c.08-.16.06-.2-.12-.21a3.78,3.78,0,0,1-1.15-.27,5.18,5.18,0,0,1-1.24-.69A2.17,2.17,0,0,0,58.65,36.12ZM29.42,61.87a.24.24,0,0,0-.13.14c-.25.45-.48.91-.69,1.37a12.83,12.83,0,0,0-1.19,4,4.44,4.44,0,0,0,0,1.26,2,2,0,0,0,1.34,1.58,3.88,3.88,0,0,0,1.22.23,9.42,9.42,0,0,0,2.25-.18,24.3,24.3,0,0,0,3-.85s.1,0,.13-.06a4.27,4.27,0,0,1-.69-.57A24.37,24.37,0,0,1,29.42,61.87Zm52.47-33.7v-.26a4.51,4.51,0,0,0,0-.52.32.32,0,0,0-.37-.34,1.83,1.83,0,0,0-.33,0c-.86.1-1.71.22-2.56.4a1.2,1.2,0,0,0-.27.08.27.27,0,0,0-.17.42,1.63,1.63,0,0,0,.11.17,9.24,9.24,0,0,0,3.13,2.69l.11.05c.09,0,.13,0,.14-.08a.22.22,0,0,0,0-.08A16.66,16.66,0,0,0,81.89,28.17Zm-19,22.72a.16.16,0,0,0,.07-.11c.13-.65.26-1.3.42-2a.76.76,0,0,0,0-.3,1.62,1.62,0,0,0-.78-1.12.86.86,0,0,0-.64-.17c-.78.16-1.54.37-2.31.6-.11,0-.12.07,0,.15a.1.1,0,0,1,0,0l1.53,1.37,1.39,1.23Zm-4.83,1.38a2.08,2.08,0,0,0,0,.25.58.58,0,0,0,0,.23c.05.18.14.26.31.26a2.81,2.81,0,0,0,1.37-.27,1.11,1.11,0,0,0,.12-1.91,1.13,1.13,0,0,0-1.7.57A2.42,2.42,0,0,0,58.09,52.27Z"/><path class="cls-14" d="M79.14,51.73a23.31,23.31,0,0,1-.16,2.5,27.95,27.95,0,0,1-2.29,8.52,2.74,2.74,0,0,1-.28.57.55.55,0,0,1-1-.44,3,3,0,0,1,.17-.45,26.82,26.82,0,0,0,1.5-4.16c.25-.91.44-1.84.6-2.78.1-.61.18-1.23.24-1.85s.07-1.22.08-1.83a6.4,6.4,0,0,1,.09-.88c.05-.33.23-.42.53-.43a.47.47,0,0,1,.51.51C79.15,51.25,79.14,51.49,79.14,51.73Z"/><path class="cls-14" d="M24.68,41.58a.94.94,0,0,1,.06-.29,12.46,12.46,0,0,1,.55-1.36A27.12,27.12,0,0,1,27,36.72a27.94,27.94,0,0,1,2.19-3.1,25.13,25.13,0,0,1,2-2.17,1.94,1.94,0,0,1,.27-.23.5.5,0,0,1,.68.1.46.46,0,0,1,.05.62,2.69,2.69,0,0,1-.26.33c-.34.37-.69.74-1,1.11a26.18,26.18,0,0,0-1.68,2.1,26.93,26.93,0,0,0-3.28,6,2.3,2.3,0,0,1-.2.42.48.48,0,0,1-.52.27.53.53,0,0,1-.45-.47S24.68,41.62,24.68,41.58Z"/><path class="cls-14" d="M42.78,20.78a.47.47,0,0,1,.28.17l.12.19a4.06,4.06,0,0,0,1.47,1.55A2.41,2.41,0,0,1,45,23a.3.3,0,0,1,0,.52,1.53,1.53,0,0,1-.3.19,3.47,3.47,0,0,0-1.53,1.59,1.49,1.49,0,0,1-.14.24.34.34,0,0,1-.62,0,5.84,5.84,0,0,0-.45-.76,3.82,3.82,0,0,0-1.21-1.05,1.24,1.24,0,0,1-.35-.25.26.26,0,0,1,0-.39,1,1,0,0,1,.29-.22,4.54,4.54,0,0,0,.91-.67,3.67,3.67,0,0,0,.72-.94,1.11,1.11,0,0,1,.25-.32A.27.27,0,0,1,42.78,20.78Zm0,3.28A.51.51,0,0,0,43,24a2.86,2.86,0,0,0,.72-.75c0-.06,0-.12,0-.16l-.5-.54a.59.59,0,0,0-.7-.16,1.35,1.35,0,0,0-.27.2l-.29.33c-.07.09-.23.13-.22.26s.15.2.23.29a3.37,3.37,0,0,0,.52.48A.6.6,0,0,0,42.81,24.06Z"/><path class="cls-14" d="M49,81.82a.34.34,0,0,1-.31-.22c-.11-.21-.21-.41-.34-.61A3.49,3.49,0,0,0,47,79.8a1.31,1.31,0,0,1-.34-.24.26.26,0,0,1,0-.42A.92.92,0,0,1,46.9,79a4.38,4.38,0,0,0,.83-.6,3.83,3.83,0,0,0,.76-.94,2,2,0,0,1,.23-.36.31.31,0,0,1,.48,0,.81.81,0,0,1,.22.3,4,4,0,0,0,1.6,1.6,1.2,1.2,0,0,1,.27.19c.17.18.17.32,0,.48a2.07,2.07,0,0,1-.24.17,3.71,3.71,0,0,0-1.68,1.73C49.24,81.72,49.12,81.81,49,81.82Zm1-2.51a.31.31,0,0,0-.09-.21,1.31,1.31,0,0,0-.24-.23l-.45-.34c-.19-.15-.27-.15-.46,0l-.67.6c-.16.14-.21.17,0,.32a1.14,1.14,0,0,1,.16.15l.61.57c.14.13.21.13.36,0a4.4,4.4,0,0,1,.46-.4,1.08,1.08,0,0,0,.26-.3A.35.35,0,0,0,50,79.31Z"/><path class="cls-14" d="M80.17,75.53a.19.19,0,0,1-.16,0,1,1,0,0,1-.2-.24,4.13,4.13,0,0,0-1.7-1.64,1.33,1.33,0,0,1-.3-.18c-.19-.16-.19-.29,0-.45l.22-.15a4.15,4.15,0,0,0,1.5-1.61,1.93,1.93,0,0,1,.22-.36c.13-.15.24-.15.39,0a1,1,0,0,1,.15.2,4.58,4.58,0,0,0,1,1.15,3.66,3.66,0,0,0,.68.42,1.32,1.32,0,0,1,.35.23.26.26,0,0,1,0,.42l-.14.09a3.93,3.93,0,0,0-1.62,1.71l-.17.31A.29.29,0,0,1,80.17,75.53ZM81.11,73a.23.23,0,0,0-.13-.17,4,4,0,0,1-.83-.63c-.12-.12-.14-.11-.27,0s-.52.49-.77.74-.17.24,0,.42.55.47.83.71c.12.11.17.1.29,0a6.15,6.15,0,0,0,.63-.62,2,2,0,0,0,.19-.28A.25.25,0,0,0,81.11,73Z"/><path class="cls-14" d="M65.6,75.44a1.15,1.15,0,0,1,1.18,1.14,1.17,1.17,0,0,1-1.17,1.18,1.19,1.19,0,0,1-1.17-1.19A1.14,1.14,0,0,1,65.6,75.44Z"/><path class="cls-14" d="M75.24,65.38a.55.55,0,0,1-.1.31c-.45.76-.94,1.48-1.44,2.2A.48.48,0,0,1,73,68a.47.47,0,0,1-.2-.67c.13-.22.27-.43.4-.64.35-.53.71-1,1-1.59a.58.58,0,0,1,.94,0A.46.46,0,0,1,75.24,65.38Z"/><path class="cls-14" d="M35.93,28.55a.47.47,0,0,1-.21.41,9,9,0,0,1-.91.72l-.58.41a.75.75,0,0,1-.2.1.49.49,0,0,1-.6-.18.53.53,0,0,1,0-.59,4.66,4.66,0,0,1,.84-.82,4,4,0,0,1,.85-.49.82.82,0,0,1,.26-.06A.46.46,0,0,1,35.93,28.55Z"/><path class="cls-14" d="M27.54,25.72a.82.82,0,0,1-.82.79.77.77,0,0,1-.78-.81.76.76,0,0,1,.78-.76A.81.81,0,0,1,27.54,25.72Z"/><path class="cls-14" d="M64.11,79.11a.74.74,0,0,1,.77.79.79.79,0,1,1-1.58,0A.77.77,0,0,1,64.11,79.11Z"/><path class="cls-14" d="M70.58,69.87a.6.6,0,0,1,.62-.67.66.66,0,1,1,0,1.31A.6.6,0,0,1,70.58,69.87Z"/><path class="cls-14" d="M38.82,26.9a.56.56,0,0,1-.62.63.61.61,0,0,1-.67-.62.6.6,0,0,1,.63-.66A.61.61,0,0,1,38.82,26.9Z"/><path class="cls-14" d="M51.21,63.48a.56.56,0,0,1-.48-.33.45.45,0,0,1,.06-.53c.11-.13.22-.25.34-.37.64-.67,1.25-1.38,1.87-2.07.41-.46.8-.94,1.21-1.4l.11-.13a.54.54,0,0,1,.83,0,.5.5,0,0,1,.09.46.89.89,0,0,1-.18.33c-.37.49-.77,1-1.17,1.42-.67.78-1.36,1.53-2.07,2.27a.94.94,0,0,1-.42.29Z"/><path class="cls-14" d="M47.77,66.75a.58.58,0,0,1-.49-.36.41.41,0,0,1,.11-.52,18.51,18.51,0,0,1,2-1.78.4.4,0,0,1,.48-.09.6.6,0,0,1,.36.48.55.55,0,0,1-.16.38,13.78,13.78,0,0,1-1.53,1.43l-.46.36A.48.48,0,0,1,47.77,66.75Z"/><path class="cls-14" d="M45.26,67.87a.6.6,0,0,1,.11-.34,1.42,1.42,0,0,1,.5-.44.57.57,0,0,1,.34-.07.52.52,0,0,1,.42.75,1,1,0,0,1-.84.59A.48.48,0,0,1,45.26,67.87Z"/><path class="cls-14" d="M72.24,34a3.56,3.56,0,0,1,0,7.12,3.56,3.56,0,1,1,0-7.12Zm0,1.11a2.51,2.51,0,0,0-2.44,2.45,2.45,2.45,0,0,0,4.89,0A2.49,2.49,0,0,0,72.23,35.1Z"/></g></g></svg>