<svg xmlns="http://www.w3.org/2000/svg" viewBox="0 0 100 100"><defs><style>.cls-1{fill:#1c3f87;}.cls-2{fill:#c3cf19;}</style></defs><g id="Capa_1" data-name="Capa 1"><ellipse class="cls-1" cx="49.09" cy="50" rx="28.09" ry="29"/></g><g id="Capa_2" data-name="Capa 2"><path class="cls-2" d="M39.4,45.21V42.76A1.58,1.58,0,0,1,41,41.2h7.63c3.5,0,7,0,10.5,0a1.67,1.67,0,0,1,1.75,1.74c0,.55,0,1.11,0,1.67a.53.53,0,0,1-.54.6c-.34,0-.55-.22-.55-.61s0-1.06,0-1.6-.19-.71-.72-.71h-5c-.25,0-.32.06-.32.31,0,1.56,0,3.13,0,4.69v.26a.57.57,0,0,1-1,.42c-.32-.31-.63-.61-.94-.93-.14-.14-.22-.13-.36,0-.29.3-.59.6-.9.89a.57.57,0,0,1-.88,0c-.31-.3-.62-.6-.92-.91-.12-.13-.2-.12-.32,0-.27.28-.56.55-.84.83a.65.65,0,0,1-.75.24.64.64,0,0,1-.35-.68c0-1.59,0-3.18,0-4.77,0-.36,0-.36-.36-.36H41.27c-.6,0-.77.17-.77.77v3a.48.48,0,0,0,.16.39c.71.69,1.42,1.38,2.12,2.09a.6.6,0,0,0,.44.17,16.19,16.19,0,0,1,2.41.09,6.29,6.29,0,0,1,2.52,1c.79.55,1.57,1.11,2.32,1.7a1.7,1.7,0,0,1-.3,2.85,3.31,3.31,0,0,1-.76.22c0,.11.08.14.14.2L51,56.21a1.51,1.51,0,0,1-.21,2.44.23.23,0,0,0-.09.31,1.52,1.52,0,0,1-1.33,2,.91.91,0,0,1-.52,0,.33.33,0,0,0-.49.19.94.94,0,0,1-.09.12c.07.08.15,0,.23,0H59.05c.53,0,.72-.19.72-.71V49.08c0-.11,0-.21,0-.31a.55.55,0,0,1,1.09,0,2.43,2.43,0,0,1,0,.27c0,3.87,0,7.74,0,11.61a1.7,1.7,0,0,1-1.74,1.71c-6,0-12,0-18,0a1.58,1.58,0,0,1-1.72-1.69v-3a.6.6,0,0,0-.12-.41,5.18,5.18,0,0,1-1-3.23.85.85,0,0,0-.29-.68c-1.34-1.3-2.66-2.62-4-3.92a.7.7,0,0,1-.23-.53.48.48,0,0,1,.28-.49.52.52,0,0,1,.61.12l.85.82c.38.38.78.76,1.16,1.15.12.12.21.15.34,0,1-1,2-1.94,2.95-2.89.17-.17.06-.25,0-.36L34,41.44a.84.84,0,0,1-.25-.57.51.51,0,0,1,.79-.43,1.86,1.86,0,0,1,.26.23L39.15,45Zm4.78,4.64H43.09a.49.49,0,0,0-.36.15L39.47,53.2a.41.41,0,0,0-.13.27,4.58,4.58,0,0,0,1.36,3.71C42,58.43,43.27,59.7,44.55,61l.19.18a.44.44,0,0,0,.58,0,.42.42,0,0,0,0-.57.85.85,0,0,0-.16-.17L43.83,59a.54.54,0,0,1,.49-.94.75.75,0,0,1,.37.24l2,2c.06,0,.11.11.18.16a.44.44,0,0,0,.58,0,.47.47,0,0,0,0-.6l-.17-.17-2-2a.62.62,0,0,1-.24-.55.55.55,0,0,1,.38-.44.56.56,0,0,1,.6.16c.78.74,1.55,1.5,2.31,2.27a8.21,8.21,0,0,0,.6.58.43.43,0,0,0,.47.1.42.42,0,0,0,.27-.39c0-.18-.11-.3-.23-.42l-2.68-2.63a1.48,1.48,0,0,1-.25-.31.54.54,0,0,1,.36-.76.64.64,0,0,1,.62.21l2,2a1.25,1.25,0,0,0,.17.16.42.42,0,0,0,.58,0,.4.4,0,0,0,.06-.55,1.79,1.79,0,0,0-.23-.25l-3.84-3.79a.64.64,0,0,1-.12-.89.67.67,0,0,1,.93-.1c.28.17.56.36.84.54l1.1.69a.59.59,0,0,0,.69,0,.62.62,0,0,0,.24-.68.68.68,0,0,0-.3-.39c-.65-.48-1.31-1-2-1.44a5,5,0,0,0-1-.55A5.69,5.69,0,0,0,44.18,49.85Zm8.38-3.67a.31.31,0,0,0,.06-.25c0-1.11,0-2.23,0-3.34,0-.24-.07-.31-.31-.31H48c-.25,0-.32.07-.32.31,0,1.11,0,2.23,0,3.34a.34.34,0,0,0,.05.25l.45-.43a.57.57,0,0,1,.9,0c.31.3.62.6.92.91.12.12.2.12.32,0,.3-.31.61-.61.92-.91a.57.57,0,0,1,.9,0ZM41.87,49.25a.41.41,0,0,0-.07-.11L41,48.31c-.09-.1-.16,0-.24,0l-3,2.95c-.1.1-.1.16,0,.26.26.24.52.49.77.75s.21.11.32,0l3-2.9ZM40.5,58.61v2c0,.45.21.65.68.65H43c.06,0,.14,0,.17,0Z"/><path class="cls-2" d="M55.76,56h1.59c.4,0,.63.19.65.51a.56.56,0,0,1-.6.59c-.48,0-.95,0-1.43,0H54.19c-.43,0-.67-.2-.68-.53a.53.53,0,0,1,.58-.57Z"/><path class="cls-2" d="M56.31,58.12h1.06a.57.57,0,0,1,.63.54.55.55,0,0,1-.61.57c-.73,0-1.47,0-2.2,0a.55.55,0,1,1,0-1.1Z"/><path class="cls-2" d="M53,58.13a.58.58,0,0,1,.56.55.57.57,0,0,1-.56.55.59.59,0,0,1-.56-.55A.59.59,0,0,1,53,58.13Z"/><path class="cls-2" d="M60.32,47.29a.53.53,0,0,1-.55-.54.51.51,0,0,1,.52-.53.53.53,0,0,1,.57.52A.52.52,0,0,1,60.32,47.29Z"/></g></svg>