<svg id="Capa_1" data-name="Capa 1" xmlns="http://www.w3.org/2000/svg" viewBox="0 0 100 100"><defs><style>.cls-1{fill:#264782;}</style></defs><path class="cls-1" d="M51.18,82a26.1,26.1,0,0,0-2.59-1.3Q37,75.13,25.47,69.59c-2-1-1.76-.69-1.76-2.79q0-14.89,0-29.78a1.41,1.41,0,0,1,.91-1.44q8-3.82,16-7.68L50.82,23a1.73,1.73,0,0,1,1.65,0q11,5.31,22,10.59c1.4.67,2.79,1.35,4.2,2A1.4,1.4,0,0,1,79.59,37q0,15.38,0,30.76a1.4,1.4,0,0,1-.93,1.42q-11.41,5.46-22.81,11c-1.25.6-2.54,1.15-3.74,1.85ZM26.81,36.62l.51.27L45.05,45.4c.89.43,1.17.91.89,1.48s-.82.64-1.72.2l-18-8.67c-.63-.31-.63-.31-.63.39q0,14,0,27.93a1.13,1.13,0,0,0,.74,1.19Q38.15,73.59,50,79.32c.67.32.67.32.67-.41v-28a1.08,1.08,0,0,1,0-.18.7.7,0,0,0-.49-.81c-.53-.22-1.05-.49-1.57-.75s-.85-.79-.61-1.3.78-.66,1.45-.36c.49.23,1,.44,1.46.72a1.35,1.35,0,0,0,1.41,0c1.75-.88,3.51-1.72,5.28-2.55A.94.94,0,0,1,59,46.1c.23.49,0,.94-.57,1.27-.14.08-.28.14-.42.21-1.64.79-3.27,1.59-4.92,2.36a.76.76,0,0,0-.5.8q0,14.17,0,28.34c0,.46.11.53.52.32,1.27-.63,2.54-1.23,3.82-1.84l20.19-9.7c.36-.17.64-.32.64-.83q0-14.19,0-28.39c0-.52-.17-.47-.54-.29-2.26,1.1-4.52,2.19-6.8,3.26a.93.93,0,0,0-.62,1c0,3.1,0,6.2,0,9.31a1.35,1.35,0,0,1-.86,1.4C67,54.27,65,55.23,63,56.17c-1,.45-1.55.11-1.63-.94,0-.21,0-.42,0-.63,0-3,0-5.94,0-8.91a.82.82,0,0,0-.55-.88c-1.39-.63-2.76-1.31-4.14-2L35.79,32.77a1,1,0,0,0-1,0c-1.2.59-2.4,1.15-3.61,1.73Zm49.67,0-.63-.32L71,34q-9.44-4.54-18.86-9.09a1,1,0,0,0-1,0c-1.91.94-3.83,1.86-5.74,2.79a1.56,1.56,0,0,0-.72.43l.56.29,8.22,3.94q7.71,3.7,15.41,7.43a1.13,1.13,0,0,0,1.14,0c.85-.43,1.71-.82,2.56-1.24Zm-39-5.1L41,33.21q10.41,5,20.81,10a1,1,0,0,0,1,0c1.26-.63,2.54-1.22,3.81-1.84.17-.09.42-.1.48-.38-.11-.06-.2-.12-.31-.17l-16.68-8-7.17-3.43a.81.81,0,0,0-.77-.12ZM63.3,49.44c0,1.33,0,2.66,0,4,0,.42.09.52.49.32,1.23-.61,2.47-1.2,3.72-1.78a.66.66,0,0,0,.42-.67c0-2.64,0-5.29,0-7.93,0-.4-.09-.52-.5-.32-1.21.6-2.43,1.19-3.66,1.76a.72.72,0,0,0-.47.76C63.31,46.86,63.3,48.15,63.3,49.44Z"/><path class="cls-1" d="M28.47,58.1a5.06,5.06,0,0,1,.53.19l7.11,3.41a1.78,1.78,0,0,1,.3.17A.85.85,0,0,1,36.79,63a.86.86,0,0,1-1.15.49,12,12,0,0,1-1.37-.62L28.22,60a1.86,1.86,0,0,1-.45-.27.85.85,0,0,1-.27-1A.93.93,0,0,1,28.47,58.1Z"/><path class="cls-1" d="M33.21,65a.88.88,0,0,1-1.13.89,6.38,6.38,0,0,1-1-.43c-1-.46-1.95-.93-2.92-1.41-.65-.32-.88-.84-.62-1.34a1,1,0,0,1,1.4-.35c1.23.57,2.44,1.16,3.66,1.75A1,1,0,0,1,33.21,65Z"/></svg>