<svg id="Capa_1" data-name="Capa 1" xmlns="http://www.w3.org/2000/svg" viewBox="0 0 100 100"><defs><style>.cls-1{fill:#1c3f87;}.cls-2{fill:#c3cf19;}</style></defs><ellipse class="cls-1" cx="51.09" cy="52" rx="28.09" ry="29"/><rect class="cls-2" x="49.57" y="55.34" width="8.35" height="1.45"/><rect class="cls-2" x="51.18" y="58.29" width="4.84" height="1.11"/><rect class="cls-2" x="49.07" y="44.99" width="4.89" height="0.9"/><path class="cls-2" d="M61,61.78v-2H59.92v2H47.41l.07-13.38,0,1H51v4.15a.28.28,0,0,0,.28.28h.55a.43.43,0,0,0,.32-.14l1.14-1.15a.54.54,0,0,1,.73,0l1.38,1.17a.63.63,0,0,0,.41.15h.39a.28.28,0,0,0,.28-.29V50.43h-1l0,1.48a.21.21,0,0,1-.35.15l-.93-.82a.62.62,0,0,0-.81,0l-1,.85a.2.2,0,0,1-.33-.15V49.42h7.94v8.41H61.1V48.4H56.44V39H46.53l0,3.93a1,1,0,0,0-.52-.82L39.5,38.2a1.84,1.84,0,0,0-2.53.66h0a1.7,1.7,0,0,0,.62,2.31l6.07,3.54a.92.92,0,0,1,.47.83L44,51.47a.45.45,0,0,0,.45.46h.7a.38.38,0,0,0,.38-.38l-.11-6.47a.87.87,0,0,0-.41-.73L38.18,40.1a.61.61,0,0,1-.17-.86.51.51,0,0,1,.69-.15l7,4.29a1.6,1.6,0,0,1,.4.33.94.94,0,0,1,.22.6l.21,19.91a4.41,4.41,0,0,0-1.19-.41l-.11-10a.39.39,0,0,0-.4-.39h-.42a.38.38,0,0,0-.37.38v10a4.09,4.09,0,1,0,4.67,4.49H61a1.08,1.08,0,0,0,1.08-1.08v-1h2.2v-4.4Zm-3.57.94h2.51v2.52H57.41Zm-3.42,0h2.52v2.52H54Zm-3.34,0h2.52v2.52H50.65Zm-.74-.1v2.52H47.75c-.11-.12-.23-.24-.35-.35V62.62Zm.2-20.25h0V40.43H53v2.19H50.11ZM47.5,40.43h1.57v3.08H54V40.43h1.4l.1,8h-8l0-5.49ZM44.64,71.19a3.37,3.37,0,1,1,0-6.74,3.69,3.69,0,0,1,1,.13l.09,0a3.37,3.37,0,0,1-1,6.58Zm16.23-4.87a.41.41,0,0,1,.11.26v.19a.41.41,0,0,1-.25.37.37.37,0,0,1-.15,0l-11.85,0a3.76,3.76,0,0,0-.3-1H60.85Zm2.5-1.08H60.85V62.72h2.52Z"/><path class="cls-2" d="M44.69,65.92a1.9,1.9,0,1,0,1.89,1.9A1.89,1.89,0,0,0,44.69,65.92Zm0,3.08a1.21,1.21,0,1,1,1.2-1.21A1.21,1.21,0,0,1,44.64,69Z"/></svg>