<svg id="Capa_1" data-name="Capa 1" xmlns="http://www.w3.org/2000/svg" viewBox="0 0 100 100"><defs><style>.cls-1{fill:#264782;}</style></defs><rect class="cls-1" x="48.13" y="50.85" width="14.68" height="2.55"/><rect class="cls-1" x="50.97" y="56.04" width="8.51" height="1.96"/><rect class="cls-1" x="47.27" y="32.64" width="8.59" height="1.57"/><path class="cls-1" d="M68.2,62.17V58.6H66.35v3.57h-22l.11-23.53,0,1.79h6.09v7.3a.49.49,0,0,0,.49.5h1a.82.82,0,0,0,.57-.24l2-2a.94.94,0,0,1,1.28-.06L58.33,48a1.12,1.12,0,0,0,.72.26h.67a.51.51,0,0,0,.51-.51V42.21H58.5l-.07,2.6a.37.37,0,0,1-.62.27l-1.62-1.44a1.11,1.11,0,0,0-1.44,0L53,45.12a.36.36,0,0,1-.59-.27V40.43h14V55.24h2.06V38.64H60.23V22.07H42.79L42.84,29a1.87,1.87,0,0,0-.9-1.44L30.43,20.7A3.23,3.23,0,0,0,26,21.86h0a3,3,0,0,0,1.08,4.06l10.68,6.23a1.64,1.64,0,0,1,.83,1.47L38.39,44a.79.79,0,0,0,.79.81h1.24a.66.66,0,0,0,.67-.67L40.9,32.8a1.56,1.56,0,0,0-.73-1.29L28.11,24.05a1.08,1.08,0,0,1-.31-1.53A.91.91,0,0,1,29,22.27l12.4,7.53a2.69,2.69,0,0,1,.7.6,1.66,1.66,0,0,1,.39,1.05l.37,35a7.41,7.41,0,0,0-2.09-.73L40.6,48.1a.7.7,0,0,0-.71-.68h-.74a.67.67,0,0,0-.65.67V65.68a7.2,7.2,0,1,0,8.21,7.89H68.29a1.91,1.91,0,0,0,1.91-1.9V69.92h3.87V62.17Zm-6.28,1.67h4.43v4.42H61.92Zm-6,0h4.43v4.42H55.91Zm-5.86,0h4.42v4.42H50.05Zm-1.31-.18v4.43h-3.8c-.2-.22-.4-.42-.62-.62l0-3.81ZM49.08,28h.06v-3.4h5v3.84H49.08Zm-4.58-3.4h2.77V30h8.59V24.63h2.47l.17,14h-14l0-9.66Zm-5,54.1a5.94,5.94,0,0,1,0-11.87,5.84,5.84,0,0,1,1.68.25l.16,0a5.93,5.93,0,0,1-1.84,11.57ZM68,70.15a.68.68,0,0,1,.19.47V71a.69.69,0,0,1-.43.65.58.58,0,0,1-.26.06l-20.84.08a7,7,0,0,0-.54-1.82H68Zm4.4-1.89H68V63.84h4.43Z"/><path class="cls-1" d="M39.55,69.47a3.33,3.33,0,1,0,3.34,3.33A3.34,3.34,0,0,0,39.55,69.47Zm-.09,5.4a2.12,2.12,0,1,1,2.12-2.12A2.12,2.12,0,0,1,39.46,74.87Z"/></svg>