<svg id="Capa_1" data-name="Capa 1" xmlns="http://www.w3.org/2000/svg" viewBox="0 0 100 100"><defs><style>.cls-1{fill:#1d3f87;}</style></defs><path class="cls-1" d="M77.66,53l-4.94-7.46a.68.68,0,0,0-.57-.3H66.29a.61.61,0,0,0-.62.6l.14,7.71a.63.63,0,0,0,.64.61H77A.75.75,0,0,0,77.66,53Zm-3.6-1H67.65V47h3.91l2.76,4.5A.32.32,0,0,1,74.06,52Z"/><path class="cls-1" d="M77.85,65.56h3.3a.84.84,0,0,0,.85-.83V54.57a2.47,2.47,0,0,0-.46-1.44L74.2,42.79A1.83,1.83,0,0,0,72.72,42H64.35V35.64A1.38,1.38,0,0,0,63,34.25H27.14a1.58,1.58,0,0,0-1.57,1.59v5.59H17.72a1,1,0,0,0,0,2h7.85v1.74H22.16a1,1,0,0,0,0,2h3.41v1.75H17.72a1,1,0,0,0,0,2h7.85v1.79H22.16a1,1,0,0,0,0,2h3.41v10a.91.91,0,0,0,.9.92h4.79A5.85,5.85,0,0,0,35,70.34H17.74a1,1,0,0,0-1,1h0a1,1,0,0,0,1,1H81a1,1,0,0,0,1-1h0a1,1,0,0,0-1-1H73.74A5.82,5.82,0,0,0,77.85,65.56ZM64.35,43.85h8.31a1.44,1.44,0,0,1,1.2.64l5.94,8.75a2.15,2.15,0,0,1,.38,1.22v8.61a.69.69,0,0,1-.69.7H77.86a5.66,5.66,0,0,0-11.25,0H64.35ZM31.29,63.77H27.91V54.61h7.3a1,1,0,0,0,0-2h-7.3V50.84h2.86a1,1,0,0,0,0-2H27.91V47.12h7.3a1,1,0,0,0,0-2h-7.3V43.41h2.86a1,1,0,0,0,0-2H27.91V36.32H62.47V63.77h-20a5.65,5.65,0,0,0-11.2,0Zm1.77,1.79a4,4,0,0,1-.11-.91,3.6,3.6,0,0,1,.1-.88,3.93,3.93,0,0,1,7.69,0,4.17,4.17,0,0,1,.09.88,4.61,4.61,0,0,1-.1.91,3.92,3.92,0,0,1-7.67,0Zm5.73,4.78a5.86,5.86,0,0,0,3.74-4.78H66.62a5.85,5.85,0,0,0,4.11,4.78ZM76,65.56a3.93,3.93,0,0,1-7.61,0,4,4,0,0,1-.14-1,4.53,4.53,0,0,1,.07-.74,3.93,3.93,0,0,1,7.75,0,4.53,4.53,0,0,1,.07.74A4,4,0,0,1,76,65.56Z"/></svg>