<svg id="Capa_1" data-name="Capa 1" xmlns="http://www.w3.org/2000/svg" viewBox="0 0 100 100"><defs><style>.cls-1{fill:#1d3f87;}.cls-2{fill:#c3cf19;}</style></defs><circle class="cls-1" cx="48.56" cy="49.63" r="34.44"/><path class="cls-2" d="M69.65,51.46,66,45.92a.51.51,0,0,0-.43-.22H61.2a.46.46,0,0,0-.46.45l.11,5.72a.46.46,0,0,0,.47.45h7.84A.56.56,0,0,0,69.65,51.46ZM67,50.73H62.21V47h2.91l2,3.35A.24.24,0,0,1,67,50.73Z"/><path class="cls-2" d="M69.79,60.8h2.45a.62.62,0,0,0,.63-.61V52.64a1.86,1.86,0,0,0-.34-1.07l-5.45-7.68a1.35,1.35,0,0,0-1.1-.56H59.76V38.58a1,1,0,0,0-1-1H32.12A1.18,1.18,0,0,0,31,38.73v4.15H25.12a.74.74,0,0,0,0,1.47H31v1.29H28.42a.74.74,0,0,0,0,1.47H31V48.4H25.12a.74.74,0,0,0,0,1.47H31V51.2H28.42a.74.74,0,0,0,0,1.47H31v7.45a.67.67,0,0,0,.67.68h3.55A4.39,4.39,0,0,0,38,64.36H25.14a.74.74,0,0,0-.74.75h0a.74.74,0,0,0,.74.75h47a.74.74,0,0,0,.74-.75h0a.74.74,0,0,0-.74-.75H66.74A4.36,4.36,0,0,0,69.79,60.8Zm-10-16.12h6.17a1.06,1.06,0,0,1,.89.47l4.42,6.5a1.65,1.65,0,0,1,.28.91V59a.51.51,0,0,1-.51.52H69.79a4.2,4.2,0,0,0-8.35,0H59.76ZM35.21,59.47H32.7v-6.8h5.42a.74.74,0,0,0,0-1.47H32.7V49.87h2.12a.74.74,0,0,0,0-1.47H32.7V47.11h5.42a.74.74,0,0,0,0-1.47H32.7V44.35h2.12a.74.74,0,0,0,0-1.47H32.7v-3.8H58.37V59.47H43.53a4.2,4.2,0,0,0-8.32,0Zm1.31,1.33a3,3,0,0,1-.08-.67,2.84,2.84,0,0,1,.07-.66,2.92,2.92,0,0,1,5.71,0,2.84,2.84,0,0,1,.07.66,3,3,0,0,1-.08.67,2.91,2.91,0,0,1-5.69,0Zm4.26,3.56a4.37,4.37,0,0,0,2.77-3.56h17.9a4.33,4.33,0,0,0,3,3.56ZM68.44,60.8a2.91,2.91,0,0,1-5.65,0,3.25,3.25,0,0,1-.1-.77,3.43,3.43,0,0,1,.05-.56,2.92,2.92,0,0,1,5.75,0,2.6,2.6,0,0,1,.06.56A2.81,2.81,0,0,1,68.44,60.8Z"/></svg>