<svg xmlns="http://www.w3.org/2000/svg" viewBox="0 0 100 100"><defs><style>.cls-1{fill:#ae5cfd;}.cls-2{fill:#f8b7d3;}.cls-3{fill:#00befe;}.cls-4{fill:#72e32f;}.cls-5{fill:#71e131;}.cls-6{fill:#dff4fd;}.cls-7{fill:#a0b8d2;}.cls-8{fill:#0091fe;}.cls-9{fill:#4cc724;}.cls-10{fill:#0b3e69;}</style></defs><g id="Capa_2" data-name="Capa 2"><g id="oduIue.tif"><path class="cls-1" d="M60.82,52.62c.32,0,.65,0,1,.11a4.53,4.53,0,0,1,3.05,6.68c-.71,1.38-1.48,2.73-2.22,4.09a1.71,1.71,0,0,0,1,2.7,2.43,2.43,0,0,1,.37.16,4.42,4.42,0,0,1,2.3,2.54c.23.53.52.63,1,.4a16,16,0,0,1,1.51-.55,2.39,2.39,0,0,0,1.73-2.28,4.35,4.35,0,0,1,2.9-4c.38-.16.42-.34.29-.7a25.49,25.49,0,0,0-5.85-9.28,24.5,24.5,0,0,0-7.61-5.31c-.72-.32-.7-.32-.94.46a41.22,41.22,0,0,0-.95,4.21c-.14.8.15,1.1,1,1A7.58,7.58,0,0,1,60.82,52.62Z"/><path class="cls-2" d="M63.92,33.65c-.1.17-.4.06-.6.06H57.9c-1.87,0-3.73,0-5.59,0-.44,0-.55-.14-.55-.56,0-2.37,0-4.73,0-7.1,0-.48.16-.57.59-.56,1.87,0,3.73,0,5.6,0h5.53c.16,0,.39-.1.47.1s-.15.25-.24.37c-.75,1-1.5,2-2.27,3a.81.81,0,0,0,0,1.17c.76.94,1.47,1.92,2.18,2.9C63.74,33.26,64.05,33.41,63.92,33.65Z"/><path class="cls-3" d="M48.86,45.4c-.15-.39,0-.49.39-.47a28.86,28.86,0,0,1,6,.63,1.87,1.87,0,0,0,.34,0c.73.21,1.46.42,2.2.61.38.1.55.25.4.68A40.6,40.6,0,0,0,57,51.75a2,2,0,0,0,2.46,2.45,5,5,0,0,1,2.1-.1,3.17,3.17,0,0,1,1.95,4.8c-.71,1.34-1.42,2.69-2.19,4s-.46,2.54.38,3.88a1.64,1.64,0,0,0,1.07.64A3.08,3.08,0,0,1,65,69.31a4.17,4.17,0,0,0,.33.67,1.66,1.66,0,0,0,2,.8,21.16,21.16,0,0,0,2.69-1,3.54,3.54,0,0,0,2-3.22,3,3,0,0,1,1.94-2.76c.33-.14.48-.08.56.28a25.78,25.78,0,0,1,.67,8.75,29.79,29.79,0,0,1-.72,4.08c-.09.38-.27.47-.62.5a7.48,7.48,0,0,1-4.64-1.28,12.18,12.18,0,0,0-13.56-.42,11.17,11.17,0,0,1-11.44.07,13.9,13.9,0,0,0-6.86-1.89,11.81,11.81,0,0,0-6.35,2,8.73,8.73,0,0,1-4,1.57h-.06c-1.36.19-1.62,0-1.91-1.3a25.87,25.87,0,0,1,.83-14.32,40,40,0,0,1,1.81-4.07,13.25,13.25,0,0,1,.95-1.44c.06-.07.14-.19.2-.19.89,0,1.71-.44,2.62-.28a2.45,2.45,0,0,1,1.65.95,14.45,14.45,0,0,0,2.41,2.47,3.31,3.31,0,0,0,1.39.78,2.55,2.55,0,0,1,2,2.08c0,.06,0,.11,0,.17a10.93,10.93,0,0,0,3,5.56,6.19,6.19,0,0,1,1.71,3.8c.09.74.26,1.47.42,2.21s.59,1.19,1.25,1.21a1.55,1.55,0,0,0,1.51-1.2,6,6,0,0,1,1.54-3.22,5,5,0,0,0,.79-2.2A4.49,4.49,0,0,1,51,65.51a14.93,14.93,0,0,0,1.4-1.12,1.39,1.39,0,0,0,.2-2.13c-1.07-1.22-2.08-2.48-3.08-3.74a3.09,3.09,0,0,0-2-1.21,6.78,6.78,0,0,1-2.58-1,10,10,0,0,0-1-.53,2.46,2.46,0,0,0-2.12,0c-.43.21-.85.44-1.27.67a1.68,1.68,0,0,1-2.5-.52c-.41-.56-.74-1.17-1.15-1.73a2,2,0,0,1,1.64-2.94,8.13,8.13,0,0,1,1.78.14A2.53,2.53,0,0,0,43,50.12a1.78,1.78,0,0,1,1.53-.85c.5,0,1,0,1.5,0a1.5,1.5,0,0,0,1.21-.44C48.08,47.86,49.08,46.91,48.86,45.4Z"/><path class="cls-4" d="M40.18,46.77c1.21-.36,2.4-.79,3.62-1.11s2.19-.38,3.28-.56c.31-.05.27.21.42.28.18,1-.49,1.69-1.09,2.36-.33.36-.8.21-1.21.17a3.39,3.39,0,0,0-3.42,1.55,1.12,1.12,0,0,1-1.19.58,18.45,18.45,0,0,0-2-.14,3.38,3.38,0,0,0-3.41,2.91,2.86,2.86,0,0,0,.39,2c.45.73.92,1.46,1.44,2.14a2.92,2.92,0,0,0,3.75.89c.47-.22.91-.5,1.37-.74a1.41,1.41,0,0,1,1.38,0c.48.26,1,.51,1.41.8a4.54,4.54,0,0,0,2.07.77,2.17,2.17,0,0,1,1.59.93,38.13,38.13,0,0,0,2.75,3.32c.23.25.2.39-.06.59-.57.44-1.1.91-1.66,1.34A4.41,4.41,0,0,0,48,67.22c-.06.22-.13.44-.18.67a6.54,6.54,0,0,1-1.37,2.93,3.82,3.82,0,0,0-1,2.31,2.22,2.22,0,0,1-.14.47c-.27-1.37-.52-2.6-.75-3.82a3.64,3.64,0,0,0-.73-1.61c-.75-1-1.5-1.91-2.27-2.84a3.93,3.93,0,0,1-.8-1.51c-.23-.81-.47-1.62-.73-2.43a3.44,3.44,0,0,0-2.25-2.45,6.86,6.86,0,0,1-3.28-2.52,4.7,4.7,0,0,0-3-2,5.22,5.22,0,0,0-1.83.16c.74-.8,1.33-1.5,2-2.14a28,28,0,0,1,6.44-4.77A20.47,20.47,0,0,0,40.18,46.77Z"/><path class="cls-5" d="M60.82,52.62a7.58,7.58,0,0,0-1.43.2c-.82.14-1.11-.16-1-1a41.22,41.22,0,0,1,.95-4.21c.24-.78.22-.78.94-.46a24.5,24.5,0,0,1,7.61,5.31,25.49,25.49,0,0,1,5.85,9.28c.13.36.09.54-.29.7a4.35,4.35,0,0,0-2.9,4,2.39,2.39,0,0,1-1.73,2.28,16,16,0,0,0-1.51.55c-.51.23-.8.13-1-.4A4.42,4.42,0,0,0,64,66.36a2.43,2.43,0,0,0-.37-.16,1.71,1.71,0,0,1-1-2.7c.74-1.36,1.51-2.71,2.22-4.09a4.53,4.53,0,0,0-3.05-6.68C61.47,52.66,61.14,52.66,60.82,52.62Z"/><path class="cls-6" d="M58,25.52h5.53c.16,0,.39-.1.47.1s-.15.25-.24.37c-.75,1-1.5,2-2.27,3a.81.81,0,0,0,0,1.17c.76.94,1.47,1.92,2.18,2.9.12.17.43.32.3.56s-.4.06-.6.06H57.9c-1.87,0-3.73,0-5.59,0-.44,0-.55-.14-.55-.56,0-2.37,0-4.73,0-7.1,0-.48.16-.57.59-.56C54.22,25.53,56.08,25.52,58,25.52Z"/></g><path class="cls-7" d="M54.59,25.52l.3,8.22h-2.6a.53.53,0,0,1-.53-.53V26a.45.45,0,0,1,.45-.45Z"/><path class="cls-8" d="M31.43,55.89s-6,14.63-1.73,20.68l-1.62.7c-.32.08-1.08,0-1.39.15-.68.25-1.38.26-1.61-.5a26.61,26.61,0,0,1,3.7-20.8Z"/><path class="cls-9" d="M31.43,54.39s5.91-7,14.11-9.06A26,26,0,0,0,29.7,54.39S29.12,55,31.43,54.39Z"/><g id="oduIue.tif-2" data-name="oduIue.tif"><path class="cls-10" d="M51.54,21c.42.34.84.67.82,1.31a1.24,1.24,0,0,1-.37.93.65.65,0,0,0-.16.79c.11.28.39.2.61.2H65.37a.82.82,0,0,1,.84.38c.19.36,0,.64-.22.9-.92,1.25-1.85,2.5-2.81,3.74a.59.59,0,0,0,0,.85c.94,1.22,1.84,2.47,2.76,3.7.23.3.47.58.25,1s-.56.41-.94.41H52.72c-.95,0-.95,0-.95.95q0,3.36,0,6.7c0,.83,0,.82.83.91A27,27,0,0,1,76.59,67c.1.7.17,1.41.25,2.11v3a3.48,3.48,0,0,0-.1.44,31.31,31.31,0,0,1-.76,4.7c-.21,1-.52,1.76-1.68,1.79H72.57a15.24,15.24,0,0,1-5.47-2.36,9.68,9.68,0,0,0-5.22-1.19,12.34,12.34,0,0,0-5.83,1.83,12.83,12.83,0,0,1-9.5,1.12,23.22,23.22,0,0,1-4.27-1.89,10.28,10.28,0,0,0-9.94.39A13.7,13.7,0,0,1,27.51,79H25.2c-.79-.09-1.06-.61-1.21-1.32-.25-1.11-.55-2.2-.69-3.33-.09-.8-.2-1.6-.3-2.4V69.06c.1-.76.21-1.51.31-2.27a26.27,26.27,0,0,1,6.6-14.18,26.54,26.54,0,0,1,15.44-8.56,22,22,0,0,1,4.36-.4c.5,0,.67-.16.67-.66q0-9.56,0-19.11a1.09,1.09,0,0,0-.13-.61c-.68-1.1-.59-1.53.48-2.27Zm23.8,49.45a23.16,23.16,0,0,0-.73-6c-.15-.61-.27-.67-.83-.36a3.1,3.1,0,0,0-1.68,2.71,3.59,3.59,0,0,1-2.48,3.36c-.7.26-1.41.53-2.12.76a1.75,1.75,0,0,1-2.12-.84,3.17,3.17,0,0,1-.21-.41,3.31,3.31,0,0,0-2.39-2.15,1.59,1.59,0,0,1-1.06-.74,3.59,3.59,0,0,1-.15-4,46.37,46.37,0,0,0,2.24-4.17,3,3,0,0,0-1.51-4.12,3.7,3.7,0,0,0-2.48-.15,2.09,2.09,0,0,1-2.67-2.54,34.27,34.27,0,0,1,1.07-4.61c.15-.48,0-.68-.43-.84A28.29,28.29,0,0,0,49.72,45c-.54,0-.74.14-.73.72a3.46,3.46,0,0,1-3.71,3.65,2.5,2.5,0,0,0-2.41,1.15,2.27,2.27,0,0,1-2.36,1,11.2,11.2,0,0,0-1.83-.15A1.93,1.93,0,0,0,37,54.35a17.7,17.7,0,0,0,1.18,1.78,1.64,1.64,0,0,0,2.25.49c.46-.24.91-.51,1.38-.73a2.57,2.57,0,0,1,2.28,0c.38.18.76.38,1.12.59a6.16,6.16,0,0,0,2.28.92,3.31,3.31,0,0,1,2.24,1.31c1,1.26,2,2.47,3,3.67a1.38,1.38,0,0,1-.17,2.13,14.22,14.22,0,0,1-1.49,1.2,4.12,4.12,0,0,0-1.78,2.66,6.93,6.93,0,0,1-1.59,3.41A2.82,2.82,0,0,0,47,73.5a2,2,0,0,1-.3.93,1.63,1.63,0,0,1-1.5.79,1.34,1.34,0,0,1-1.11-1.12,10.76,10.76,0,0,1-.31-1.58,8.22,8.22,0,0,0-2.36-5.19,8.19,8.19,0,0,1-2.23-4.16c-.1-.47-.29-.92-.43-1.38a2.1,2.1,0,0,0-1.49-1.48,5.71,5.71,0,0,1-2.43-1.51,14.42,14.42,0,0,1-1.75-1.91A2.61,2.61,0,0,0,31.6,56c-.77-.18-1.47.2-2.22.22a.94.94,0,0,0-.87.54c-.41.74-.87,1.46-1.25,2.21a25.74,25.74,0,0,0-2,18,.67.67,0,0,0,.71.58,6.58,6.58,0,0,0,3.57-.73c.7-.38,1.38-.77,2.06-1.18a11.74,11.74,0,0,1,9.19-1.2A20.1,20.1,0,0,1,45,76.23a11.49,11.49,0,0,0,8.54.59,25.51,25.51,0,0,0,3.7-1.75,12.1,12.1,0,0,1,12.08,1.15,7.57,7.57,0,0,0,4.48,1.29c.45,0,.68-.15.8-.62A24.76,24.76,0,0,0,75.34,70.45Zm-29.9,2.89A7.58,7.58,0,0,1,47.22,70a1.92,1.92,0,0,0,.32-.73c.18-.57.35-1.14.49-1.72a4.7,4.7,0,0,1,1.8-2.68c.52-.4,1-.82,1.53-1.24.19-.15.33-.33.1-.57-1-1.09-1.92-2.31-2.87-3.47a2.06,2.06,0,0,0-1.48-.8,3.24,3.24,0,0,1-1.63-.52c-.52-.33-1.07-.61-1.6-.92a1.63,1.63,0,0,0-1.8,0c-.36.22-.74.42-1.12.61a3,3,0,0,1-4-1c-.39-.57-.78-1.15-1.15-1.73a3.09,3.09,0,0,1-.2-3.34,3.39,3.39,0,0,1,3-1.87c.73,0,1.45.13,2.18.14a1.06,1.06,0,0,0,1-.51A3.45,3.45,0,0,1,45.39,48a2.32,2.32,0,0,0,2.21-2.26c-.05-.38-.22-.55-.62-.48-.68.11-1.37.17-2,.31a25.39,25.39,0,0,0-14,8,3.56,3.56,0,0,0-.77,1,4.37,4.37,0,0,1,1.51-.08,4.15,4.15,0,0,1,2.78,1.7,7.55,7.55,0,0,0,3.61,2.83,3.27,3.27,0,0,1,2,2.14c.26.76.49,1.54.71,2.32a5.06,5.06,0,0,0,.92,1.91c.55.64,1,1.34,1.6,2A6.34,6.34,0,0,1,45,71C45.09,71.76,45.29,72.55,45.44,73.34Zm15.22-20.6a4.59,4.59,0,0,1,4.9,4.38,7.31,7.31,0,0,1-1.27,3.72c-.53,1-1.12,2-1.65,3a1.68,1.68,0,0,0,1,2.37,4.35,4.35,0,0,1,2.06,1.41,5.51,5.51,0,0,1,.71,1.19c.38.76.42.77,1.19.5.29-.1.57-.24.87-.32a2.78,2.78,0,0,0,2.27-2.74,4.18,4.18,0,0,1,2.77-3.67c.46-.19.5-.39.34-.81A25.47,25.47,0,0,0,60.21,47.23c-.38-.18-.5-.07-.61.29a35.67,35.67,0,0,0-1,4.44c-.12.75.14,1,.9.94A9.43,9.43,0,0,1,60.66,52.74ZM58,25.62H52.49c-.44,0-.61.15-.61.6q0,3.5,0,7c0,.44.15.62.6.62h11.1c.14,0,.33.06.42-.11s-.08-.28-.17-.39c-.72-1-1.42-2-2.19-2.91a1,1,0,0,1,0-1.42c.71-.9,1.38-1.81,2.05-2.73.12-.16.4-.3.29-.52s-.42-.11-.64-.11Z"/></g></g></svg>