<svg id="Capa_1" data-name="Capa 1" xmlns="http://www.w3.org/2000/svg" viewBox="0 0 100 100"><defs><style>.cls-1{fill:#1c3f87;}.cls-2{fill:#c3cf19;}</style></defs><ellipse class="cls-1" cx="50.5" cy="50.83" rx="29.5" ry="30.45"/><path class="cls-2" d="M50.26,66.05A11.13,11.13,0,0,0,49,65.4L37.46,59.87c-1-.48-.88-.35-.88-1.4q0-7.41,0-14.82a.71.71,0,0,1,.46-.72l8-3.82c1.69-.81,3.39-1.62,5.08-2.45a.91.91,0,0,1,.82,0c3.65,1.77,7.31,3.52,11,5.28.7.33,1.39.67,2.09,1a.71.71,0,0,1,.46.72q0,7.65,0,15.31a.7.7,0,0,1-.47.71L52.58,65.12c-.62.31-1.26.58-1.86.93ZM38.13,43.45l.25.13,8.83,4.24c.44.21.58.45.44.74s-.41.31-.86.1l-9-4.32c-.32-.15-.32-.15-.32.2q0,6.95,0,13.9a.55.55,0,0,0,.37.59l11.83,5.68c.34.16.34.16.34-.2V50.57s0-.06,0-.08a.36.36,0,0,0-.25-.41c-.26-.11-.52-.24-.78-.37s-.43-.4-.3-.65.39-.33.72-.18a6.91,6.91,0,0,1,.72.36.67.67,0,0,0,.71,0c.87-.43,1.74-.85,2.63-1.26a.46.46,0,0,1,.68.19c.12.25,0,.47-.28.63l-.21.1c-.82.4-1.63.8-2.45,1.18a.39.39,0,0,0-.25.4q0,7.07,0,14.11c0,.23.06.26.26.16l1.9-.92L63.18,59c.17-.08.32-.16.32-.41q0-7.06,0-14.14c0-.26-.08-.23-.26-.14l-3.39,1.62a.47.47,0,0,0-.31.51c0,1.54,0,3.09,0,4.64a.69.69,0,0,1-.43.7l-3,1.4c-.47.23-.77.06-.81-.46,0-.11,0-.21,0-.32,0-1.48,0-3,0-4.43a.41.41,0,0,0-.28-.44c-.69-.32-1.37-.66-2.06-1l-10.41-5a.5.5,0,0,0-.49,0l-1.8.86Zm24.73,0-.32-.16-2.42-1.16-9.39-4.52a.48.48,0,0,0-.49,0L47.38,39c-.12.06-.26.08-.36.21l.28.15,4.09,2L59.07,45a.58.58,0,0,0,.57,0l1.27-.61ZM43.44,40.91l1.76.84,10.36,5a.53.53,0,0,0,.49,0c.63-.32,1.27-.61,1.9-.92.08,0,.21,0,.23-.19L58,45.54l-8.3-4-3.58-1.71a.37.37,0,0,0-.38-.05Zm12.85,8.92c0,.67,0,1.33,0,2,0,.21,0,.26.24.16l1.85-.89a.31.31,0,0,0,.21-.33V46.81c0-.2,0-.26-.24-.16l-1.83.88a.36.36,0,0,0-.23.38C56.3,48.55,56.29,49.19,56.29,49.83Z"/><path class="cls-2" d="M39,54.14c.07,0,.17,0,.27.1l3.53,1.7.16.08a.44.44,0,0,1,.19.57.45.45,0,0,1-.58.25c-.23-.09-.46-.21-.68-.31l-3-1.46-.22-.13a.43.43,0,0,1-.13-.5A.46.46,0,0,1,39,54.14Z"/><path class="cls-2" d="M41.31,57.59a.44.44,0,0,1-.56.44,3.16,3.16,0,0,1-.5-.22l-1.46-.7c-.32-.16-.43-.42-.31-.67a.5.5,0,0,1,.7-.17c.61.28,1.21.58,1.82.87A.48.48,0,0,1,41.31,57.59Z"/></svg>