<svg id="Capa_1" data-name="Capa 1" xmlns="http://www.w3.org/2000/svg" viewBox="0 0 100 100"><defs><style>.cls-1{fill:#c3cf19;}</style></defs><rect class="cls-1" x="48.91" y="50.97" width="17.14" height="2.98"/><rect class="cls-1" x="52.22" y="57.03" width="9.93" height="2.28"/><rect class="cls-1" x="47.9" y="29.71" width="10.03" height="1.84"/><path class="cls-1" d="M72.33,64.19V60H70.17v4.18H44.49l.12-27.47.06,2.08h7.1v8.54a.58.58,0,0,0,.58.57h1.11a.93.93,0,0,0,.67-.28l2.33-2.37A1.1,1.1,0,0,1,58,45.2l2.85,2.4a1.28,1.28,0,0,0,.84.31h.79a.59.59,0,0,0,.59-.59V40.89H61l-.08,3a.44.44,0,0,1-.73.32l-1.89-1.69a1.29,1.29,0,0,0-1.68,0l-2.09,1.76a.42.42,0,0,1-.68-.33V38.8H70.17V56.09h2.41V36.72H63V17.38H42.66l.07,8.06a2.17,2.17,0,0,0-1.06-1.68l-13.43-8a3.77,3.77,0,0,0-5.19,1.36h0a3.48,3.48,0,0,0,1.26,4.74l12.47,7.27a1.92,1.92,0,0,1,1,1.72L37.53,43a.92.92,0,0,0,.93.94h1.45a.77.77,0,0,0,.77-.79l-.22-13.27a1.8,1.8,0,0,0-.85-1.51L25.53,19.68a1.25,1.25,0,0,1-.36-1.78,1.07,1.07,0,0,1,1.42-.29L41.08,26.4a3.38,3.38,0,0,1,.81.7,1.88,1.88,0,0,1,.45,1.22l.44,40.89a8.56,8.56,0,0,0-2.45-.84l-.22-20.6a.82.82,0,0,0-.83-.8l-.86,0a.76.76,0,0,0-.75.77V68.28a8.41,8.41,0,1,0,9.58,9.22H72.44a2.22,2.22,0,0,0,2.22-2.22v-2h4.52v-9ZM65,66.13h5.17V71.3H65Zm-7,0h5.17V71.3H58Zm-6.85,0h5.17V71.3H51.14Zm-1.52-.2v5.16H45.18a9.63,9.63,0,0,0-.72-.71l0-4.45Zm.4-41.6h.06v-4h5.86v4.49H50Zm-5.35-4H47.9v6.32h10V20.36h2.88L61,36.72H44.61l.06-11.28ZM38.78,83.52a6.93,6.93,0,0,1,0-13.85,7,7,0,0,1,2,.28l.19.06a6.93,6.93,0,0,1-2.15,13.51Zm33.33-10a.76.76,0,0,1,.22.54v.39a.84.84,0,0,1-.5.76.82.82,0,0,1-.31.07l-24.32.09a8.46,8.46,0,0,0-.63-2.13H72.08Zm5.13-2.21H72.08V66.13h5.16Z"/><path class="cls-1" d="M38.89,72.7a3.89,3.89,0,1,0,3.89,3.89A3.89,3.89,0,0,0,38.89,72.7ZM38.78,79a2.48,2.48,0,1,1,2.48-2.48A2.48,2.48,0,0,1,38.78,79Z"/></svg>