<svg id="Capa_1" data-name="Capa 1" xmlns="http://www.w3.org/2000/svg" viewBox="0 0 100 100"><defs><style>.cls-1{fill:#c3cf19;}</style></defs><path class="cls-1" d="M82.07,52.56l-5.63-8.49a.79.79,0,0,0-.65-.34H69.12a.69.69,0,0,0-.7.69l.16,8.77a.72.72,0,0,0,.73.69h12A.86.86,0,0,0,82.07,52.56ZM78,51.44H70.67V45.77h4.45l3.14,5.12A.36.36,0,0,1,78,51.44Z"/><path class="cls-1" d="M82.28,66.88H86a1,1,0,0,0,1-.94V54.37a2.79,2.79,0,0,0-.53-1.64L78.12,41a2.05,2.05,0,0,0-1.68-.86H66.92V32.84a1.58,1.58,0,0,0-1.57-1.59H24.57a1.81,1.81,0,0,0-1.79,1.81v6.36H13.85a1.13,1.13,0,0,0,0,2.25h8.93v2H18.91a1.13,1.13,0,0,0,0,2.25h3.87v2H13.85a1.13,1.13,0,0,0,0,2.25h8.93v2H18.91a1.13,1.13,0,0,0,0,2.25h3.87V65.83a1,1,0,0,0,1,1h5.45a6.67,6.67,0,0,0,4.25,5.44H13.88a1.15,1.15,0,0,0-1.14,1.15h0a1.15,1.15,0,0,0,1.14,1.16h72A1.15,1.15,0,0,0,87,73.47h0a1.15,1.15,0,0,0-1.14-1.15H77.6A6.64,6.64,0,0,0,82.28,66.88ZM66.92,42.17h9.45a1.64,1.64,0,0,1,1.36.73l6.77,10a2.45,2.45,0,0,1,.43,1.39V64a.79.79,0,0,1-.78.8H82.29a6.44,6.44,0,0,0-12.8,0H66.92ZM29.3,64.84H25.45V54.42h8.31a1.13,1.13,0,0,0,0-2.25H25.45v-2H28.7a1.13,1.13,0,0,0,0-2.25H25.45v-2h8.31a1.13,1.13,0,0,0,0-2.25H25.45v-2H28.7a1.13,1.13,0,0,0,0-2.25H25.45V33.6H64.78V64.84H42.05a6.43,6.43,0,0,0-12.75,0Zm2,2a5.1,5.1,0,0,1-.12-1,4.15,4.15,0,0,1,.12-1,4.46,4.46,0,0,1,8.74,0,4.15,4.15,0,0,1,.12,1,4.48,4.48,0,0,1-8.86,1Zm6.53,5.44a6.65,6.65,0,0,0,4.25-5.44H69.5a6.65,6.65,0,0,0,4.67,5.44Zm42.39-5.44a4.47,4.47,0,0,1-8.66,0,4.68,4.68,0,0,1-.16-1.19,4.8,4.8,0,0,1,.08-.85,4.47,4.47,0,0,1,8.81,0,4.8,4.8,0,0,1,.08.85A4.68,4.68,0,0,1,80.22,66.88Z"/></svg>