<svg id="Capa_1" data-name="Capa 1" xmlns="http://www.w3.org/2000/svg" viewBox="0 0 100 100"><defs><style>.cls-1{fill:#c3cf19;}.cls-2{fill:#264782;}</style></defs><ellipse class="cls-1" cx="49.33" cy="50.14" rx="27.26" ry="28.14"/><path class="cls-2" d="M49.11,64.2a13.25,13.25,0,0,0-1.19-.6L37.27,58.49c-.92-.44-.8-.32-.8-1.29,0-4.56,0-9.13,0-13.7a.65.65,0,0,1,.42-.66l7.37-3.53,4.69-2.26a.79.79,0,0,1,.76,0l10.13,4.87,1.93.92a.63.63,0,0,1,.42.66q0,7.08,0,14.16a.65.65,0,0,1-.43.65l-10.49,5c-.58.28-1.17.53-1.73.85ZM37.89,43.32l.23.12,8.17,3.92c.4.19.53.41.4.68s-.37.29-.79.09l-8.3-4c-.29-.14-.29-.14-.29.18q0,6.43,0,12.86a.51.51,0,0,0,.34.54c3.65,1.74,7.29,3.5,10.93,5.25.31.15.31.15.31-.19v-13a.32.32,0,0,0-.22-.37l-.73-.35c-.29-.15-.39-.36-.28-.6s.36-.3.67-.16a5.21,5.21,0,0,1,.67.33.61.61,0,0,0,.65,0c.8-.4,1.62-.79,2.43-1.17a.44.44,0,0,1,.64.18c.1.23,0,.43-.27.58l-.19.1L50,49.45a.34.34,0,0,0-.23.37v13c0,.21.05.24.24.15l1.75-.85L61,57.69c.17-.08.3-.15.3-.38q0-6.53,0-13.06c0-.24-.08-.22-.25-.14-1,.51-2.08,1-3.13,1.5a.45.45,0,0,0-.29.47c0,1.43,0,2.86,0,4.29a.61.61,0,0,1-.39.64l-2.73,1.3c-.44.21-.71,0-.75-.43a2.8,2.8,0,0,1,0-.29c0-1.37,0-2.73,0-4.1a.37.37,0,0,0-.25-.4l-1.91-.91L42,41.55a.47.47,0,0,0-.46,0l-1.66.8Zm22.86,0-.29-.15L58.22,42.1l-8.68-4.18a.45.45,0,0,0-.45,0l-2.64,1.28a.78.78,0,0,0-.34.19l.26.14,3.78,1.81c2.37,1.14,4.74,2.27,7.1,3.42a.51.51,0,0,0,.52,0c.39-.2.79-.38,1.18-.57ZM42.81,41l1.62.78L54,46.36a.48.48,0,0,0,.45,0l1.75-.85c.08,0,.2,0,.22-.18l-.14-.08-7.68-3.69L45.31,40a.39.39,0,0,0-.35,0Zm11.87,8.25c0,.61,0,1.22,0,1.83,0,.19,0,.24.23.15l1.7-.82a.3.3,0,0,0,.2-.31V46.43c0-.19,0-.25-.23-.15l-1.68.81a.33.33,0,0,0-.22.35C54.69,48,54.68,48.62,54.68,49.22Z"/><path class="cls-2" d="M38.65,53.2l.25.09,3.27,1.57.14.07a.41.41,0,0,1,.18.53.41.41,0,0,1-.53.23c-.22-.08-.43-.19-.64-.29l-2.78-1.34a.92.92,0,0,1-.21-.13.37.37,0,0,1-.12-.45A.43.43,0,0,1,38.65,53.2Z"/><path class="cls-2" d="M40.84,56.38a.4.4,0,0,1-.52.41,3.15,3.15,0,0,1-.47-.2L38.51,56c-.3-.15-.41-.39-.29-.62a.45.45,0,0,1,.65-.16l1.68.8A.47.47,0,0,1,40.84,56.38Z"/></svg>