<svg xmlns="http://www.w3.org/2000/svg" viewBox="0 0 100 100"><defs><style>.cls-1{fill:#c3cf19;}.cls-2{fill:#264782;}</style></defs><g id="Capa_1" data-name="Capa 1"><ellipse class="cls-1" cx="49" cy="50.9" rx="28" ry="28.9"/></g><g id="Capa_2" data-name="Capa 2"><path class="cls-2" d="M39.81,46.54v-.9c0-.58,0-1.17,0-1.75a1.68,1.68,0,0,1,1.71-1.68h8.24c3.78,0,7.56,0,11.34,0A1.79,1.79,0,0,1,63,44.06c0,.6,0,1.21,0,1.81a.59.59,0,0,1-.59.66c-.37,0-.59-.25-.6-.67V44.14c0-.57-.2-.77-.77-.77-1.8,0-3.59,0-5.38,0-.26,0-.35.07-.35.33,0,1.69,0,3.38,0,5.07v.28a.61.61,0,0,1-.38.59.6.6,0,0,1-.68-.14c-.34-.33-.69-.66-1-1-.15-.16-.25-.14-.39,0-.32.33-.64.64-1,1a.62.62,0,0,1-1,0c-.33-.32-.67-.64-1-1-.13-.14-.22-.14-.34,0-.3.3-.61.59-.91.9a.72.72,0,0,1-.82.25c-.32-.14-.37-.42-.37-.73,0-1.72,0-3.44,0-5.16,0-.38,0-.38-.39-.38H41.83c-.65,0-.83.18-.83.83v3.27a.52.52,0,0,0,.17.42l2.29,2.25a.61.61,0,0,0,.48.19,17.45,17.45,0,0,1,2.6.1,6.64,6.64,0,0,1,2.72,1c.86.59,1.69,1.19,2.51,1.83a1.84,1.84,0,0,1-.33,3.08,3.36,3.36,0,0,1-.82.24c0,.11.09.15.15.21l1.59,1.58a1.63,1.63,0,0,1-.21,2.64c-.14.1-.14.18-.1.33a1.65,1.65,0,0,1-1.44,2.13,1.17,1.17,0,0,1-.56,0,.36.36,0,0,0-.53.2.41.41,0,0,1-.1.13c.07.09.17.05.24.05H61c.57,0,.77-.2.77-.77V50.71c0-.11,0-.23,0-.34a.56.56,0,0,1,.56-.5.57.57,0,0,1,.61.49,2.62,2.62,0,0,1,0,.28c0,4.18,0,8.36,0,12.54A1.84,1.84,0,0,1,61.11,65c-6.48,0-13,0-19.44,0a1.72,1.72,0,0,1-1.86-1.83c0-1.08,0-2.16,0-3.24a.72.72,0,0,0-.14-.44A5.49,5.49,0,0,1,38.56,56a1,1,0,0,0-.31-.74c-1.45-1.41-2.88-2.83-4.32-4.24a.72.72,0,0,1-.25-.57A.5.5,0,0,1,34,50a.56.56,0,0,1,.66.12c.31.29.61.59.91.89l1.26,1.24c.13.13.22.16.37,0,1-1,2.11-2.09,3.18-3.12.18-.18.07-.27,0-.38L34,42.46a.88.88,0,0,1-.27-.61.54.54,0,0,1,.85-.46,1.55,1.55,0,0,1,.28.24l4.74,4.66Zm5.16,5H43.79a.46.46,0,0,0-.38.15l-3.52,3.47a.46.46,0,0,0-.15.29,5,5,0,0,0,1.48,4c1.39,1.35,2.77,2.72,4.15,4.09.07.06.13.13.21.19a.47.47,0,0,0,.66-.65l-.18-.18-1.47-1.46a.59.59,0,0,1-.11-.75.58.58,0,0,1,.64-.26.8.8,0,0,1,.4.25l2.19,2.16.18.17a.47.47,0,0,0,.65-.67c0-.06-.12-.12-.18-.18L46.18,60a.65.65,0,0,1-.26-.6.57.57,0,0,1,.4-.47.61.61,0,0,1,.65.17c.85.8,1.67,1.62,2.49,2.45.21.22.43.43.65.63a.46.46,0,0,0,.51.1.47.47,0,0,0,.3-.41.58.58,0,0,0-.25-.45l-2.9-2.85a1.44,1.44,0,0,1-.27-.33.58.58,0,0,1,.39-.82.64.64,0,0,1,.66.23c.74.72,1.48,1.44,2.21,2.17A1.54,1.54,0,0,0,51,60a.44.44,0,0,0,.62,0,.42.42,0,0,0,.06-.59,1.5,1.5,0,0,0-.24-.27L47.24,55a.69.69,0,0,1-.13-1,.72.72,0,0,1,1-.11l.92.58,1.18.75a.63.63,0,0,0,.75,0,.67.67,0,0,0,.25-.72.65.65,0,0,0-.32-.42l-2.13-1.57A6.23,6.23,0,0,0,47.68,52,6.15,6.15,0,0,0,45,51.54Zm9.06-4a.35.35,0,0,0,0-.27c0-1.2,0-2.41,0-3.61,0-.25-.08-.34-.34-.33-1.57,0-3.13,0-4.7,0-.26,0-.34.08-.34.33,0,1.21,0,2.41,0,3.61a.32.32,0,0,0,.06.27l.48-.46a.62.62,0,0,1,1,0c.33.32.66.64,1,1,.13.13.21.13.34,0,.33-.34.66-.66,1-1a.62.62,0,0,1,1,0ZM42.48,50.89a1,1,0,0,0-.08-.11l-.91-.9c-.11-.11-.18-.05-.26,0L38,53.1c-.11.1-.11.17,0,.27.28.27.56.54.83.82s.22.11.35,0q1.57-1.57,3.17-3.13ZM41,61v2.15c0,.49.22.7.73.7h1.94c.07,0,.16,0,.19,0Z"/><path class="cls-2" d="M57.48,58.16H59.2c.42,0,.67.2.69.55a.59.59,0,0,1-.64.64c-.52,0-1,0-1.55,0H55.78c-.46,0-.72-.22-.73-.58a.58.58,0,0,1,.63-.61Z"/><path class="cls-2" d="M58.07,60.48h1.15a.59.59,0,0,1,.67.57.59.59,0,0,1-.65.62c-.8,0-1.59,0-2.38,0a.6.6,0,0,1-.64-.61.61.61,0,0,1,.65-.58Z"/><path class="cls-2" d="M54.53,60.48a.6.6,0,1,1-.6.6A.62.62,0,0,1,54.53,60.48Z"/><path class="cls-2" d="M62.4,48.78a.58.58,0,0,1-.6-.58.6.6,0,0,1,1.19,0A.58.58,0,0,1,62.4,48.78Z"/></g></svg>