<svg id="Capa_1" data-name="Capa 1" xmlns="http://www.w3.org/2000/svg" viewBox="0 0 100 100"><defs><style>.cls-1{fill:#c3cf19;}.cls-2{fill:#1d3f87;}</style></defs><circle class="cls-1" cx="50.02" cy="49.09" r="30.91"/><path class="cls-2" d="M69,50.74l-3.3-5a.46.46,0,0,0-.38-.2h-3.9A.41.41,0,0,0,61,46l.09,5.13a.43.43,0,0,0,.43.41h7A.5.5,0,0,0,69,50.74Zm-2.4-.66H62.28V46.76h2.6l1.84,3A.21.21,0,0,1,66.55,50.08Z"/><path class="cls-2" d="M69.08,59.12h2.19a.56.56,0,0,0,.57-.55V51.8a1.69,1.69,0,0,0-.31-1l-4.89-6.89a1.21,1.21,0,0,0-1-.5H60.08V39.18a.93.93,0,0,0-.92-.93H35.27a1.06,1.06,0,0,0-1,1.07V43H29a.66.66,0,0,0,0,1.32h5.24v1.16H32a.66.66,0,0,0,0,1.31h2.28V48H29a.66.66,0,0,0,0,1.32h5.24V50.5H32a.66.66,0,0,0,0,1.32h2.28v6.69a.6.6,0,0,0,.6.61H38a3.92,3.92,0,0,0,2.49,3.19H29a.66.66,0,0,0-.66.68h0a.66.66,0,0,0,.66.67H71.17a.67.67,0,0,0,.67-.67h0a.67.67,0,0,0-.67-.68H66.34A3.9,3.9,0,0,0,69.08,59.12Zm-9-14.47h5.53a1,1,0,0,1,.8.43l4,5.83a1.47,1.47,0,0,1,.25.82v5.73a.47.47,0,0,1-.46.47H69.08a3.77,3.77,0,0,0-7.49,0H60.08ZM38,57.93H35.79V51.82h4.86a.66.66,0,0,0,0-1.32H35.79V49.31h1.9a.66.66,0,0,0,0-1.32h-1.9V46.83h4.86a.66.66,0,0,0,0-1.31H35.79V44.36h1.9a.66.66,0,0,0,0-1.32h-1.9V39.63h23v18.3H45.51a3.77,3.77,0,0,0-7.47,0Zm1.18,1.19a2.48,2.48,0,0,1-.07-.61,2.78,2.78,0,0,1,.06-.58,2.62,2.62,0,0,1,5.13,0,2.78,2.78,0,0,1,.06.58,2.48,2.48,0,0,1-.07.61,2.61,2.61,0,0,1-5.11,0ZM43,62.31a3.92,3.92,0,0,0,2.49-3.19H61.59a3.9,3.9,0,0,0,2.74,3.19Zm24.83-3.19a2.62,2.62,0,1,1,.09-.7A3.12,3.12,0,0,1,67.87,59.12Z"/></svg>