<svg xmlns="http://www.w3.org/2000/svg" viewBox="0 0 100 100"><defs><style>.cls-1{fill:#264782;}</style></defs><g id="Capa_2" data-name="Capa 2"><path class="cls-1" d="M31.69,40.79V39.22c0-1,0-2,0-3a2.94,2.94,0,0,1,3-2.93H49c6.57,0,13.14,0,19.71,0A3.13,3.13,0,0,1,72,36.49c-.07,1,0,2.09,0,3.13a1,1,0,0,1-1,1.15c-.64,0-1-.42-1-1.16,0-1,0-2,0-3s-.35-1.33-1.35-1.34c-3.12,0-6.23,0-9.35,0-.46,0-.6.13-.6.58,0,2.94,0,5.88,0,8.82,0,.16,0,.33,0,.49a1,1,0,0,1-.64,1,1.07,1.07,0,0,1-1.2-.24c-.59-.57-1.19-1.14-1.75-1.74-.27-.27-.43-.25-.68,0-.54.58-1.11,1.12-1.69,1.67a1.07,1.07,0,0,1-1.66,0c-.58-.56-1.16-1.13-1.72-1.7-.23-.24-.38-.24-.6,0-.52.54-1.06,1-1.58,1.57a1.24,1.24,0,0,1-1.41.44c-.57-.24-.65-.73-.65-1.27V36c0-.67,0-.67-.69-.67H35.19c-1.12,0-1.44.32-1.44,1.44,0,1.9,0,3.79,0,5.69a.92.92,0,0,0,.3.73c1.33,1.3,2.66,2.6,4,3.92a1.07,1.07,0,0,0,.83.33,29.66,29.66,0,0,1,4.52.16,11.83,11.83,0,0,1,4.74,1.82c1.48,1,2.94,2.07,4.35,3.18a3.21,3.21,0,0,1-.56,5.36,6.54,6.54,0,0,1-1.42.4c0,.2.14.27.24.37.93.92,1.86,1.82,2.78,2.74A2.83,2.83,0,0,1,53.13,66a.44.44,0,0,0-.17.58,2.86,2.86,0,0,1-2.5,3.71,2,2,0,0,1-1-.08.62.62,0,0,0-.91.35,1.81,1.81,0,0,1-.18.23c.13.15.29.08.43.08H68.57c1,0,1.35-.35,1.35-1.34V48a5.81,5.81,0,0,1,0-.59,1,1,0,0,1,2,0,2.68,2.68,0,0,1,0,.49c0,7.27,0,14.54,0,21.81a3.2,3.2,0,0,1-3.28,3.21c-11.27,0-22.53,0-33.8,0a3,3,0,0,1-3.23-3.18c0-1.88,0-3.75,0-5.63a1.26,1.26,0,0,0-.24-.77,9.61,9.61,0,0,1-1.95-6.05A1.56,1.56,0,0,0,29,56c-2.52-2.45-5-4.92-7.51-7.37a1.26,1.26,0,0,1-.43-1,.87.87,0,0,1,.52-.91A1,1,0,0,1,22.7,47l1.58,1.55c.73.72,1.47,1.43,2.18,2.15.23.23.39.28.65,0q2.75-2.73,5.53-5.43c.32-.31.12-.46-.08-.66L21.5,33.7A1.59,1.59,0,0,1,21,32.63a1,1,0,0,1,1.48-.8,2.79,2.79,0,0,1,.49.42l8.24,8.1C31.35,40.48,31.48,40.59,31.69,40.79Zm9,8.69c-.86,0-1.45,0-2,0a.83.83,0,0,0-.66.27l-6.13,6a.74.74,0,0,0-.25.51,8.63,8.63,0,0,0,2.56,7c2.42,2.35,4.81,4.73,7.22,7.1a3.82,3.82,0,0,0,.36.34.82.82,0,0,0,1.09-.06.78.78,0,0,0,.06-1.07,2.27,2.27,0,0,0-.3-.32c-.86-.84-1.72-1.68-2.57-2.53a1,1,0,0,1,.92-1.77,1.38,1.38,0,0,1,.7.45l3.8,3.74a3.19,3.19,0,0,0,.33.31.81.81,0,0,0,1.12-1.16,2.34,2.34,0,0,0-.31-.32l-3.8-3.74a1.15,1.15,0,0,1-.45-1,1,1,0,0,1,.7-.82,1,1,0,0,1,1.13.3q2.2,2.09,4.33,4.26c.37.37.74.74,1.13,1.1a.83.83,0,0,0,1.4-.55c0-.35-.21-.57-.43-.79l-5-5a2.14,2.14,0,0,1-.46-.57,1,1,0,0,1,.67-1.43,1.15,1.15,0,0,1,1.15.4l3.84,3.77c.11.1.21.21.33.31a.79.79,0,0,0,1.08,0,.73.73,0,0,0,.11-1,3.28,3.28,0,0,0-.43-.48l-7.21-7.1a1.19,1.19,0,0,1-.22-1.67,1.26,1.26,0,0,1,1.74-.2l1.59,1,2,1.3a1.13,1.13,0,0,0,1.31,0,1.16,1.16,0,0,0,.43-1.27A1.19,1.19,0,0,0,51,54c-1.23-.91-2.47-1.82-3.71-2.71a8.93,8.93,0,0,0-1.87-1A10.7,10.7,0,0,0,40.66,49.48ZM56.4,42.6a.62.62,0,0,0,.1-.47c0-2.09,0-4.18,0-6.27,0-.45-.13-.59-.6-.59q-4.08,0-8.16,0c-.46,0-.59.15-.59.59,0,2.09,0,4.18,0,6.27a.62.62,0,0,0,.1.47l.84-.81a1.09,1.09,0,0,1,1.7,0c.58.56,1.16,1.12,1.72,1.7.23.23.38.23.61,0,.56-.58,1.14-1.14,1.72-1.7a1.09,1.09,0,0,1,1.7,0ZM36.33,48.36a1.15,1.15,0,0,0-.14-.2L34.61,46.6c-.19-.19-.32-.08-.46,0-1.88,1.85-3.75,3.7-5.64,5.54-.18.19-.18.31,0,.48.49.47,1,.94,1.44,1.43.24.24.39.19.61,0,1.83-1.82,3.68-3.63,5.52-5.45ZM33.75,65.94c0,1.27,0,2.5,0,3.73,0,.85.38,1.21,1.26,1.22H38.4c.12,0,.27.07.33,0Z"/><path class="cls-1" d="M62.41,61h3c.74,0,1.18.36,1.21,1a1,1,0,0,1-1.12,1.11c-.9,0-1.79,0-2.69,0-1.11,0-2.22,0-3.33,0-.81,0-1.26-.39-1.28-1A1,1,0,0,1,59.27,61C60.32,61,61.36,61,62.41,61Z"/><path class="cls-1" d="M63.44,65h2c.72,0,1.16.4,1.18,1a1,1,0,0,1-1.14,1.08c-1.38,0-2.75,0-4.13,0a1,1,0,1,1,0-2.07c.69,0,1.39,0,2.09,0Z"/><path class="cls-1" d="M57.28,65a1,1,0,1,1,0,2.07,1.1,1.1,0,0,1-1.05-1A1.08,1.08,0,0,1,57.28,65Z"/><path class="cls-1" d="M71,44.69a1,1,0,0,1-1-1,1,1,0,1,1,1,1Z"/></g></svg>