<svg id="Capa_1" data-name="Capa 1" xmlns="http://www.w3.org/2000/svg" viewBox="0 0 100 100"><defs><style>.cls-1{fill:#c3cf19;}.cls-2{fill:#264782;}</style></defs><ellipse class="cls-1" cx="49.03" cy="48" rx="30.03" ry="31"/><rect class="cls-2" x="47.4" y="51.57" width="8.92" height="1.55"/><rect class="cls-2" x="49.12" y="54.73" width="5.17" height="1.19"/><rect class="cls-2" x="46.87" y="40.5" width="5.22" height="0.96"/><path class="cls-2" d="M59.59,58.45V56.28H58.47v2.17H45.1l.06-14.3,0,1.09h3.7v4.44a.3.3,0,0,0,.3.3h.58a.47.47,0,0,0,.35-.15l1.21-1.23a.58.58,0,0,1,.78,0l1.49,1.26A.67.67,0,0,0,54,50h.41a.31.31,0,0,0,.31-.31V46.32h-1l0,1.58a.23.23,0,0,1-.38.17l-1-.88a.66.66,0,0,0-.87,0l-1.09.91a.21.21,0,0,1-.35-.17V45.24h8.49v9h1.25V44.15h-5V34.08H44.15l0,4.2a1.1,1.1,0,0,0-.55-.87l-7-4.16a2,2,0,0,0-2.7.7h0a1.81,1.81,0,0,0,.65,2.47l6.5,3.79a1,1,0,0,1,.5.89l-.11,6.34a.48.48,0,0,0,.48.49h.75a.41.41,0,0,0,.41-.41L43,40.6a.92.92,0,0,0-.44-.78l-7.33-4.54a.64.64,0,0,1-.19-.92.55.55,0,0,1,.74-.16l7.54,4.58a2.11,2.11,0,0,1,.43.36,1,1,0,0,1,.23.64l.23,21.29a4.25,4.25,0,0,0-1.27-.44L42.82,49.9a.42.42,0,0,0-.43-.41h-.45a.39.39,0,0,0-.39.4V60.58a4.38,4.38,0,1,0,5,4.8H59.65a1.16,1.16,0,0,0,1.16-1.15V63.16h2.35V58.45Zm-3.81,1h2.69v2.69H55.78Zm-3.65,0h2.69v2.69H52.13Zm-3.57,0h2.69v2.69H48.56Zm-.79-.1v2.69H45.46a4.4,4.4,0,0,0-.38-.37V59.36ZM48,37.7h0V35.63h3.05V38H48Zm-2.79-2.07h1.68v3.3H52.1v-3.3h1.5l.1,8.52H45.16l0-5.87ZM42.13,68.51a3.61,3.61,0,1,1,0-7.21,3.81,3.81,0,0,1,1,.15l.09,0a3.6,3.6,0,0,1-1.11,7ZM59.48,63.3a.44.44,0,0,1,.11.29v.2a.43.43,0,0,1-.26.4.41.41,0,0,1-.16,0l-12.66,0a4.19,4.19,0,0,0-.33-1.11H59.46Zm2.67-1.15H59.46V59.46h2.69Z"/><path class="cls-2" d="M42.19,62.88a2,2,0,1,0,2,2A2,2,0,0,0,42.19,62.88Zm-.06,3.29a1.29,1.29,0,1,1,1.29-1.29A1.29,1.29,0,0,1,42.13,66.17Z"/></svg>