<svg id="Capa_1" data-name="Capa 1" xmlns="http://www.w3.org/2000/svg" viewBox="0 0 100 100"><defs><style>.cls-1{fill:#c3cf19;}</style></defs><path class="cls-1" d="M49.71,76.49c-.73-.45-1.53-.78-2.3-1.16L26.83,65.45c-1.79-.86-1.57-.62-1.57-2.49q0-13.24,0-26.51a1.24,1.24,0,0,1,.81-1.27q7.14-3.41,14.25-6.84,4.55-2.18,9.08-4.37a1.56,1.56,0,0,1,1.47,0l19.6,9.43c1.24.6,2.48,1.21,3.73,1.78A1.23,1.23,0,0,1,75,36.45q0,13.69,0,27.39a1.25,1.25,0,0,1-.83,1.26Q64,70,53.87,74.85c-1.12.54-2.26,1-3.33,1.64ZM28,36.1l.45.24,15.79,7.58c.78.38,1,.8.78,1.31s-.73.57-1.53.18L27.45,37.69c-.56-.27-.56-.27-.56.35q0,12.43,0,24.87A1,1,0,0,0,27.53,64Q38.1,69,48.67,74.11c.61.29.61.29.61-.36V48.83a.75.75,0,0,1,0-.15.62.62,0,0,0-.44-.72c-.48-.2-.93-.44-1.4-.67s-.76-.7-.54-1.16.7-.59,1.29-.32.88.4,1.3.64a1.2,1.2,0,0,0,1.25,0c1.56-.78,3.13-1.53,4.7-2.27a.84.84,0,0,1,1.23.35c.2.44,0,.84-.51,1.13-.12.07-.25.12-.37.18-1.46.71-2.91,1.42-4.38,2.11a.69.69,0,0,0-.44.71V73.9c0,.4.1.47.46.28,1.13-.56,2.26-1.09,3.4-1.64l18-8.63c.32-.16.57-.29.57-.74q0-12.64,0-25.27c0-.47-.15-.42-.48-.26-2,1-4,2-6,2.9a.85.85,0,0,0-.56.91c0,2.76,0,5.52,0,8.28A1.21,1.21,0,0,1,65.54,51c-1.77.82-3.51,1.68-5.27,2.51-.85.41-1.38.1-1.46-.83,0-.19,0-.38,0-.57,0-2.64,0-5.28,0-7.92a.73.73,0,0,0-.49-.79c-1.24-.56-2.46-1.17-3.68-1.76q-9.31-4.47-18.63-9a.92.92,0,0,0-.87,0c-1.06.53-2.14,1-3.21,1.55Zm44.22,0-.57-.29-4.33-2.07L50.55,25.66a.9.9,0,0,0-.87,0c-1.7.84-3.41,1.65-5.11,2.48a1.46,1.46,0,0,0-.65.38l.51.26,7.31,3.51,13.72,6.61a1,1,0,0,0,1,0c.75-.39,1.52-.74,2.27-1.1ZM37.53,31.57l3.14,1.5Q49.93,37.53,59.19,42a.9.9,0,0,0,.87,0c1.13-.56,2.27-1.09,3.4-1.65.15-.07.37-.08.42-.33-.09,0-.18-.11-.27-.15L48.76,32.71l-6.39-3.06c-.21-.1-.41-.23-.68-.1Zm23,16c0,1.18,0,2.36,0,3.55,0,.36.08.46.44.28,1.09-.54,2.2-1.07,3.3-1.59a.57.57,0,0,0,.38-.6c0-2.35,0-4.7,0-7,0-.36-.08-.46-.44-.29-1.08.54-2.17,1.06-3.26,1.57a.65.65,0,0,0-.42.68C60.51,45.22,60.5,46.37,60.5,47.52Z"/><path class="cls-1" d="M29.5,55.22a2.75,2.75,0,0,1,.47.17l6.33,3,.27.15A.81.81,0,0,1,35.88,60a13.37,13.37,0,0,1-1.22-.55l-5.39-2.6a1.7,1.7,0,0,1-.39-.24.77.77,0,0,1-.25-.88A.83.83,0,0,1,29.5,55.22Z"/><path class="cls-1" d="M33.72,61.37a.78.78,0,0,1-1,.79,6.38,6.38,0,0,1-.9-.38c-.87-.41-1.73-.82-2.6-1.25-.58-.29-.78-.75-.55-1.2A.86.86,0,0,1,29.91,59c1.09.51,2.17,1,3.25,1.56A.88.88,0,0,1,33.72,61.37Z"/></svg>