<?xml version="1.0" encoding="utf-8"?>
<!-- Generator: Adobe Illustrator 25.4.1, SVG Export Plug-In . SVG Version: 6.00 Build 0)  -->
<svg version="1.1" id="Capa_1" xmlns="http://www.w3.org/2000/svg" xmlns:xlink="http://www.w3.org/1999/xlink" x="0px" y="0px"
	 viewBox="0 0 100 100" style="enable-background:new 0 0 100 100;" xml:space="preserve">
<style type="text/css">
	.st0{fill:#464645;}
</style>
<path class="st0" d="M71.8,71.7c0-0.4-0.2-0.7-0.5-1L59.9,59.2l0,0c3.2-3.6,5-8.3,5-13.1c0.3-11.3-8.6-20.6-19.9-20.9
	C33.7,25,24.4,33.9,24.1,45.2C23.8,56.4,32.7,65.7,43.9,66c4.4,0.1,8.7-1.1,12.4-3.6l0,0l11.4,11.8c0.3,0.4,0.8,0.6,1.3,0.5H71
	c0.6,0,1.1-0.4,1.1-1c0-0.1,0-0.1,0-0.2L71.8,71.7z M45,61c-8.5,0.2-15.5-6.4-15.7-14.9c-0.2-8.5,6.4-15.5,14.9-15.7
	c8.5-0.2,15.5,6.4,15.7,14.9c0,0.5,0,1.1,0,1.6c-0.7,7.7-7,13.7-14.7,14.1H45z"/>
</svg>
