<svg id="Capa_1" data-name="Capa 1" xmlns="http://www.w3.org/2000/svg" viewBox="0 0 100 100"><defs><style>.cls-1{fill:#f1ab02;}</style></defs><path class="cls-1" d="M55.82,15.68l8.46,4.83a2.08,2.08,0,0,1,1.27,1.9,1.94,1.94,0,0,1-1.36,1.88,2.75,2.75,0,0,0-.49.14.8.8,0,0,0-.43.73c0,.3.38.15.59.15H74.69A2,2,0,0,1,77,27.63v51A2,2,0,0,1,74.67,81H29.56a2,2,0,0,1-2.31-2.31v-51a2,2,0,0,1,2.33-2.3c5.82,0,11.63,0,17.45,0a1.64,1.64,0,0,0,1.21-.44c1-.95,2.12-1.84,3.14-2.8a11.29,11.29,0,0,0,1.48-2.36,2.15,2.15,0,0,0,.41-1.87c-.26-1,.4-1.71,1.28-2.18ZM31.25,53.08V76.2c0,.85,0,.86.83.86H56.86c.84,0,.85,0,.85-.84,0-4.08,0-8.16,0-12.24A2,2,0,0,1,60,61.64q6.12,0,12.24,0c.55,0,.73-.16.73-.72q0-15.51,0-31c0-.48-.12-.69-.65-.68H62a.61.61,0,0,0-.71.6c-.21,1.09-.43,2.17-.7,3.24a2,2,0,0,1-3.14,1.35c-.76-.42-1.5-.88-2.26-1.31s-.81-.45-1.29.39c-.8,1.4-1.58,2.81-2.42,4.19a1.91,1.91,0,0,1-2.37.85,2,2,0,0,1-1.26-2.12,2.92,2.92,0,0,1,.45-1.11c.78-1.37,1.57-2.72,2.34-4.09.1-.18.38-.45.1-.61-1-.52-1.8-1.38-3-1.38H32.16c-.91,0-.91,0-.91.9ZM73,68.78l-8.28,8.27h7.81c.43,0,.47-.26.47-.59V68.78Zm-3-3.2c-.14,0-.28,0-.42,0-2.4,0-4.8,0-7.19,0-.58,0-.72.2-.71.74,0,2.35,0,4.7,0,7.06,0,.17-.07.38,0,.48ZM56.92,20.9c-.21,0-.27.17-.34.29-.31.53-.63,1.06-.92,1.6a7,7,0,0,1-1.79,2.43c-.47.36-.88.8-1.35,1.16s-.32.45.07.67c1.37.76,2.74,1.54,4.08,2.34.49.29.72.22.79-.36a13.32,13.32,0,0,1,2.12-5.52c.07-.12.13-.27.21-.39.2-.3.18-.52-.18-.71-.8-.43-1.58-.9-2.37-1.35Z"/><path class="cls-1" d="M52.06,42.52h15.1a2,2,0,0,1,2,2.67,1.85,1.85,0,0,1-1.7,1.24h-30a4.87,4.87,0,0,1-1.08-.07,2,2,0,0,1,.38-3.84c1.1,0,2.21,0,3.31,0Z"/><path class="cls-1" d="M52,54.08H36.93a1.92,1.92,0,0,1-1.8-1,2,2,0,0,1,1.54-2.93H67.19a2,2,0,1,1,0,3.91Z"/><path class="cls-1" d="M44.48,57.81h7.45a2,2,0,0,1,2.15,2,1.93,1.93,0,0,1-2.15,1.92H37a2,2,0,1,1,0-3.91Z"/><path class="cls-1" d="M44.54,65.46h7.39a2,2,0,1,1,0,3.91H37a2,2,0,1,1,0-3.91Z"/></svg>