<svg xmlns="http://www.w3.org/2000/svg" viewBox="0 0 100 100"><defs><style>.cls-1{fill:#fbf5f5;}.cls-2{fill:#edded9;}.cls-3{fill:#c8bdb9;}.cls-4{fill:#c8beb9;}.cls-5{fill:#c8bdb8;}.cls-6{fill:#9e9595;}.cls-7{fill:#ecded9;}.cls-8{fill:#fec510;}.cls-9{fill:#fee441;}.cls-10{fill:#fffe0c;}.cls-11{fill:#f8f5f5;}.cls-12{fill:#063e65;}</style></defs><g id="Capa_2" data-name="Capa 2"><path class="cls-1" d="M34.54,31.05l7.77,13.79a.07.07,0,0,1-.07.11l-15.84.16a.08.08,0,0,1-.07-.12l8.08-13.94A.08.08,0,0,1,34.54,31.05Z"/><path class="cls-2" d="M50.72,71.75c-.18.19-.37.29-.6,0L50,71.69h0a2.06,2.06,0,0,0-.11-.77q-1-3.21-1.91-6.44Q45.72,56.75,43.47,49a35.65,35.65,0,0,1-1.07-3.93v-.14c5.31.07,10.63-.14,15.94.12a.38.38,0,0,1,.1,0q-1.14,3.85-2.27,7.71c-1.5,5.13-3,10.25-4.5,15.37a27.86,27.86,0,0,0-1,3.47Z"/><path class="cls-3" d="M42.4,45.07A35.65,35.65,0,0,0,43.47,49Q45.72,56.74,48,64.49q.95,3.23,1.91,6.44a2.06,2.06,0,0,1,.11.77c-.74-.81-1.5-1.61-2.23-2.43-1.15-1.29-2.28-2.59-3.43-3.87L36.8,57Q33,52.77,29.29,48.53l-2.58-2.85c-.17-.19-.49-.37-.38-.63s.43-.11.66-.11H42.17Z"/><path class="cls-4" d="M58.45,45a.38.38,0,0,0-.1,0,1.24,1.24,0,0,0-.17-.63q-3.76-6.51-7.52-13c-.23-.4-.34-.34-.54,0-1,1.69-1.95,3.37-2.92,5.06l-4.8,8.34h-.23l-5.32-9.23q-1.18-2.05-2.38-4.11c-.21-.36-.09-.52.3-.52H60.25a10.28,10.28,0,0,0,1.09,2.11c.61,1.16,1.38,2.24,1.92,3.44v.23l-1.45,2.48-3.27,5.72Z"/><path class="cls-5" d="M58.45,45l.09-.09h9.55v.13a26.88,26.88,0,0,1-1.7,2.68c-2.71,4.18-5.46,8.33-8.19,12.5L51.36,70.63a1.07,1.07,0,0,0-.27.59h0l-.19.13,0,.19-.15,0a27.86,27.86,0,0,1,1-3.47c1.48-5.12,3-10.24,4.5-15.37Q57.31,48.88,58.45,45Z"/><path class="cls-6" d="M51.09,71.22a1.07,1.07,0,0,1,.27-.59L58.2,60.25c2.73-4.17,5.48-8.32,8.19-12.5a26.88,26.88,0,0,0,1.7-2.68l6.44,0a11.32,11.32,0,0,1-1.69,2C68.91,51.47,65,55.87,61,60.28L51.46,71C51.36,71.07,51.29,71.24,51.09,71.22Z"/><path class="cls-7" d="M74.53,45l-6.44,0v-.13a1.47,1.47,0,0,0-.27-.66c-1.28-2.22-2.55-4.45-3.85-6.65-.19-.32-.2-.82-.71-.9V36.5a6,6,0,0,0,.95-1.5c.74-1.32,1.58-2.58,2.22-3.94a.9.9,0,0,1,.57.49L73,42c.47.82.94,1.63,1.39,2.45C74.5,44.61,74.7,44.79,74.53,45Z"/><path class="cls-8" d="M64.57,68.31A10.77,10.77,0,0,0,66,64.52c0-.22,0-.52.36-.54s.33.29.39.51c.17.64.3,1.3.52,1.92a7.72,7.72,0,0,0,4.11,4.43c.22.11.53.16.51.5s-.29.36-.5.46a7.92,7.92,0,0,0-4.55,5.92c-.06.33,0,.92-.46.92s-.4-.58-.47-.91a10.45,10.45,0,0,0-1.26-3.23A.79.79,0,0,1,65,74a8.88,8.88,0,0,1,2.92-2.24c.22-.09.47-.17.46-.49s-.25-.35-.44-.44a9.35,9.35,0,0,1-3-2.33C64.8,68.43,64.73,68.3,64.57,68.31Z"/><path class="cls-9" d="M64.57,68.31c.16,0,.23.12.32.23a9.35,9.35,0,0,0,3,2.33c.19.09.42.16.44.44s-.24.4-.46.49A8.88,8.88,0,0,0,65,74a.79.79,0,0,0-.26.46,9.54,9.54,0,0,0-3.55-2.81c-.4-.19-.4-.54,0-.72A10.32,10.32,0,0,0,64.57,68.31Z"/><path class="cls-6" d="M66.43,31.06C65.79,32.42,65,33.68,64.21,35a6,6,0,0,1-.95,1.5c-.54-1.2-1.31-2.28-1.92-3.44A10.28,10.28,0,0,1,60.25,31h5.67A.67.67,0,0,1,66.43,31.06Z"/><path class="cls-9" d="M32.55,22.71a5.94,5.94,0,0,1-3.45-5h-.36a10.75,10.75,0,0,1-1.09,3,7,7,0,0,1-2.44,2c-.33.15-.53.42-.08.64a7.61,7.61,0,0,1,2.51,2,7.94,7.94,0,0,1,.95,2.52c0,.18,0,.45.27.47s.3-.29.34-.48a5.74,5.74,0,0,1,3.35-4.47C33,23.17,33,22.91,32.55,22.71Z"/><path class="cls-10" d="M75.94,30.26a4.17,4.17,0,0,1-2.38-3.2c0-.11,0-.27-.19-.27s-.19.18-.22.32a5.79,5.79,0,0,1-.64,1.74,5.29,5.29,0,0,1-1.71,1.37c-.32.15-.33.34,0,.5a5.16,5.16,0,0,1,1.75,1.43,5.89,5.89,0,0,1,.59,1.63c0,.15,0,.37.23.36s.19-.24.23-.38a6.21,6.21,0,0,1,.38-1.2,4,4,0,0,1,1.86-1.82C76.08,30.62,76.34,30.45,75.94,30.26Z"/><path class="cls-7" d="M42.17,44.81h.23v.26l-.23-.14A.24.24,0,0,1,42.17,44.81Z"/><path class="cls-6" d="M50.9,71.34l.19-.13L51,71.4Z"/><path class="cls-6" d="M50.72,71.57l.15,0-.15.21Z"/><path class="cls-3" d="M50,71.69l.12.11Z"/><path class="cls-11" d="M42.41,44.93v-.12l4.8-8.34c1-1.69,2-3.37,2.92-5.06.2-.35.31-.41.54,0q3.75,6.51,7.52,13a1.24,1.24,0,0,1,.17.63C53,44.79,47.72,45,42.41,44.93Z"/><path class="cls-11" d="M63.26,36.73c.51.08.52.58.71.9,1.3,2.2,2.57,4.43,3.85,6.65a1.47,1.47,0,0,1,.27.66H58.54l3.27-5.72Z"/><path class="cls-12" d="M65.93,78.83a2.1,2.1,0,0,1-1-1.64,6.76,6.76,0,0,0-2.91-4.67,13,13,0,0,0-1.36-.78,1.29,1.29,0,0,1-.81-1.17,1.24,1.24,0,0,1,.81-1.22A7,7,0,0,0,65,63.89a4.5,4.5,0,0,1,.24-.87,1.12,1.12,0,0,1,1.13-.74,1.08,1.08,0,0,1,1.11.76c.26.81.46,1.63.64,2.45a.83.83,0,0,1-.54,1c-.42.19-.76.05-1.25-.52a8.65,8.65,0,0,1-3.94,4.6,8.78,8.78,0,0,1,4,4.67,8.71,8.71,0,0,1,4-4.65c-.3-.21-.58-.38-.83-.57a.9.9,0,0,1,1-1.49c.51.29,1,.6,1.52.86a1.29,1.29,0,0,1,.78,1.2A1.27,1.27,0,0,1,72,71.71c-.43.22-.86.43-1.27.69a6.76,6.76,0,0,0-3,4.54c-.15.74-.23,1.54-1.08,1.89Z"/><path class="cls-12" d="M27.56,44.07h13l-6.52-11.3c-.58,1-1.08,1.94-1.67,2.83a1.41,1.41,0,0,1-.88.58.86.86,0,0,1-.72-1.35c.74-1.33,1.51-2.65,2.29-4a1.65,1.65,0,0,1,1.41-.8h.6q15.18,0,30.34,0a2.49,2.49,0,0,1,2.42,1.41c2.35,4.14,4.75,8.25,7.13,12.37a1.64,1.64,0,0,1-.26,2.42L51.64,72c-1,1.1-1.8,1.1-2.77,0l-23-25.77c-.87-1-.91-1.37-.24-2.52,1-1.7,2-3.41,2.95-5.11.38-.66.87-.86,1.36-.58s.58.82.21,1.47q-1.14,2-2.29,4Zm29.6,1.86c-.63,0-1.19-.09-1.31-.77s.36-.95.92-1.13l-6.5-11.26L43.73,44.09h8.18c.53,0,1,.12,1.13.69s-.26,1.12-1,1.12H43.36l6.82,23.25h.14Zm1.9,0L52.51,68.14l.13.06c6.62-7.4,13.23-14.8,19.93-22.28ZM28,45.9,47.86,68.19c-.41-1.89-.94-3.69-1.47-5.5Q44,54.58,41.64,46.46c-.08-.27-.08-.57-.54-.57C36.78,45.91,32.46,45.9,28,45.9ZM73,44.07l-6.53-11.3L60,44.07ZM35.64,31.9l6.52,11.29L48.68,31.9Zm29.26,0h-13l6.51,11.28Z"/><path class="cls-12" d="M33.82,23.54c-.17.2-.38.64-.72.8a5.16,5.16,0,0,0-3,4c-.14.83-.53,1.16-1.15,1.17a1.06,1.06,0,0,1-1.09-.77,6.56,6.56,0,0,1-.23-.87,4.6,4.6,0,0,0-2.66-3.37c-.52-.26-.93-.57-.94-1.2s.41-.94.93-1.2a4.59,4.59,0,0,0,2.66-3.36c.06-.28.13-.55.21-.82a1.13,1.13,0,0,1,2.19,0c.07.25.15.5.2.76a4.64,4.64,0,0,0,2.74,3.43A1.46,1.46,0,0,1,33.82,23.54Zm-2.77-.24L28.9,20.88l-2.17,2.41,2.16,2.42Z"/><path class="cls-12" d="M73.43,25.87a1,1,0,0,1,.9.86,3.59,3.59,0,0,0,2.09,2.82,1,1,0,0,1,0,1.89,3.45,3.45,0,0,0-2,2.66,1.08,1.08,0,0,1-2.15,0,3.4,3.4,0,0,0-2-2.67,1,1,0,0,1,0-1.92,3.51,3.51,0,0,0,2-2.73A1.06,1.06,0,0,1,73.43,25.87Zm-.14,5.82,1.11-1.22-1.12-1.2-1.1,1.21Z"/></g></svg>